{
.appVersion = "1286";
DisplayStrings = (
"¢"
);
classes = (
{
automatic = 1;

glyphs = (
{
glyphname = A;
lastChange = "2020-06-19 12:07:49 +0000";
layers = (
{
anchors = (
{
name = bottom;
position = "{265, 0}";
},
{
name = ogonek;
position = "{557, 0}";
},
{
name = top;
position = "{413, 671}";
}
);
background = {
anchors = (
{
name = bottom;
position = "{265, 0}";
},
{
name = ogonek;
position = "{557, 0}";
},
{
name = top;
position = "{413, 671}";
}
);
paths = (
{
closed = 1;
nodes = (
"137 0 LINE",
"146 37 LINE",
"81 51 LINE",
"182 229 LINE",
"203 263 LINE",
"410 622 LINE",
"383 596 LINE",
"439 265 LINE",
"445 232 LINE",
"475 51 LINE",
"404 37 LINE",
"398 0 LINE",
"594 0 LINE",
"604 37 LINE",
"551 51 LINE",
"444 691 LINE",
"385 658 LINE",
"20 51 LINE",
"-38 37 LINE",
"-44 0 LINE"
);
},
{
closed = 1;
nodes = (
"218 221 OFFCURVE",
"273 222 OFFCURVE",
"313 222 CURVE SMOOTH",
"354 222 OFFCURVE",
"412 221 OFFCURVE",
"477 219 CURVE",
"488 272 LINE",
"460 271 OFFCURVE",
"403 269 OFFCURVE",
"324 269 CURVE SMOOTH",
"246 269 OFFCURVE",
"187 271 OFFCURVE",
"158 272 CURVE",
"147 220 LINE"
);
}
);
};
color = -1;
layerId = "D9A1C40A-2361-406B-8D3E-8FA7FBCB82BD";
paths = (
{
closed = 1;
nodes = (
"138 0 LINE",
"146 37 LINE",
"81 51 LINE",
"182 230 LINE",
"203 264 LINE",
"409 622 LINE",
"384 595 LINE",
"439 265 LINE",
"445 232 LINE",
"475 51 LINE",
"403 37 LINE",
"398 0 LINE",
"595 0 LINE",
"603 37 LINE",
"551 51 LINE",
"443 691 LINE",
"385 658 LINE",
"21 51 LINE",
"-39 37 LINE",
"-45 0 LINE"
);
},
{
closed = 1;
nodes = (
"218 221 OFFCURVE",
"273 222 OFFCURVE",
"313 222 CURVE SMOOTH",
"354 222 OFFCURVE",
"413 221 OFFCURVE",
"477 219 CURVE",
"488 272 LINE",
"461 271 OFFCURVE",
"402 269 OFFCURVE",
"325 269 CURVE SMOOTH",
"247 269 OFFCURVE",
"186 271 OFFCURVE",
"158 272 CURVE",
"147 219 LINE"
);
}
);
width = 653;
},
{
anchors = (
{
name = bottom;
position = "{255, 0}";
},
{
name = ogonek;
position = "{616, 0}";
},
{
name = top;
position = "{432, 671}";
}
);
background = {
paths = (
{
closed = 1;
nodes = (
"193 0 LINE",
"210 65 LINE",
"139 87 LINE",
"224 232 LINE",
"240 266 LINE",
"363 480 LINE",
"328 505 LINE",
"390 261 LINE",
"395 218 LINE",
"424 87 LINE",
"344 65 LINE",
"334 0 LINE",
"678 0 LINE",
"695 65 LINE",
"639 87 LINE",
"495 691 LINE",
"368 629 LINE",
"23 87 LINE",
"-42 65 LINE",
"-53 0 LINE"
);
},
{
closed = 1;
nodes = (
"206 184 OFFCURVE",
"234 186 OFFCURVE",
"301 186 CURVE SMOOTH",
"366 186 OFFCURVE",
"395 184 OFFCURVE",
"407 184 CURVE",
"425 272 LINE",
"398 271 OFFCURVE",
"368 266 OFFCURVE",
"318 266 CURVE SMOOTH",
"265 266 OFFCURVE",
"242 271 OFFCURVE",
"214 272 CURVE",
"195 183 LINE"
);
}
);
};
color = -1;
layerId = "24976ABE-9171-461B-B338-52EF76BD92C7";
paths = (
{
closed = 1;
nodes = (
"192 0 LINE",
"209 65 LINE",
"138 87 LINE",
"225 232 LINE",
"239 266 LINE",
"360 480 LINE",
"327 505 LINE",
"389 261 LINE",
"394 218 LINE",
"423 87 LINE",
"343 65 LINE",
"333 0 LINE",
"677 0 LINE",
"694 65 LINE",
"638 87 LINE",
"494 691 LINE",
"367 629 LINE",
"22 87 LINE",
"-43 65 LINE",
"-54 0 LINE"
);
},
{
closed = 1;
nodes = (
"184 184 OFFCURVE",
"218 186 OFFCURVE",
"297 186 CURVE SMOOTH",
"376 186 OFFCURVE",
"411 184 OFFCURVE",
"425 184 CURVE",
"447 272 LINE",
"414 271 OFFCURVE",
"378 266 OFFCURVE",
"318 266 CURVE SMOOTH",
"255 266 OFFCURVE",
"227 271 OFFCURVE",
"193 272 CURVE",
"171 183 LINE"
);
}
);
width = 723;
},
{
anchors = (
{
name = bottom;
position = "{257, 0}";
},
{
name = ogonek;
position = "{584, 0}";
},
{
name = top;
position = "{419, 671}";
}
);
background = {
anchors = (
{
name = bottom;
position = "{257, 0}";
},
{
name = ogonek;
position = "{584, 0}";
},
{
name = top;
position = "{420, 671}";
}
);
paths = (
{
closed = 1;
nodes = (
"160 0 LINE",
"174 51 LINE",
"106 69 LINE",
"199 230 LINE",
"219 265 LINE",
"383 551 LINE",
"352 550 LINE",
"411 263 LINE",
"417 225 LINE",
"446 69 LINE",
"370 51 LINE",
"362 0 LINE",
"632 0 LINE",
"646 51 LINE",
"591 69 LINE",
"466 691 LINE",
"373 643 LINE",
"18 69 LINE",
"-44 51 LINE",
"-52 0 LINE"
);
},
{
closed = 1;
nodes = (
"209 202 OFFCURVE",
"250 204 OFFCURVE",
"304 204 CURVE SMOOTH",
"357 204 OFFCURVE",
"401 202 OFFCURVE",
"439 202 CURVE",
"453 272 LINE",
"426 271 OFFCURVE",
"382 268 OFFCURVE",
"317 268 CURVE SMOOTH",
"252 268 OFFCURVE",
"211 271 OFFCURVE",
"182 272 CURVE",
"168 201 LINE"
);
}
);
};
color = -1;
layerId = "925D3525-5003-4FA1-BE98-2BABE6F3DA5C";
paths = (
{
closed = 1;
nodes = (
"159 0 LINE",
"174 51 LINE",
"106 69 LINE",
"199 231 LINE",
"218 265 LINE",
"383 551 LINE",
"354 550 LINE",
"411 263 LINE",
"417 225 LINE",
"446 69 LINE",
"370 51 LINE",
"362 0 LINE",
"631 0 LINE",
"646 51 LINE",
"591 69 LINE",
"466 691 LINE",
"373 643 LINE",
"18 69 LINE",
"-45 51 LINE",
"-53 0 LINE"
);
},
{
closed = 1;
nodes = (
"209 202 OFFCURVE",
"250 205 OFFCURVE",
"304 205 CURVE SMOOTH",
"357 205 OFFCURVE",
"400 202 OFFCURVE",
"439 202 CURVE",
"453 272 LINE",
"425 271 OFFCURVE",
"382 267 OFFCURVE",
"318 267 CURVE SMOOTH",
"253 267 OFFCURVE",
"211 271 OFFCURVE",
"183 272 CURVE",
"168 201 LINE"
);
}
);
width = 681;
}
);
leftKerningGroup = A;
note = A;
rightKerningGroup = A;
unicode = 0041;
},
{
glyphname = Aogonek;
lastChange = "2020-06-19 12:07:49 +0000";
layers = (
{
anchors = (
{
name = top;
position = "{413, 671}";
}
);
background = {
anchors = (
{
name = top;
position = "{413, 671}";
}
);
paths = (
{
closed = 1;
nodes = (
"218 221 OFFCURVE",
"273 222 OFFCURVE",
"313 222 CURVE SMOOTH",
"354 222 OFFCURVE",
"412 221 OFFCURVE",
"477 219 CURVE",
"488 272 LINE",
"460 271 OFFCURVE",
"403 269 OFFCURVE",
"324 269 CURVE SMOOTH",
"246 269 OFFCURVE",
"187 271 OFFCURVE",
"158 272 CURVE",
"147 220 LINE"
);
},
{
closed = 1;
nodes = (
"604 37 LINE",
"551 51 LINE",
"444 691 LINE",
"385 658 LINE",
"20 51 LINE",
"-38 37 LINE",
"-44 0 LINE",
"137 0 LINE",
"146 37 LINE",
"81 51 LINE",
"182 229 LINE",
"203 263 LINE",
"410 622 LINE",
"383 596 LINE",
"439 265 LINE",
"445 232 LINE",
"475 51 LINE",
"404 37 LINE",
"398 0 LINE",
"563 0 LINE",
"572 26 LINE",
"429 -28 OFFCURVE",
"342 -96 OFFCURVE",
"342 -173 CURVE SMOOTH",
"342 -218 OFFCURVE",
"372 -255 OFFCURVE",
"446 -255 CURVE SMOOTH",
"488 -255 OFFCURVE",
"535 -234 OFFCURVE",
"572 -198 CURVE",
"555 -173 LINE",
"525 -200 OFFCURVE",
"497 -214 OFFCURVE",
"468 -214 CURVE SMOOTH",
"429 -214 OFFCURVE",
"410 -194 OFFCURVE",
"410 -161 CURVE SMOOTH",
"410 -97 OFFCURVE",
"470 -43 OFFCURVE",
"594 0 CURVE"
);
}
);
};
color = -1;
layerId = "D9A1C40A-2361-406B-8D3E-8FA7FBCB82BD";
paths = (
{
closed = 1;
nodes = (
"488 -255 OFFCURVE",
"535 -234 OFFCURVE",
"571 -198 CURVE",
"554 -174 LINE",
"525 -200 OFFCURVE",
"496 -214 OFFCURVE",
"469 -214 CURVE SMOOTH",
"430 -214 OFFCURVE",
"410 -194 OFFCURVE",
"410 -161 CURVE SMOOTH",
"410 -97 OFFCURVE",
"470 -42 OFFCURVE",
"595 0 CURVE",
"603 37 LINE",
"551 51 LINE",
"443 691 LINE",
"385 658 LINE",
"21 51 LINE",
"-39 37 LINE",
"-45 0 LINE",
"138 0 LINE",
"146 37 LINE",
"81 51 LINE",
"182 230 LINE",
"203 264 LINE",
"410 622 LINE",
"384 595 LINE",
"439 265 LINE",
"445 232 LINE",
"475 51 LINE",
"403 37 LINE",
"398 0 LINE",
"562 0 LINE",
"571 26 LINE",
"429 -27 OFFCURVE",
"342 -96 OFFCURVE",
"342 -174 CURVE SMOOTH",
"342 -217 OFFCURVE",
"371 -255 OFFCURVE",
"446 -255 CURVE SMOOTH"
);
},
{
closed = 1;
nodes = (
"218 221 OFFCURVE",
"273 222 OFFCURVE",
"313 222 CURVE SMOOTH",
"354 222 OFFCURVE",
"413 221 OFFCURVE",
"477 219 CURVE",
"488 272 LINE",
"461 271 OFFCURVE",
"402 269 OFFCURVE",
"325 269 CURVE SMOOTH",
"247 269 OFFCURVE",
"186 271 OFFCURVE",
"158 272 CURVE",
"147 219 LINE"
);
}
);
width = 653;
},
{
anchors = (
{
name = top;
position = "{432, 671}";
}
);
background = {
anchors = (
{
name = top;
position = "{427, 671}";
}
);
paths = (
{
closed = 1;
nodes = (
"193 0 LINE",
"210 65 LINE",
"139 87 LINE",
"226 232 LINE",
"240 266 LINE",
"361 480 LINE",
"328 505 LINE",
"390 261 LINE",
"395 218 LINE",
"424 87 LINE",
"344 65 LINE",
"334 0 LINE",
"678 0 LINE",
"695 65 LINE",
"639 87 LINE",
"495 691 LINE",
"368 629 LINE",
"23 87 LINE",
"-42 65 LINE",
"-53 0 LINE"
);
},
{
closed = 1;
nodes = (
"185 184 OFFCURVE",
"219 186 OFFCURVE",
"298 186 CURVE SMOOTH",
"377 186 OFFCURVE",
"413 184 OFFCURVE",
"426 184 CURVE",
"448 272 LINE",
"415 271 OFFCURVE",
"379 266 OFFCURVE",
"319 266 CURVE SMOOTH",
"256 266 OFFCURVE",
"229 271 OFFCURVE",
"194 272 CURVE",
"173 183 LINE"
);
}
);
};
color = -1;
layerId = "24976ABE-9171-461B-B338-52EF76BD92C7";
paths = (
{
closed = 1;
nodes = (
"563 -255 OFFCURVE",
"610 -234 OFFCURVE",
"647 -198 CURVE",
"623 -145 LINE",
"595 -171 OFFCURVE",
"565 -184 OFFCURVE",
"542 -184 CURVE SMOOTH",
"517 -184 OFFCURVE",
"493 -169 OFFCURVE",
"493 -136 CURVE SMOOTH",
"493 -97 OFFCURVE",
"545 -31 OFFCURVE",
"677 0 CURVE",
"694 65 LINE",
"638 87 LINE",
"494 691 LINE",
"367 629 LINE",
"22 87 LINE",
"-43 65 LINE",
"-54 0 LINE",
"192 0 LINE",
"209 65 LINE",
"138 87 LINE",
"225 232 LINE",
"239 266 LINE",
"360 480 LINE",
"327 505 LINE",
"389 261 LINE",
"394 218 LINE",
"423 87 LINE",
"343 65 LINE",
"333 0 LINE",
"561 0 LINE",
"541 7 LINE",
"458 -7 OFFCURVE",
"361 -77 OFFCURVE",
"361 -150 CURVE SMOOTH",
"361 -215 OFFCURVE",
"431 -255 OFFCURVE",
"505 -255 CURVE SMOOTH"
);
},
{
closed = 1;
nodes = (
"184 184 OFFCURVE",
"218 186 OFFCURVE",
"297 186 CURVE SMOOTH",
"376 186 OFFCURVE",
"411 184 OFFCURVE",
"425 184 CURVE",
"447 272 LINE",
"414 271 OFFCURVE",
"378 266 OFFCURVE",
"318 266 CURVE SMOOTH",
"255 266 OFFCURVE",
"227 271 OFFCURVE",
"193 272 CURVE",
"171 183 LINE"
);
}
);
width = 723;
},
{
anchors = (
{
name = top;
position = "{419, 671}";
}
);
background = {
anchors = (
{
name = top;
position = "{420, 671}";
}
);
paths = (
{
closed = 1;
nodes = (
"1123 202 OFFCURVE",
"1165 205 OFFCURVE",
"1218 205 CURVE SMOOTH",
"1271 205 OFFCURVE",
"1314 202 OFFCURVE",
"1353 202 CURVE",
"1367 272 LINE",
"1339 271 OFFCURVE",
"1296 267 OFFCURVE",
"1232 267 CURVE SMOOTH",
"1167 267 OFFCURVE",
"1126 271 OFFCURVE",
"1097 272 CURVE",
"1082 201 LINE"
);
},
{
closed = 1;
nodes = (
"1560 51 LINE",
"1505 69 LINE",
"1381 691 LINE",
"1287 643 LINE",
"933 69 LINE",
"870 51 LINE",
"862 0 LINE",
"1074 0 LINE",
"1088 51 LINE",
"1021 69 LINE",
"1113 231 LINE",
"1133 265 LINE",
"1297 551 LINE",
"1266 550 LINE",
"1326 263 LINE",
"1331 225 LINE",
"1360 69 LINE",
"1285 51 LINE",
"1277 0 LINE",
"1473 0 LINE",
"1467 17 LINE",
"1355 -17 OFFCURVE",
"1263 -87 OFFCURVE",
"1263 -161 CURVE SMOOTH",
"1263 -216 OFFCURVE",
"1313 -255 OFFCURVE",
"1387 -255 CURVE SMOOTH",
"1438 -255 OFFCURVE",
"1485 -234 OFFCURVE",
"1521 -198 CURVE",
"1501 -159 LINE",
"1472 -185 OFFCURVE",
"1442 -199 OFFCURVE",
"1416 -199 CURVE SMOOTH",
"1384 -199 OFFCURVE",
"1362 -182 OFFCURVE",
"1362 -149 CURVE SMOOTH",
"1362 -97 OFFCURVE",
"1419 -37 OFFCURVE",
"1546 0 CURVE"
);
},
{
closed = 1;
nodes = (
"159 0 LINE",
"174 51 LINE",
"106 69 LINE",
"199 231 LINE",
"218 265 LINE",
"383 551 LINE",
"354 550 LINE",
"411 263 LINE",
"417 225 LINE",
"446 69 LINE",
"370 51 LINE",
"362 0 LINE",
"631 0 LINE",
"646 51 LINE",
"591 69 LINE",
"466 691 LINE",
"373 643 LINE",
"18 69 LINE",
"-45 51 LINE",
"-53 0 LINE"
);
},
{
closed = 1;
nodes = (
"209 202 OFFCURVE",
"250 205 OFFCURVE",
"304 205 CURVE SMOOTH",
"357 205 OFFCURVE",
"400 202 OFFCURVE",
"439 202 CURVE",
"453 272 LINE",
"425 271 OFFCURVE",
"382 267 OFFCURVE",
"318 267 CURVE SMOOTH",
"253 267 OFFCURVE",
"211 271 OFFCURVE",
"183 272 CURVE",
"168 201 LINE"
);
}
);
};
color = -1;
layerId = "925D3525-5003-4FA1-BE98-2BABE6F3DA5C";
paths = (
{
closed = 1;
nodes = (
"523 -255 OFFCURVE",
"570 -234 OFFCURVE",
"607 -198 CURVE",
"586 -159 LINE",
"558 -185 OFFCURVE",
"528 -199 OFFCURVE",
"502 -199 CURVE SMOOTH",
"470 -199 OFFCURVE",
"448 -182 OFFCURVE",
"448 -149 CURVE SMOOTH",
"448 -97 OFFCURVE",
"505 -37 OFFCURVE",
"631 0 CURVE",
"646 51 LINE",
"591 69 LINE",
"466 691 LINE",
"373 643 LINE",
"18 69 LINE",
"-45 51 LINE",
"-53 0 LINE",
"159 0 LINE",
"174 51 LINE",
"106 69 LINE",
"199 231 LINE",
"218 265 LINE",
"383 551 LINE",
"354 550 LINE",
"411 263 LINE",
"417 225 LINE",
"446 69 LINE",
"370 51 LINE",
"362 0 LINE",
"559 0 LINE",
"553 17 LINE",
"441 -17 OFFCURVE",
"349 -87 OFFCURVE",
"349 -161 CURVE SMOOTH",
"349 -216 OFFCURVE",
"399 -255 OFFCURVE",
"473 -255 CURVE SMOOTH"
);
},
{
closed = 1;
nodes = (
"209 202 OFFCURVE",
"250 205 OFFCURVE",
"304 205 CURVE SMOOTH",
"357 205 OFFCURVE",
"400 202 OFFCURVE",
"439 202 CURVE",
"453 272 LINE",
"425 271 OFFCURVE",
"382 267 OFFCURVE",
"318 267 CURVE SMOOTH",
"253 267 OFFCURVE",
"211 271 OFFCURVE",
"183 272 CURVE",
"168 201 LINE"
);
}
);
width = 681;
}
);
leftKerningGroup = A;
leftMetricsKey = A;
widthMetricsKey = A;
note = Aogonek;
rightKerningGroup = A;
unicode = 0104;
},
{
glyphname = AE;
lastChange = "2020-06-19 12:07:49 +0000";
layers = (
{
anchors = (
{
name = bottom;
position = "{411, 0}";
},
{
name = top;
position = "{553, 671}";
}
);
background = {
anchors = (
{
name = bottom;
position = "{411, 0}";
},
{
name = top;
position = "{553, 671}";
}
);
paths = (
{
closed = 1;
nodes = (
"843 153 LINE",
"794 162 LINE",
"720 56 LINE",
"709 53 OFFCURVE",
"682 51 OFFCURVE",
"638 51 CURVE SMOOTH",
"519 51 LINE SMOOTH",
"474 51 OFFCURVE",
"470 50 OFFCURVE",
"457 53 CURVE",
"459 65 OFFCURVE",
"482 181 OFFCURVE",
"490 224 CURVE SMOOTH",
"536 439 LINE SMOOTH",
"547 493 OFFCURVE",
"575 611 OFFCURVE",
"578 618 CURVE",
"599 621 OFFCURVE",
"625 622 OFFCURVE",
"645 622 CURVE SMOOTH",
"785 622 LINE SMOOTH",
"801 622 OFFCURVE",
"817 621 OFFCURVE",
"823 619 CURVE",
"835 525 LINE",
"882 530 LINE",
"896 675 LINE",
"859 671 OFFCURVE",
"847 671 OFFCURVE",
"809 671 CURVE SMOOTH",
"431 671 LINE",
"422 634 LINE",
"519 619 LINE",
"514 657 LINE",
"8 51 LINE",
"-53 37 LINE",
"-58 0 LINE",
"136 0 LINE",
"145 37 LINE",
"79 51 LINE",
"545 630 LINE",
"504 603 LINE",
"409 166 LINE SMOOTH",
"394 89 OFFCURVE",
"386 65 OFFCURVE",
"384 51 CURVE",
"312 37 LINE",
"306 0 LINE",
"690 0 LINE SMOOTH",
"711 0 OFFCURVE",
"717 0 OFFCURVE",
"773 -6 CURVE"
);
},
{
closed = 1;
nodes = (
"229 218 OFFCURVE",
"272 217 OFFCURVE",
"333 217 CURVE SMOOTH",
"431 217 OFFCURVE",
"454 218 OFFCURVE",
"457 215 CURVE",
"467 270 LINE",
"450 267 OFFCURVE",
"407 266 OFFCURVE",
"344 266 CURVE SMOOTH",
"286 266 OFFCURVE",
"233 267 OFFCURVE",
"211 270 CURVE",
"191 216 LINE"
);
},
{
closed = 1;
nodes = (
"739 238 LINE",
"785 455 LINE",
"744 455 LINE",
"711 374 LINE",
"701 370 OFFCURVE",
"686 370 OFFCURVE",
"663 370 CURVE SMOOTH",
"576 370 LINE SMOOTH",
"559 370 OFFCURVE",
"541 370 OFFCURVE",
"510 371 CURVE",
"498 319 LINE",
"530 320 OFFCURVE",
"549 321 OFFCURVE",
"567 321 CURVE SMOOTH",
"655 321 LINE SMOOTH",
"678 321 OFFCURVE",
"693 320 OFFCURVE",
"701 317 CURVE",
"698 238 LINE"
);
}
);
};
color = -1;
layerId = "D9A1C40A-2361-406B-8D3E-8FA7FBCB82BD";
paths = (
{
closed = 1;
nodes = (
"843 153 LINE",
"794 162 LINE",
"720 56 LINE",
"709 53 OFFCURVE",
"682 51 OFFCURVE",
"638 51 CURVE SMOOTH",
"519 51 LINE SMOOTH",
"486 51 OFFCURVE",
"481 51 OFFCURVE",
"457 54 CURVE",
"459 66 OFFCURVE",
"481 182 OFFCURVE",
"490 225 CURVE SMOOTH",
"536 439 LINE SMOOTH",
"547 493 OFFCURVE",
"575 611 OFFCURVE",
"578 618 CURVE",
"599 621 OFFCURVE",
"625 622 OFFCURVE",
"645 622 CURVE SMOOTH",
"785 622 LINE SMOOTH",
"801 622 OFFCURVE",
"817 621 OFFCURVE",
"823 619 CURVE",
"835 525 LINE",
"882 530 LINE",
"896 675 LINE",
"859 671 OFFCURVE",
"847 671 OFFCURVE",
"809 671 CURVE SMOOTH",
"432 671 LINE",
"422 634 LINE",
"519 619 LINE",
"514 657 LINE",
"8 51 LINE",
"-53 37 LINE",
"-58 0 LINE",
"135 0 LINE",
"145 37 LINE",
"79 51 LINE",
"545 630 LINE",
"504 603 LINE",
"410 166 LINE SMOOTH",
"394 89 OFFCURVE",
"387 65 OFFCURVE",
"385 51 CURVE",
"313 37 LINE",
"307 0 LINE",
"690 0 LINE SMOOTH",
"711 0 OFFCURVE",
"717 0 OFFCURVE",
"773 -6 CURVE"
);
},
{
closed = 1;
nodes = (
"229 218 OFFCURVE",
"272 217 OFFCURVE",
"333 217 CURVE SMOOTH",
"431 217 OFFCURVE",
"454 218 OFFCURVE",
"457 215 CURVE",
"467 270 LINE",
"450 267 OFFCURVE",
"407 266 OFFCURVE",
"344 266 CURVE SMOOTH",
"286 266 OFFCURVE",
"233 267 OFFCURVE",
"211 270 CURVE",
"191 216 LINE"
);
},
{
closed = 1;
nodes = (
"739 238 LINE",
"785 455 LINE",
"744 455 LINE",
"711 373 LINE",
"701 370 OFFCURVE",
"686 370 OFFCURVE",
"663 370 CURVE SMOOTH",
"576 370 LINE SMOOTH",
"559 370 OFFCURVE",
"541 370 OFFCURVE",
"510 371 CURVE",
"498 319 LINE",
"530 320 OFFCURVE",
"549 321 OFFCURVE",
"567 321 CURVE SMOOTH",
"655 321 LINE SMOOTH",
"678 321 OFFCURVE",
"693 320 OFFCURVE",
"701 318 CURVE",
"698 238 LINE"
);
}
);
width = 905;
},
{
anchors = (
{
name = bottom;
position = "{458, 0}";
},
{
name = top;
position = "{600, 671}";
}
);
background = {
paths = (
{
closed = 1;
nodes = (
"952 190 LINE",
"875 203 LINE",
"792 86 LINE",
"768 81 OFFCURVE",
"773 81 OFFCURVE",
"709 81 CURVE SMOOTH",
"679 81 LINE SMOOTH",
"622 81 OFFCURVE",
"595 82 OFFCURVE",
"565 87 CURVE",
"567 111 OFFCURVE",
"578 174 OFFCURVE",
"591 231 CURVE SMOOTH",
"637 446 LINE SMOOTH",
"648 499 OFFCURVE",
"664 570 OFFCURVE",
"671 593 CURVE",
"687 595 OFFCURVE",
"720 597 OFFCURVE",
"750 597 CURVE SMOOTH",
"809 597 LINE SMOOTH",
"827 597 OFFCURVE",
"841 595 OFFCURVE",
"865 591 CURVE",
"881 489 LINE",
"960 497 LINE",
"969 678 LINE",
"920 674 OFFCURVE",
"813 671 OFFCURVE",
"755 671 CURVE SMOOTH",
"421 671 LINE",
"403 606 LINE",
"473 586 LINE",
"470 560 OFFCURVE",
"458 498 OFFCURVE",
"440 409 CURVE SMOOTH",
"410 269 LINE SMOOTH",
"392 182 OFFCURVE",
"371 106 OFFCURVE",
"365 87 CURVE",
"286 65 LINE",
"275 0 LINE",
"673 0 LINE SMOOTH",
"731 0 OFFCURVE",
"814 -3 OFFCURVE",
"861 -8 CURVE"
);
},
{
closed = 1;
nodes = (
"821 224 LINE",
"871 462 LINE",
"797 462 LINE",
"771 389 LINE",
"761 387 OFFCURVE",
"731 386 OFFCURVE",
"699 386 CURVE SMOOTH",
"656 386 LINE SMOOTH",
"625 386 OFFCURVE",
"600 390 OFFCURVE",
"594 391 CURVE",
"575 298 LINE",
"581 299 OFFCURVE",
"607 302 OFFCURVE",
"638 302 CURVE SMOOTH",
"680 302 LINE SMOOTH",
"713 302 OFFCURVE",
"738 302 OFFCURVE",
"752 301 CURVE",
"746 224 LINE"
);
}
);
};
color = -1;
layerId = "24976ABE-9171-461B-B338-52EF76BD92C7";
paths = (
{
closed = 1;
nodes = (
"951 190 LINE",
"874 203 LINE",
"791 86 LINE",
"767 82 OFFCURVE",
"750 81 OFFCURVE",
"711 81 CURVE SMOOTH",
"675 81 LINE SMOOTH",
"643 81 OFFCURVE",
"606 82 OFFCURVE",
"575 87 CURVE",
"577 110 OFFCURVE",
"589 174 OFFCURVE",
"601 231 CURVE SMOOTH",
"647 446 LINE SMOOTH",
"658 499 OFFCURVE",
"674 570 OFFCURVE",
"681 593 CURVE",
"698 595 OFFCURVE",
"728 597 OFFCURVE",
"760 597 CURVE SMOOTH",
"807 597 LINE SMOOTH",
"826 597 OFFCURVE",
"839 595 OFFCURVE",
"864 591 CURVE",
"880 489 LINE",
"959 497 LINE",
"968 678 LINE",
"919 674 OFFCURVE",
"807 671 OFFCURVE",
"754 671 CURVE SMOOTH",
"391 671 LINE",
"374 605 LINE",
"480 584 LINE",
"480 632 LINE",
"-15 87 LINE",
"-83 66 LINE",
"-94 0 LINE",
"154 0 LINE",
"171 66 LINE",
"104 87 LINE",
"528 569 LINE",
"482 562 LINE",
"414 238 LINE SMOOTH",
"402 183 OFFCURVE",
"391 126 OFFCURVE",
"379 87 CURVE",
"303 65 LINE",
"293 0 LINE",
"672 0 LINE SMOOTH",
"730 0 OFFCURVE",
"813 -3 OFFCURVE",
"859 -8 CURVE"
);
},
{
closed = 1;
nodes = (
"176 174 OFFCURVE",
"221 176 OFFCURVE",
"286 176 CURVE SMOOTH",
"336 176 OFFCURVE",
"381 175 OFFCURVE",
"429 174 CURVE",
"450 261 LINE",
"399 256 OFFCURVE",
"357 255 OFFCURVE",
"303 255 CURVE SMOOTH",
"230 255 OFFCURVE",
"237 258 OFFCURVE",
"201 261 CURVE",
"151 171 LINE"
);
},
{
closed = 1;
nodes = (
"819 224 LINE",
"870 462 LINE",
"795 462 LINE",
"770 389 LINE",
"760 387 OFFCURVE",
"731 386 OFFCURVE",
"698 386 CURVE SMOOTH",
"667 386 LINE SMOOTH",
"637 386 OFFCURVE",
"609 390 OFFCURVE",
"605 391 CURVE",
"585 298 LINE",
"590 299 OFFCURVE",
"617 302 OFFCURVE",
"649 302 CURVE SMOOTH",
"680 302 LINE SMOOTH",
"712 302 OFFCURVE",
"739 302 OFFCURVE",
"751 301 CURVE",
"745 224 LINE"
);
}
);
width = 979;
},
{
anchors = (
{
name = bottom;
position = "{434, 0}";
},
{
name = top;
position = "{576, 671}";
}
);
background = {
anchors = (
{
name = bottom;
position = "{434, 0}";
},
{
name = top;
position = "{576, 671}";
}
);
paths = (
{
closed = 1;
nodes = (
"896 171 LINE",
"834 183 LINE",
"755 71 LINE",
"738 67 OFFCURVE",
"727 67 OFFCURVE",
"673 67 CURVE SMOOTH",
"602 67 LINE SMOOTH",
"562 67 OFFCURVE",
"542 68 OFFCURVE",
"515 70 CURVE",
"517 88 OFFCURVE",
"535 178 OFFCURVE",
"545 227 CURVE SMOOTH",
"591 442 LINE SMOOTH",
"602 496 OFFCURVE",
"624 591 OFFCURVE",
"629 606 CURVE",
"648 608 OFFCURVE",
"676 609 OFFCURVE",
"702 609 CURVE SMOOTH",
"795 609 LINE SMOOTH",
"813 609 OFFCURVE",
"827 608 OFFCURVE",
"843 605 CURVE",
"858 507 LINE",
"920 513 LINE",
"931 676 LINE",
"892 674 OFFCURVE",
"826 671 OFFCURVE",
"781 671 CURVE SMOOTH",
"410 671 LINE",
"397 619 LINE",
"499 602 LINE",
"497 644 LINE",
"-4 69 LINE",
"-68 52 LINE",
"-77 0 LINE",
"144 0 LINE",
"158 52 LINE",
"91 69 LINE",
"537 600 LINE",
"492 583 LINE",
"411 201 LINE SMOOTH",
"397 136 OFFCURVE",
"388 95 OFFCURVE",
"381 69 CURVE",
"306 51 LINE",
"299 0 LINE",
"681 0 LINE SMOOTH",
"720 0 OFFCURVE",
"771 -3 OFFCURVE",
"815 -6 CURVE"
);
},
{
closed = 1;
nodes = (
"201 196 OFFCURVE",
"242 197 OFFCURVE",
"303 197 CURVE SMOOTH",
"360 197 OFFCURVE",
"391 196 OFFCURVE",
"432 194 CURVE",
"447 265 LINE",
"415 262 OFFCURVE",
"374 261 OFFCURVE",
"317 261 CURVE SMOOTH",
"255 261 OFFCURVE",
"231 263 OFFCURVE",
"204 265 CURVE",
"170 194 LINE"
);
},
{
closed = 1;
nodes = (
"779 230 LINE",
"827 458 LINE",
"769 458 LINE",
"740 381 LINE",
"730 380 OFFCURVE",
"708 378 OFFCURVE",
"680 378 CURVE SMOOTH",
"621 378 LINE SMOOTH",
"597 378 OFFCURVE",
"575 380 OFFCURVE",
"557 381 CURVE",
"541 309 LINE",
"560 310 OFFCURVE",
"583 312 OFFCURVE",
"607 312 CURVE SMOOTH",
"667 312 LINE SMOOTH",
"694 312 OFFCURVE",
"715 310 OFFCURVE",
"725 309 CURVE",
"721 230 LINE"
);
}
);
};
color = -1;
layerId = "925D3525-5003-4FA1-BE98-2BABE6F3DA5C";
paths = (
{
closed = 1;
nodes = (
"896 171 LINE",
"834 183 LINE",
"755 71 LINE",
"738 67 OFFCURVE",
"727 66 OFFCURVE",
"673 66 CURVE SMOOTH",
"602 66 LINE SMOOTH",
"561 66 OFFCURVE",
"542 67 OFFCURVE",
"515 70 CURVE",
"518 88 OFFCURVE",
"535 177 OFFCURVE",
"545 227 CURVE SMOOTH",
"591 442 LINE SMOOTH",
"602 496 OFFCURVE",
"624 591 OFFCURVE",
"629 606 CURVE",
"648 608 OFFCURVE",
"675 609 OFFCURVE",
"702 609 CURVE SMOOTH",
"795 609 LINE SMOOTH",
"813 609 OFFCURVE",
"827 608 OFFCURVE",
"842 605 CURVE",
"857 507 LINE",
"920 513 LINE",
"931 677 LINE",
"891 674 OFFCURVE",
"826 671 OFFCURVE",
"782 671 CURVE SMOOTH",
"411 671 LINE",
"397 619 LINE",
"498 602 LINE",
"497 645 LINE",
"-5 69 LINE",
"-69 51 LINE",
"-77 0 LINE",
"143 0 LINE",
"158 51 LINE",
"90 69 LINE",
"537 600 LINE",
"491 583 LINE",
"410 201 LINE SMOOTH",
"398 136 OFFCURVE",
"387 95 OFFCURVE",
"381 69 CURVE",
"305 51 LINE",
"297 0 LINE",
"680 0 LINE SMOOTH",
"720 0 OFFCURVE",
"771 -3 OFFCURVE",
"815 -7 CURVE"
);
},
{
closed = 1;
nodes = (
"201 195 OFFCURVE",
"242 197 OFFCURVE",
"303 197 CURVE SMOOTH",
"360 197 OFFCURVE",
"392 195 OFFCURVE",
"432 194 CURVE",
"447 265 LINE",
"415 262 OFFCURVE",
"374 261 OFFCURVE",
"317 261 CURVE SMOOTH",
"255 261 OFFCURVE",
"231 263 OFFCURVE",
"205 265 CURVE",
"170 193 LINE"
);
},
{
closed = 1;
nodes = (
"779 231 LINE",
"827 458 LINE",
"769 458 LINE",
"741 381 LINE",
"730 379 OFFCURVE",
"707 378 OFFCURVE",
"680 378 CURVE SMOOTH",
"621 378 LINE SMOOTH",
"597 378 OFFCURVE",
"575 379 OFFCURVE",
"557 381 CURVE",
"541 309 LINE",
"560 310 OFFCURVE",
"583 312 OFFCURVE",
"607 312 CURVE SMOOTH",
"666 312 LINE SMOOTH",
"695 312 OFFCURVE",
"715 310 OFFCURVE",
"726 309 CURVE",
"721 231 LINE"
);
}
);
width = 939;
}
);
leftKerningGroup = AE;
note = AE;
rightKerningGroup = E;
unicode = 00C6;
},
{
glyphname = B;
lastChange = "2020-06-19 12:07:49 +0000";
layers = (
{
anchors = (
{
name = bottom;
position = "{254, 0}";
},
{
name = top;
position = "{395, 671}";
}
);
background = {
anchors = (
{
name = bottom;
position = "{254, 0}";
},
{
name = top;
position = "{395, 671}";
}
);
paths = (
{
closed = 1;
nodes = (
"19 37 LINE",
"14 0 LINE",
"251 0 LINE SMOOTH",
"437 0 OFFCURVE",
"555 96 OFFCURVE",
"555 219 CURVE SMOOTH",
"555 297 OFFCURVE",
"491 353 OFFCURVE",
"384 359 CURVE",
"402 352 LINE",
"498 363 OFFCURVE",
"590 448 OFFCURVE",
"590 541 CURVE SMOOTH",
"590 626 OFFCURVE",
"515 671 OFFCURVE",
"389 671 CURVE SMOOTH",
"153 671 LINE",
"143 634 LINE",
"208 619 LINE",
"208 600 OFFCURVE",
"200 557 OFFCURVE",
"178 449 CURVE SMOOTH",
"127 213 LINE SMOOTH",
"104 109 OFFCURVE",
"97 74 OFFCURVE",
"90 51 CURVE"
);
},
{
closed = 1;
nodes = (
"251 474 LINE SMOOTH",
"267 546 OFFCURVE",
"283 617 OFFCURVE",
"287 627 CURVE",
"375 627 LINE SMOOTH",
"470 627 OFFCURVE",
"515 593 OFFCURVE",
"515 526 CURVE SMOOTH",
"515 433 OFFCURVE",
"443 368 OFFCURVE",
"313 368 CURVE SMOOTH",
"273 368 OFFCURVE",
"246 370 OFFCURVE",
"213 371 CURVE",
"201 321 LINE",
"217 323 OFFCURVE",
"229 323 OFFCURVE",
"303 323 CURVE SMOOTH",
"424 323 OFFCURVE",
"481 282 OFFCURVE",
"481 205 CURVE SMOOTH",
"481 102 OFFCURVE",
"411 46 OFFCURVE",
"257 46 CURVE SMOOTH",
"230 46 OFFCURVE",
"185 50 OFFCURVE",
"167 54 CURVE",
"165 65 OFFCURVE",
"179 131 OFFCURVE",
"194 202 CURVE SMOOTH"
);
}
);
};
color = -1;
layerId = "D9A1C40A-2361-406B-8D3E-8FA7FBCB82BD";
paths = (
{
closed = 1;
nodes = (
"18 37 LINE",
"13 0 LINE",
"249 0 LINE SMOOTH",
"434 0 OFFCURVE",
"553 96 OFFCURVE",
"553 219 CURVE SMOOTH",
"553 297 OFFCURVE",
"489 353 OFFCURVE",
"382 359 CURVE",
"400 352 LINE",
"496 363 OFFCURVE",
"587 448 OFFCURVE",
"587 541 CURVE SMOOTH",
"587 626 OFFCURVE",
"513 671 OFFCURVE",
"386 671 CURVE SMOOTH",
"153 671 LINE",
"143 634 LINE",
"208 619 LINE",
"208 600 OFFCURVE",
"200 557 OFFCURVE",
"177 449 CURVE SMOOTH",
"127 213 LINE SMOOTH",
"105 109 OFFCURVE",
"97 74 OFFCURVE",
"90 51 CURVE"
);
},
{
closed = 1;
nodes = (
"250 474 LINE SMOOTH",
"265 546 OFFCURVE",
"282 617 OFFCURVE",
"286 627 CURVE",
"373 627 LINE SMOOTH",
"467 627 OFFCURVE",
"513 593 OFFCURVE",
"513 526 CURVE SMOOTH",
"513 433 OFFCURVE",
"441 368 OFFCURVE",
"311 368 CURVE SMOOTH",
"271 368 OFFCURVE",
"243 369 OFFCURVE",
"210 371 CURVE",
"199 321 LINE",
"238 323 OFFCURVE",
"249 323 OFFCURVE",
"301 323 CURVE SMOOTH",
"422 323 OFFCURVE",
"479 282 OFFCURVE",
"479 205 CURVE SMOOTH",
"479 102 OFFCURVE",
"409 46 OFFCURVE",
"255 46 CURVE SMOOTH",
"227 46 OFFCURVE",
"184 50 OFFCURVE",
"166 54 CURVE",
"167 65 OFFCURVE",
"178 131 OFFCURVE",
"193 202 CURVE SMOOTH"
);
}
);
width = 619;
},
{
anchors = (
{
name = bottom;
position = "{320, 0}";
},
{
name = top;
position = "{462, 671}";
}
);
background = {
anchors = (
{
name = bottom;
position = "{321, 0}";
},
{
name = top;
position = "{463, 671}";
}
);
paths = (
{
closed = 1;
nodes = (
"-3 65 LINE",
"-15 0 LINE",
"330 0 LINE SMOOTH",
"534 0 OFFCURVE",
"669 91 OFFCURVE",
"669 224 CURVE SMOOTH",
"669 318 OFFCURVE",
"592 365 OFFCURVE",
"465 370 CURVE",
"454 352 LINE",
"631 359 OFFCURVE",
"698 441 OFFCURVE",
"698 534 CURVE SMOOTH",
"698 631 OFFCURVE",
"617 671 OFFCURVE",
"477 671 CURVE SMOOTH",
"131 671 LINE",
"113 606 LINE",
"185 586 LINE",
"182 560 OFFCURVE",
"170 498 OFFCURVE",
"152 409 CURVE SMOOTH",
"122 269 LINE SMOOTH",
"104 181 OFFCURVE",
"83 106 OFFCURVE",
"77 87 CURVE"
);
},
{
closed = 1;
nodes = (
"353 465 LINE SMOOTH",
"368 533 OFFCURVE",
"379 584 OFFCURVE",
"383 599 CURVE",
"407 599 LINE SMOOTH",
"463 599 OFFCURVE",
"494 573 OFFCURVE",
"494 514 CURVE SMOOTH",
"494 438 OFFCURVE",
"441 382 OFFCURVE",
"378 382 CURVE SMOOTH",
"352 382 OFFCURVE",
"342 382 OFFCURVE",
"330 383 CURVE",
"313 297 LINE",
"341 299 OFFCURVE",
"361 299 OFFCURVE",
"363 299 CURVE SMOOTH",
"431 299 OFFCURVE",
"464 275 OFFCURVE",
"464 211 CURVE SMOOTH",
"464 137 OFFCURVE",
"414 75 OFFCURVE",
"345 75 CURVE SMOOTH",
"313 75 OFFCURVE",
"289 79 OFFCURVE",
"275 86 CURVE",
"281 105 OFFCURVE",
"287 145 OFFCURVE",
"298 202 CURVE SMOOTH"
);
}
);
};
color = -1;
layerId = "24976ABE-9171-461B-B338-52EF76BD92C7";
paths = (
{
closed = 1;
nodes = (
"-2 65 LINE",
"-13 0 LINE",
"329 0 LINE SMOOTH",
"533 0 OFFCURVE",
"667 91 OFFCURVE",
"667 224 CURVE SMOOTH",
"667 318 OFFCURVE",
"591 365 OFFCURVE",
"458 370 CURVE",
"447 352 LINE",
"630 359 OFFCURVE",
"697 441 OFFCURVE",
"697 534 CURVE SMOOTH",
"697 631 OFFCURVE",
"616 671 OFFCURVE",
"475 671 CURVE SMOOTH",
"131 671 LINE",
"114 606 LINE",
"184 586 LINE",
"181 560 OFFCURVE",
"169 498 OFFCURVE",
"151 409 CURVE SMOOTH",
"121 269 LINE SMOOTH",
"103 181 OFFCURVE",
"82 106 OFFCURVE",
"75 87 CURVE"
);
},
{
closed = 1;
nodes = (
"352 465 LINE SMOOTH",
"367 533 OFFCURVE",
"378 584 OFFCURVE",
"382 599 CURVE",
"406 599 LINE SMOOTH",
"462 599 OFFCURVE",
"493 573 OFFCURVE",
"493 514 CURVE SMOOTH",
"493 438 OFFCURVE",
"440 382 OFFCURVE",
"366 382 CURVE SMOOTH",
"351 382 OFFCURVE",
"341 382 OFFCURVE",
"318 383 CURVE",
"301 297 LINE",
"315 298 OFFCURVE",
"338 299 OFFCURVE",
"351 299 CURVE SMOOTH",
"430 299 OFFCURVE",
"463 272 OFFCURVE",
"463 211 CURVE SMOOTH",
"463 123 OFFCURVE",
"408 75 OFFCURVE",
"339 75 CURVE SMOOTH",
"310 75 OFFCURVE",
"288 79 OFFCURVE",
"274 86 CURVE",
"280 105 OFFCURVE",
"286 145 OFFCURVE",
"297 202 CURVE SMOOTH"
);
}
);
width = 727;
},
{
anchors = (
{
name = bottom;
position = "{283, 0}";
},
{
name = top;
position = "{425, 671}";
}
);
background = {
anchors = (
{
name = bottom;
position = "{284, 0}";
},
{
name = top;
position = "{426, 671}";
}
);
paths = (
{
closed = 1;
nodes = (
"4 51 LINE",
"-4 0 LINE",
"287 0 LINE SMOOTH",
"482 0 OFFCURVE",
"609 94 OFFCURVE",
"609 222 CURVE SMOOTH",
"609 307 OFFCURVE",
"538 359 OFFCURVE",
"421 364 CURVE",
"425 352 LINE",
"561 361 OFFCURVE",
"640 445 OFFCURVE",
"640 538 CURVE SMOOTH",
"640 629 OFFCURVE",
"563 671 OFFCURVE",
"429 671 CURVE SMOOTH",
"139 671 LINE",
"125 620 LINE",
"193 603 LINE",
"191 580 OFFCURVE",
"182 527 OFFCURVE",
"161 429 CURVE SMOOTH",
"121 240 LINE SMOOTH",
"101 144 OFFCURVE",
"87 90 OFFCURVE",
"80 69 CURVE"
);
},
{
closed = 1;
nodes = (
"299 469 LINE SMOOTH",
"314 539 OFFCURVE",
"328 600 OFFCURVE",
"331 613 CURVE",
"388 613 LINE SMOOTH",
"462 613 OFFCURVE",
"501 583 OFFCURVE",
"501 520 CURVE SMOOTH",
"501 436 OFFCURVE",
"439 375 OFFCURVE",
"343 375 CURVE SMOOTH",
"309 375 OFFCURVE",
"290 376 OFFCURVE",
"268 377 CURVE",
"254 309 LINE",
"275 311 OFFCURVE",
"291 311 OFFCURVE",
"330 311 CURVE SMOOTH",
"424 311 OFFCURVE",
"469 279 OFFCURVE",
"469 208 CURVE SMOOTH",
"469 119 OFFCURVE",
"409 61 OFFCURVE",
"298 61 CURVE SMOOTH",
"268 61 OFFCURVE",
"233 65 OFFCURVE",
"218 69 CURVE",
"219 85 OFFCURVE",
"229 139 OFFCURVE",
"243 202 CURVE SMOOTH"
);
}
);
};
color = -1;
layerId = "925D3525-5003-4FA1-BE98-2BABE6F3DA5C";
paths = (
{
closed = 1;
nodes = (
"5 51 LINE",
"-3 0 LINE",
"287 0 LINE SMOOTH",
"482 0 OFFCURVE",
"608 94 OFFCURVE",
"608 222 CURVE SMOOTH",
"608 307 OFFCURVE",
"538 359 OFFCURVE",
"422 365 CURVE",
"425 352 LINE",
"561 361 OFFCURVE",
"640 445 OFFCURVE",
"640 537 CURVE SMOOTH",
"640 629 OFFCURVE",
"563 671 OFFCURVE",
"429 671 CURVE SMOOTH",
"141 671 LINE",
"126 619 LINE",
"193 602 LINE",
"191 581 OFFCURVE",
"182 527 OFFCURVE",
"161 430 CURVE SMOOTH",
"121 240 LINE SMOOTH",
"101 144 OFFCURVE",
"87 90 OFFCURVE",
"80 69 CURVE"
);
},
{
closed = 1;
nodes = (
"299 470 LINE SMOOTH",
"314 539 OFFCURVE",
"328 600 OFFCURVE",
"331 613 CURVE",
"387 613 LINE SMOOTH",
"463 613 OFFCURVE",
"501 583 OFFCURVE",
"501 520 CURVE SMOOTH",
"501 435 OFFCURVE",
"439 375 OFFCURVE",
"343 375 CURVE SMOOTH",
"309 375 OFFCURVE",
"290 376 OFFCURVE",
"269 377 CURVE",
"254 309 LINE",
"275 311 OFFCURVE",
"291 311 OFFCURVE",
"330 311 CURVE SMOOTH",
"424 311 OFFCURVE",
"469 279 OFFCURVE",
"469 208 CURVE SMOOTH",
"469 119 OFFCURVE",
"409 61 OFFCURVE",
"297 61 CURVE SMOOTH",
"267 61 OFFCURVE",
"233 65 OFFCURVE",
"217 70 CURVE",
"219 85 OFFCURVE",
"229 138 OFFCURVE",
"242 202 CURVE SMOOTH"
);
}
);
width = 669;
}
);
leftKerningGroup = H;
note = B;
rightKerningGroup = B;
unicode = 0042;
},
{
glyphname = C;
lastChange = "2020-06-19 12:07:49 +0000";
layers = (
{
anchors = (
{
name = bottom;
position = "{346, 0}";
},
{
name = top;
position = "{488, 671}";
}
);
background = {
anchors = (
{
name = bottom;
position = "{346, 0}";
},
{
name = top;
position = "{488, 671}";
}
);
paths = (
{
closed = 1;
nodes = (
"437 -10 OFFCURVE",
"491 2 OFFCURVE",
"574 37 CURVE",
"634 176 LINE",
"585 181 LINE",
"511 71 LINE",
"474 48 OFFCURVE",
"434 41 OFFCURVE",
"387 41 CURVE SMOOTH",
"249 41 OFFCURVE",
"167 126 OFFCURVE",
"167 270 CURVE SMOOTH",
"167 472 OFFCURVE",
"296 631 OFFCURVE",
"487 631 CURVE SMOOTH",
"549 631 OFFCURVE",
"605 618 OFFCURVE",
"627 598 CURVE",
"637 497 LINE",
"679 499 LINE",
"702 647 LINE",
"650 670 OFFCURVE",
"577 681 OFFCURVE",
"505 681 CURVE SMOOTH",
"267 681 OFFCURVE",
"77 493 OFFCURVE",
"77 261 CURVE SMOOTH",
"77 94 OFFCURVE",
"191 -10 OFFCURVE",
"376 -10 CURVE SMOOTH"
);
}
);
};
color = -1;
layerId = "D9A1C40A-2361-406B-8D3E-8FA7FBCB82BD";
paths = (
{
closed = 1;
nodes = (
"435 -10 OFFCURVE",
"501 3 OFFCURVE",
"574 37 CURVE",
"634 176 LINE",
"585 181 LINE",
"511 71 LINE",
"474 48 OFFCURVE",
"434 41 OFFCURVE",
"387 41 CURVE SMOOTH",
"249 41 OFFCURVE",
"167 126 OFFCURVE",
"167 270 CURVE SMOOTH",
"167 443 OFFCURVE",
"273 631 OFFCURVE",
"487 631 CURVE SMOOTH",
"549 631 OFFCURVE",
"605 618 OFFCURVE",
"627 598 CURVE",
"637 497 LINE",
"679 499 LINE",
"702 647 LINE",
"650 670 OFFCURVE",
"577 681 OFFCURVE",
"505 681 CURVE SMOOTH",
"243 681 OFFCURVE",
"77 471 OFFCURVE",
"77 261 CURVE SMOOTH",
"77 94 OFFCURVE",
"191 -10 OFFCURVE",
"376 -10 CURVE SMOOTH"
);
}
);
width = 681;
},
{
anchors = (
{
name = bottom;
position = "{352, 0}";
},
{
name = top;
position = "{494, 671}";
}
);
background = {
anchors = (
{
name = bottom;
position = "{353, 0}";
},
{
name = top;
position = "{495, 671}";
}
);
paths = (
{
closed = 1;
nodes = (
"469 -10 OFFCURVE",
"582 18 OFFCURVE",
"634 53 CURVE",
"691 211 LINE",
"599 221 LINE",
"551 122 LINE",
"531 102 OFFCURVE",
"475 81 OFFCURVE",
"440 81 CURVE SMOOTH",
"346 81 OFFCURVE",
"285 158 OFFCURVE",
"285 274 CURVE SMOOTH",
"285 395 OFFCURVE",
"349 594 OFFCURVE",
"519 594 CURVE SMOOTH",
"555 594 OFFCURVE",
"579 590 OFFCURVE",
"610 577 CURVE",
"618 451 LINE",
"702 454 LINE",
"743 640 LINE",
"697 665 OFFCURVE",
"617 681 OFFCURVE",
"533 681 CURVE SMOOTH",
"265 681 OFFCURVE",
"59 497 OFFCURVE",
"59 254 CURVE SMOOTH",
"59 87 OFFCURVE",
"183 -10 OFFCURVE",
"392 -10 CURVE SMOOTH"
);
}
);
};
color = -1;
layerId = "24976ABE-9171-461B-B338-52EF76BD92C7";
paths = (
{
closed = 1;
nodes = (
"467 -10 OFFCURVE",
"573 13 OFFCURVE",
"633 53 CURVE",
"690 211 LINE",
"598 221 LINE",
"546 114 LINE",
"520 94 OFFCURVE",
"474 81 OFFCURVE",
"437 81 CURVE SMOOTH",
"343 81 OFFCURVE",
"283 158 OFFCURVE",
"283 274 CURVE SMOOTH",
"283 426 OFFCURVE",
"363 594 OFFCURVE",
"522 594 CURVE SMOOTH",
"554 594 OFFCURVE",
"581 590 OFFCURVE",
"609 577 CURVE",
"617 451 LINE",
"701 454 LINE",
"742 640 LINE",
"696 665 OFFCURVE",
"616 681 OFFCURVE",
"531 681 CURVE SMOOTH",
"264 681 OFFCURVE",
"58 497 OFFCURVE",
"58 254 CURVE SMOOTH",
"58 87 OFFCURVE",
"182 -10 OFFCURVE",
"391 -10 CURVE SMOOTH"
);
}
);
width = 729;
},
{
anchors = (
{
name = bottom;
position = "{347, 0}";
},
{
name = top;
position = "{489, 671}";
}
);
background = {
anchors = (
{
name = bottom;
position = "{347, 0}";
},
{
name = top;
position = "{489, 671}";
}
);
paths = (
{
closed = 1;
nodes = (
"450 -10 OFFCURVE",
"535 10 OFFCURVE",
"602 45 CURVE",
"661 193 LINE",
"590 200 LINE",
"529 96 LINE",
"501 75 OFFCURVE",
"453 61 OFFCURVE",
"411 61 CURVE SMOOTH",
"295 61 OFFCURVE",
"223 142 OFFCURVE",
"223 272 CURVE SMOOTH",
"223 434 OFFCURVE",
"320 613 OFFCURVE",
"501 613 CURVE SMOOTH",
"550 613 OFFCURVE",
"590 603 OFFCURVE",
"616 587 CURVE",
"625 474 LINE",
"688 477 LINE",
"720 643 LINE",
"671 667 OFFCURVE",
"595 681 OFFCURVE",
"517 681 CURVE SMOOTH",
"264 681 OFFCURVE",
"65 495 OFFCURVE",
"65 257 CURVE SMOOTH",
"65 90 OFFCURVE",
"185 -10 OFFCURVE",
"382 -10 CURVE SMOOTH"
);
}
);
};
color = -1;
layerId = "925D3525-5003-4FA1-BE98-2BABE6F3DA5C";
paths = (
{
closed = 1;
nodes = (
"450 -10 OFFCURVE",
"535 8 OFFCURVE",
"602 45 CURVE",
"661 193 LINE",
"590 200 LINE",
"529 96 LINE",
"501 75 OFFCURVE",
"453 61 OFFCURVE",
"411 61 CURVE SMOOTH",
"295 61 OFFCURVE",
"223 142 OFFCURVE",
"223 272 CURVE SMOOTH",
"223 448 OFFCURVE",
"329 613 OFFCURVE",
"504 613 CURVE SMOOTH",
"550 613 OFFCURVE",
"590 603 OFFCURVE",
"616 587 CURVE",
"625 474 LINE",
"688 477 LINE",
"720 643 LINE",
"671 667 OFFCURVE",
"595 681 OFFCURVE",
"517 681 CURVE SMOOTH",
"264 681 OFFCURVE",
"65 495 OFFCURVE",
"65 257 CURVE SMOOTH",
"65 90 OFFCURVE",
"185 -10 OFFCURVE",
"382 -10 CURVE SMOOTH"
);
}
);
width = 702;
}
);
leftKerningGroup = O;
note = C;
rightKerningGroup = C;
unicode = 0043;
},
{
glyphname = D;
lastChange = "2020-06-19 12:07:49 +0000";
layers = (
{
anchors = (
{
name = bottom;
position = "{312, 0}";
},
{
name = center;
position = "{408, 336}";
},
{
name = stroke;
position = "{242, 336}";
},
{
name = top;
position = "{454, 671}";
}
);
background = {
anchors = (
{
name = bottom;
position = "{312, 0}";
},
{
name = center;
position = "{406, 336}";
},
{
name = stroke;
position = "{243, 336}";
},
{
name = top;
position = "{454, 671}";
}
);
paths = (
{
closed = 1;
nodes = (
"144 634 LINE",
"209 619 LINE",
"209 600 OFFCURVE",
"202 556 OFFCURVE",
"179 449 CURVE SMOOTH",
"128 212 LINE SMOOTH",
"112 134 OFFCURVE",
"98 74 OFFCURVE",
"92 51 CURVE",
"21 37 LINE",
"15 0 LINE",
"300 0 LINE SMOOTH",
"540 0 OFFCURVE",
"728 186 OFFCURVE",
"728 410 CURVE SMOOTH",
"728 582 OFFCURVE",
"602 671 OFFCURVE",
"391 671 CURVE SMOOTH",
"154 671 LINE"
);
},
{
closed = 1;
nodes = (
"328 622 OFFCURVE",
"355 625 OFFCURVE",
"383 625 CURVE SMOOTH",
"550 625 OFFCURVE",
"639 555 OFFCURVE",
"639 401 CURVE SMOOTH",
"639 191 OFFCURVE",
"512 51 OFFCURVE",
"313 51 CURVE SMOOTH",
"262 51 OFFCURVE",
"223 55 OFFCURVE",
"172 62 CURVE",
"176 101 OFFCURVE",
"182 140 OFFCURVE",
"198 212 CURVE SMOOTH",
"248 450 LINE SMOOTH",
"271 555 OFFCURVE",
"282 594 OFFCURVE",
"288 616 CURVE"
);
}
);
};
color = -1;
layerId = "D9A1C40A-2361-406B-8D3E-8FA7FBCB82BD";
paths = (
{
closed = 1;
nodes = (
"144 634 LINE",
"209 619 LINE",
"207 600 OFFCURVE",
"201 557 OFFCURVE",
"178 449 CURVE SMOOTH",
"128 213 LINE SMOOTH",
"112 135 OFFCURVE",
"98 74 OFFCURVE",
"91 51 CURVE",
"19 37 LINE",
"14 0 LINE",
"303 0 LINE SMOOTH",
"542 0 OFFCURVE",
"726 186 OFFCURVE",
"726 410 CURVE SMOOTH",
"726 582 OFFCURVE",
"602 671 OFFCURVE",
"393 671 CURVE SMOOTH",
"154 671 LINE"
);
},
{
closed = 1;
nodes = (
"327 623 OFFCURVE",
"354 625 OFFCURVE",
"385 625 CURVE SMOOTH",
"553 625 OFFCURVE",
"640 555 OFFCURVE",
"640 401 CURVE SMOOTH",
"640 191 OFFCURVE",
"511 51 OFFCURVE",
"315 51 CURVE SMOOTH",
"261 51 OFFCURVE",
"222 55 OFFCURVE",
"169 62 CURVE",
"175 102 OFFCURVE",
"181 139 OFFCURVE",
"197 213 CURVE SMOOTH",
"247 450 LINE SMOOTH",
"269 555 OFFCURVE",
"280 594 OFFCURVE",
"287 616 CURVE"
);
}
);
width = 767;
},
{
anchors = (
{
name = bottom;
position = "{347, 0}";
},
{
name = center;
position = "{441, 336}";
},
{
name = stroke;
position = "{277, 336}";
},
{
name = top;
position = "{489, 671}";
}
);
background = {
anchors = (
{
name = bottom;
position = "{349, 0}";
},
{
name = center;
position = "{442, 336}";
},
{
name = stroke;
position = "{278, 336}";
},
{
name = top;
position = "{490, 671}";
}
);
paths = (
{
closed = 1;
nodes = (
"114 606 LINE",
"186 586 LINE",
"183 560 OFFCURVE",
"171 498 OFFCURVE",
"153 409 CURVE SMOOTH",
"123 269 LINE SMOOTH",
"103 171 OFFCURVE",
"85 106 OFFCURVE",
"78 87 CURVE",
"-2 65 LINE",
"-14 0 LINE",
"349 0 LINE SMOOTH",
"603 0 OFFCURVE",
"805 193 OFFCURVE",
"805 417 CURVE SMOOTH",
"805 582 OFFCURVE",
"683 671 OFFCURVE",
"463 671 CURVE SMOOTH",
"133 671 LINE"
);
},
{
closed = 1;
nodes = (
"400 590 OFFCURVE",
"418 590 OFFCURVE",
"441 590 CURVE SMOOTH",
"534 590 OFFCURVE",
"597 522 OFFCURVE",
"597 415 CURVE SMOOTH",
"597 211 OFFCURVE",
"510 87 OFFCURVE",
"369 87 CURVE SMOOTH",
"343 87 OFFCURVE",
"309 90 OFFCURVE",
"281 97 CURVE",
"283 104 OFFCURVE",
"303 214 OFFCURVE",
"314 269 CURVE SMOOTH",
"344 406 LINE SMOOTH",
"362 490 OFFCURVE",
"382 566 OFFCURVE",
"384 587 CURVE"
);
}
);
};
color = -1;
layerId = "24976ABE-9171-461B-B338-52EF76BD92C7";
paths = (
{
closed = 1;
nodes = (
"115 606 LINE",
"185 586 LINE",
"182 560 OFFCURVE",
"170 498 OFFCURVE",
"152 409 CURVE SMOOTH",
"122 269 LINE SMOOTH",
"102 171 OFFCURVE",
"83 106 OFFCURVE",
"77 87 CURVE",
"-2 65 LINE",
"-13 0 LINE",
"347 0 LINE SMOOTH",
"602 0 OFFCURVE",
"803 193 OFFCURVE",
"803 417 CURVE SMOOTH",
"803 582 OFFCURVE",
"682 671 OFFCURVE",
"462 671 CURVE SMOOTH",
"133 671 LINE"
);
},
{
closed = 1;
nodes = (
"399 589 OFFCURVE",
"417 590 OFFCURVE",
"440 590 CURVE SMOOTH",
"533 590 OFFCURVE",
"595 531 OFFCURVE",
"595 408 CURVE SMOOTH",
"595 211 OFFCURVE",
"509 87 OFFCURVE",
"368 87 CURVE SMOOTH",
"342 87 OFFCURVE",
"307 90 OFFCURVE",
"280 97 CURVE",
"283 115 OFFCURVE",
"302 214 OFFCURVE",
"313 269 CURVE SMOOTH",
"343 406 LINE SMOOTH",
"361 490 OFFCURVE",
"378 566 OFFCURVE",
"383 586 CURVE"
);
}
);
width = 831;
},
{
anchors = (
{
name = bottom;
position = "{327, 0}";
},
{
name = center;
position = "{421, 336}";
},
{
name = stroke;
position = "{257, 336}";
},
{
name = top;
position = "{469, 671}";
}
);
background = {
anchors = (
{
name = bottom;
position = "{327, 0}";
},
{
name = center;
position = "{421, 336}";
},
{
name = stroke;
position = "{257, 336}";
},
{
name = top;
position = "{469, 671}";
}
);
paths = (
{
closed = 1;
nodes = (
"126 620 LINE",
"194 603 LINE",
"192 580 OFFCURVE",
"183 527 OFFCURVE",
"163 429 CURVE SMOOTH",
"123 240 LINE SMOOTH",
"104 153 OFFCURVE",
"88 90 OFFCURVE",
"81 69 CURVE",
"5 51 LINE",
"-3 0 LINE",
"321 0 LINE SMOOTH",
"568 0 OFFCURVE",
"763 189 OFFCURVE",
"763 413 CURVE SMOOTH",
"763 582 OFFCURVE",
"640 671 OFFCURVE",
"423 671 CURVE SMOOTH",
"140 671 LINE"
);
},
{
closed = 1;
nodes = (
"361 606 OFFCURVE",
"383 608 OFFCURVE",
"408 608 CURVE SMOOTH",
"539 608 OFFCURVE",
"614 539 OFFCURVE",
"614 408 CURVE SMOOTH",
"614 201 OFFCURVE",
"507 69 OFFCURVE",
"338 69 CURVE SMOOTH",
"299 69 OFFCURVE",
"263 72 OFFCURVE",
"223 79 CURVE",
"226 102 OFFCURVE",
"239 177 OFFCURVE",
"253 240 CURVE SMOOTH",
"293 428 LINE SMOOTH",
"313 523 OFFCURVE",
"328 580 OFFCURVE",
"333 602 CURVE"
);
}
);
};
color = -1;
layerId = "925D3525-5003-4FA1-BE98-2BABE6F3DA5C";
paths = (
{
closed = 1;
nodes = (
"127 619 LINE",
"194 602 LINE",
"192 581 OFFCURVE",
"183 527 OFFCURVE",
"162 430 CURVE SMOOTH",
"122 240 LINE SMOOTH",
"104 153 OFFCURVE",
"88 90 OFFCURVE",
"81 69 CURVE",
"6 51 LINE",
"-2 0 LINE",
"321 0 LINE SMOOTH",
"568 0 OFFCURVE",
"763 190 OFFCURVE",
"763 414 CURVE SMOOTH",
"763 582 OFFCURVE",
"640 671 OFFCURVE",
"424 671 CURVE SMOOTH",
"142 671 LINE"
);
},
{
closed = 1;
nodes = (
"361 606 OFFCURVE",
"383 608 OFFCURVE",
"408 608 CURVE SMOOTH",
"538 608 OFFCURVE",
"614 538 OFFCURVE",
"614 408 CURVE SMOOTH",
"614 201 OFFCURVE",
"507 69 OFFCURVE",
"338 69 CURVE SMOOTH",
"299 69 OFFCURVE",
"263 72 OFFCURVE",
"223 79 CURVE",
"226 103 OFFCURVE",
"239 177 OFFCURVE",
"253 240 CURVE SMOOTH",
"293 427 LINE SMOOTH",
"313 523 OFFCURVE",
"328 579 OFFCURVE",
"333 601 CURVE"
);
}
);
width = 797;
}
);
leftKerningGroup = H;
note = D;
rightKerningGroup = O;
unicode = 0044;
},
{
glyphname = E;
lastChange = "2020-06-19 12:07:49 +0000";
layers = (
{
anchors = (
{
name = bottom;
position = "{264, 0}";
},
{
name = ogonek;
position = "{490, 0}";
},
{
name = top;
position = "{406, 671}";
},
{
name = topleft;
position = "{120, 671}";
}
);
background = {
anchors = (
{
name = bottom;
position = "{264, 0}";
},
{
name = ogonek;
position = "{490, 0}";
},
{
name = top;
position = "{406, 671}";
},
{
name = topleft;
position = "{120, 671}";
}
);
paths = (
{
closed = 1;
nodes = (
"564 153 LINE",
"515 162 LINE",
"441 56 LINE",
"432 53 OFFCURVE",
"405 51 OFFCURVE",
"360 51 CURVE SMOOTH",
"226 51 LINE SMOOTH",
"204 51 OFFCURVE",
"184 53 OFFCURVE",
"165 54 CURVE",
"167 65 OFFCURVE",
"190 181 OFFCURVE",
"198 224 CURVE SMOOTH",
"244 438 LINE SMOOTH",
"255 492 OFFCURVE",
"283 612 OFFCURVE",
"286 618 CURVE",
"308 621 OFFCURVE",
"325 622 OFFCURVE",
"353 622 CURVE SMOOTH",
"502 622 LINE SMOOTH",
"519 622 OFFCURVE",
"534 621 OFFCURVE",
"542 619 CURVE",
"557 525 LINE",
"603 530 LINE",
"616 675 LINE",
"569 670 OFFCURVE",
"555 671 OFFCURVE",
"530 671 CURVE SMOOTH",
"153 671 LINE",
"143 634 LINE",
"208 619 LINE",
"207 600 OFFCURVE",
"200 556 OFFCURVE",
"178 449 CURVE SMOOTH",
"127 212 LINE SMOOTH",
"104 108 OFFCURVE",
"97 74 OFFCURVE",
"90 51 CURVE",
"19 37 LINE",
"14 0 LINE",
"411 0 LINE SMOOTH",
"432 0 OFFCURVE",
"446 0 OFFCURVE",
"493 -5 CURVE"
);
},
{
closed = 1;
nodes = (
"461 237 LINE",
"506 454 LINE",
"465 454 LINE",
"432 374 LINE",
"422 371 OFFCURVE",
"407 370 OFFCURVE",
"384 370 CURVE SMOOTH",
"287 370 LINE SMOOTH",
"270 370 OFFCURVE",
"247 371 OFFCURVE",
"218 372 CURVE",
"206 319 LINE",
"237 320 OFFCURVE",
"260 321 OFFCURVE",
"278 321 CURVE SMOOTH",
"376 321 LINE SMOOTH",
"399 321 OFFCURVE",
"413 320 OFFCURVE",
"422 317 CURVE",
"419 237 LINE"
);
}
);
};
color = -1;
layerId = "D9A1C40A-2361-406B-8D3E-8FA7FBCB82BD";
paths = (
{
closed = 1;
nodes = (
"562 153 LINE",
"514 162 LINE",
"440 56 LINE",
"431 53 OFFCURVE",
"405 51 OFFCURVE",
"359 51 CURVE SMOOTH",
"224 51 LINE SMOOTH",
"202 51 OFFCURVE",
"183 53 OFFCURVE",
"166 55 CURVE",
"168 77 OFFCURVE",
"189 181 OFFCURVE",
"198 224 CURVE SMOOTH",
"243 439 LINE SMOOTH",
"255 493 OFFCURVE",
"282 611 OFFCURVE",
"285 618 CURVE",
"306 621 OFFCURVE",
"323 622 OFFCURVE",
"352 622 CURVE SMOOTH",
"502 622 LINE SMOOTH",
"518 622 OFFCURVE",
"534 621 OFFCURVE",
"541 619 CURVE",
"555 525 LINE",
"601 530 LINE",
"615 675 LINE",
"579 672 OFFCURVE",
"553 671 OFFCURVE",
"529 671 CURVE SMOOTH",
"153 671 LINE",
"143 634 LINE",
"208 619 LINE",
"207 600 OFFCURVE",
"200 557 OFFCURVE",
"177 449 CURVE SMOOTH",
"127 213 LINE SMOOTH",
"104 107 OFFCURVE",
"97 74 OFFCURVE",
"90 51 CURVE",
"18 37 LINE",
"13 0 LINE",
"410 0 LINE SMOOTH",
"431 0 OFFCURVE",
"456 -1 OFFCURVE",
"493 -6 CURVE"
);
},
{
closed = 1;
nodes = (
"459 237 LINE",
"505 455 LINE",
"464 455 LINE",
"431 374 LINE",
"421 371 OFFCURVE",
"406 370 OFFCURVE",
"383 370 CURVE SMOOTH",
"286 370 LINE SMOOTH",
"269 370 OFFCURVE",
"246 370 OFFCURVE",
"217 371 CURVE",
"205 318 LINE",
"235 319 OFFCURVE",
"259 320 OFFCURVE",
"277 320 CURVE SMOOTH",
"375 320 LINE SMOOTH",
"398 320 OFFCURVE",
"413 318 OFFCURVE",
"421 315 CURVE",
"418 237 LINE"
);
}
);
width = 623;
},
{
anchors = (
{
name = bottom;
position = "{293, 0}";
},
{
name = ogonek;
position = "{569, 0}";
},
{
name = top;
position = "{434, 671}";
},
{
name = topleft;
position = "{127, 671}";
}
);
background = {
anchors = (
{
name = bottom;
position = "{294, 0}";
},
{
name = ogonek;
position = "{570, 0}";
},
{
name = top;
position = "{435, 671}";
},
{
name = topleft;
position = "{126, 671}";
}
);
paths = (
{
closed = 1;
nodes = (
"663 190 LINE",
"586 203 LINE",
"503 86 LINE",
"479 81 OFFCURVE",
"483 81 OFFCURVE",
"419 81 CURVE SMOOTH",
"390 81 LINE SMOOTH",
"333 81 OFFCURVE",
"306 82 OFFCURVE",
"275 87 CURVE",
"278 111 OFFCURVE",
"289 174 OFFCURVE",
"302 231 CURVE SMOOTH",
"347 446 LINE SMOOTH",
"359 499 OFFCURVE",
"375 570 OFFCURVE",
"382 593 CURVE",
"398 595 OFFCURVE",
"431 597 OFFCURVE",
"461 597 CURVE SMOOTH",
"520 597 LINE SMOOTH",
"538 597 OFFCURVE",
"552 595 OFFCURVE",
"576 591 CURVE",
"592 489 LINE",
"671 497 LINE",
"680 678 LINE",
"642 678 OFFCURVE",
"523 671 OFFCURVE",
"466 671 CURVE SMOOTH",
"130 671 LINE",
"112 606 LINE",
"184 586 LINE",
"181 560 OFFCURVE",
"169 498 OFFCURVE",
"151 409 CURVE SMOOTH",
"121 269 LINE SMOOTH",
"103 182 OFFCURVE",
"82 106 OFFCURVE",
"75 87 CURVE",
"-5 65 LINE",
"-17 0 LINE",
"384 0 LINE SMOOTH",
"442 0 OFFCURVE",
"536 -7 OFFCURVE",
"571 -8 CURVE"
);
},
{
closed = 1;
nodes = (
"531 224 LINE",
"582 462 LINE",
"507 462 LINE",
"482 387 LINE",
"472 390 OFFCURVE",
"442 386 OFFCURVE",
"410 386 CURVE SMOOTH",
"367 386 LINE SMOOTH",
"336 386 OFFCURVE",
"311 390 OFFCURVE",
"305 391 CURVE",
"286 298 LINE",
"291 299 OFFCURVE",
"318 302 OFFCURVE",
"349 302 CURVE SMOOTH",
"391 302 LINE SMOOTH",
"424 302 OFFCURVE",
"451 299 OFFCURVE",
"463 301 CURVE",
"457 224 LINE"
);
}
);
};
color = -1;
layerId = "24976ABE-9171-461B-B338-52EF76BD92C7";
paths = (
{
closed = 1;
nodes = (
"662 190 LINE",
"585 203 LINE",
"502 86 LINE",
"478 82 OFFCURVE",
"459 81 OFFCURVE",
"418 81 CURVE SMOOTH",
"389 81 LINE SMOOTH",
"331 81 OFFCURVE",
"305 82 OFFCURVE",
"274 87 CURVE",
"277 111 OFFCURVE",
"288 174 OFFCURVE",
"301 231 CURVE SMOOTH",
"346 446 LINE SMOOTH",
"358 499 OFFCURVE",
"374 570 OFFCURVE",
"381 593 CURVE",
"397 595 OFFCURVE",
"430 597 OFFCURVE",
"459 597 CURVE SMOOTH",
"519 597 LINE SMOOTH",
"537 597 OFFCURVE",
"551 595 OFFCURVE",
"575 591 CURVE",
"591 489 LINE",
"670 497 LINE",
"679 678 LINE",
"630 674 OFFCURVE",
"522 671 OFFCURVE",
"465 671 CURVE SMOOTH",
"130 671 LINE",
"113 606 LINE",
"183 586 LINE",
"179 560 OFFCURVE",
"168 498 OFFCURVE",
"150 409 CURVE SMOOTH",
"120 269 LINE SMOOTH",
"102 182 OFFCURVE",
"81 106 OFFCURVE",
"74 87 CURVE",
"-5 65 LINE",
"-15 0 LINE",
"383 0 LINE SMOOTH",
"441 0 OFFCURVE",
"523 -3 OFFCURVE",
"570 -8 CURVE"
);
},
{
closed = 1;
nodes = (
"530 224 LINE",
"581 462 LINE",
"506 462 LINE",
"481 389 LINE",
"471 387 OFFCURVE",
"441 386 OFFCURVE",
"409 386 CURVE SMOOTH",
"366 386 LINE SMOOTH",
"335 386 OFFCURVE",
"310 390 OFFCURVE",
"304 391 CURVE",
"285 298 LINE",
"290 299 OFFCURVE",
"317 302 OFFCURVE",
"347 302 CURVE SMOOTH",
"390 302 LINE SMOOTH",
"423 302 OFFCURVE",
"448 302 OFFCURVE",
"462 301 CURVE",
"456 224 LINE"
);
}
);
width = 689;
},
{
anchors = (
{
name = bottom;
position = "{277, 0}";
},
{
name = ogonek;
position = "{528, 0}";
},
{
name = top;
position = "{418, 671}";
},
{
name = topleft;
position = "{120, 671}";
}
);
background = {
anchors = (
{
name = bottom;
position = "{276, 0}";
},
{
name = ogonek;
position = "{528, 0}";
},
{
name = top;
position = "{418, 671}";
},
{
name = topleft;
position = "{120, 671}";
}
);
paths = (
{
closed = 1;
nodes = (
"610 171 LINE",
"548 183 LINE",
"469 71 LINE",
"453 67 OFFCURVE",
"441 67 OFFCURVE",
"387 67 CURVE SMOOTH",
"305 67 LINE SMOOTH",
"266 67 OFFCURVE",
"242 68 OFFCURVE",
"217 71 CURVE",
"219 88 OFFCURVE",
"237 178 OFFCURVE",
"247 227 CURVE SMOOTH",
"293 442 LINE SMOOTH",
"304 496 OFFCURVE",
"326 591 OFFCURVE",
"331 606 CURVE",
"350 608 OFFCURVE",
"375 609 OFFCURVE",
"404 609 CURVE SMOOTH",
"508 609 LINE SMOOTH",
"526 609 OFFCURVE",
"540 608 OFFCURVE",
"556 605 CURVE",
"572 507 LINE",
"634 513 LINE",
"646 676 LINE",
"602 674 OFFCURVE",
"536 671 OFFCURVE",
"495 671 CURVE SMOOTH",
"139 671 LINE",
"125 620 LINE",
"193 603 LINE",
"191 580 OFFCURVE",
"182 527 OFFCURVE",
"161 429 CURVE SMOOTH",
"121 240 LINE SMOOTH",
"101 145 OFFCURVE",
"87 90 OFFCURVE",
"80 69 CURVE",
"4 51 LINE",
"-4 0 LINE",
"395 0 LINE SMOOTH",
"434 0 OFFCURVE",
"488 -3 OFFCURVE",
"529 -6 CURVE"
);
},
{
closed = 1;
nodes = (
"493 230 LINE",
"541 458 LINE",
"483 458 LINE",
"454 381 LINE",
"444 380 OFFCURVE",
"422 378 OFFCURVE",
"394 378 CURVE SMOOTH",
"324 378 LINE SMOOTH",
"300 378 OFFCURVE",
"276 380 OFFCURVE",
"259 381 CURVE",
"243 309 LINE",
"261 310 OFFCURVE",
"286 312 OFFCURVE",
"310 312 CURVE SMOOTH",
"381 312 LINE SMOOTH",
"408 312 OFFCURVE",
"429 310 OFFCURVE",
"439 309 CURVE",
"435 230 LINE"
);
}
);
};
color = -1;
layerId = "925D3525-5003-4FA1-BE98-2BABE6F3DA5C";
paths = (
{
closed = 1;
nodes = (
"610 171 LINE",
"549 183 LINE",
"469 71 LINE",
"453 67 OFFCURVE",
"441 66 OFFCURVE",
"387 66 CURVE SMOOTH",
"305 66 LINE SMOOTH",
"265 66 OFFCURVE",
"242 67 OFFCURVE",
"217 71 CURVE",
"219 88 OFFCURVE",
"237 177 OFFCURVE",
"247 227 CURVE SMOOTH",
"293 442 LINE SMOOTH",
"304 496 OFFCURVE",
"326 591 OFFCURVE",
"331 606 CURVE",
"350 608 OFFCURVE",
"375 609 OFFCURVE",
"403 609 CURVE SMOOTH",
"509 609 LINE SMOOTH",
"526 609 OFFCURVE",
"541 608 OFFCURVE",
"557 605 CURVE",
"571 507 LINE",
"634 513 LINE",
"646 677 LINE",
"602 674 OFFCURVE",
"536 671 OFFCURVE",
"495 671 CURVE SMOOTH",
"141 671 LINE",
"126 619 LINE",
"193 602 LINE",
"191 581 OFFCURVE",
"182 527 OFFCURVE",
"161 430 CURVE SMOOTH",
"121 240 LINE SMOOTH",
"101 145 OFFCURVE",
"87 90 OFFCURVE",
"80 69 CURVE",
"5 51 LINE",
"-2 0 LINE",
"394 0 LINE SMOOTH",
"434 0 OFFCURVE",
"488 -3 OFFCURVE",
"529 -7 CURVE"
);
},
{
closed = 1;
nodes = (
"494 231 LINE",
"542 458 LINE",
"483 458 LINE",
"455 381 LINE",
"445 379 OFFCURVE",
"422 378 OFFCURVE",
"394 378 CURVE SMOOTH",
"325 378 LINE SMOOTH",
"299 378 OFFCURVE",
"277 379 OFFCURVE",
"258 381 CURVE",
"243 309 LINE",
"262 310 OFFCURVE",
"286 312 OFFCURVE",
"311 312 CURVE SMOOTH",
"381 312 LINE SMOOTH",
"408 312 OFFCURVE",
"430 310 OFFCURVE",
"439 309 CURVE",
"435 231 LINE"
);
}
);
width = 654;
}
);
leftKerningGroup = H;
note = E;
rightKerningGroup = E;
unicode = 0045;
},
{
glyphname = Eogonek;
lastChange = "2020-06-19 12:07:49 +0000";
layers = (
{
anchors = (
{
name = top;
position = "{406, 671}";
},
{
name = topleft;
position = "{120, 671}";
}
);
background = {
anchors = (
{
name = top;
position = "{1091, 671}";
},
{
name = topleft;
position = "{806, 671}";
}
);
paths = (
{
closed = 1;
nodes = (
"1146 238 LINE",
"1192 455 LINE",
"1151 455 LINE",
"1118 374 LINE",
"1107 370 OFFCURVE",
"1093 370 OFFCURVE",
"1070 370 CURVE SMOOTH",
"973 370 LINE SMOOTH",
"955 370 OFFCURVE",
"933 370 OFFCURVE",
"904 371 CURVE",
"891 319 LINE",
"922 320 OFFCURVE",
"946 321 OFFCURVE",
"963 321 CURVE SMOOTH",
"1062 321 LINE SMOOTH",
"1085 321 OFFCURVE",
"1099 320 OFFCURVE",
"1107 317 CURVE",
"1105 238 LINE"
);
},
{
closed = 1;
nodes = (
"942 493 OFFCURVE",
"969 611 OFFCURVE",
"971 618 CURVE",
"993 621 OFFCURVE",
"1010 622 OFFCURVE",
"1039 622 CURVE SMOOTH",
"1189 622 LINE SMOOTH",
"1205 622 OFFCURVE",
"1221 621 OFFCURVE",
"1227 619 CURVE",
"1242 525 LINE",
"1288 530 LINE",
"1302 675 LINE",
"1255 671 OFFCURVE",
"1240 671 OFFCURVE",
"1216 671 CURVE SMOOTH",
"839 671 LINE",
"829 634 LINE",
"894 619 LINE",
"894 600 OFFCURVE",
"887 557 OFFCURVE",
"864 449 CURVE SMOOTH",
"813 213 LINE SMOOTH",
"790 107 OFFCURVE",
"783 74 OFFCURVE",
"776 51 CURVE",
"705 37 LINE",
"699 0 LINE",
"1114 0 LINE",
"1030 -43 OFFCURVE",
"962 -104 OFFCURVE",
"962 -174 CURVE SMOOTH",
"962 -217 OFFCURVE",
"992 -255 OFFCURVE",
"1066 -255 CURVE SMOOTH",
"1109 -255 OFFCURVE",
"1155 -234 OFFCURVE",
"1192 -198 CURVE",
"1175 -174 LINE",
"1145 -200 OFFCURVE",
"1117 -214 OFFCURVE",
"1088 -214 CURVE SMOOTH",
"1050 -214 OFFCURVE",
"1031 -194 OFFCURVE",
"1031 -161 CURVE SMOOTH",
"1031 -97 OFFCURVE",
"1106 -33 OFFCURVE",
"1181 0 CURVE",
"1249 153 LINE",
"1201 162 LINE",
"1127 56 LINE",
"1118 53 OFFCURVE",
"1091 51 OFFCURVE",
"1046 51 CURVE SMOOTH",
"911 51 LINE SMOOTH",
"889 51 OFFCURVE",
"870 53 OFFCURVE",
"850 55 CURVE",
"853 65 OFFCURVE",
"875 181 OFFCURVE",
"885 224 CURVE SMOOTH",
"930 439 LINE SMOOTH"
);
},
{
closed = 1;
nodes = (
"563 153 LINE",
"515 162 LINE",
"441 56 LINE",
"432 53 OFFCURVE",
"406 51 OFFCURVE",
"360 51 CURVE SMOOTH",
"225 51 LINE SMOOTH",
"203 51 OFFCURVE",
"184 53 OFFCURVE",
"167 55 CURVE",
"169 77 OFFCURVE",
"190 181 OFFCURVE",
"199 224 CURVE SMOOTH",
"245 439 LINE SMOOTH",
"256 493 OFFCURVE",
"283 611 OFFCURVE",
"286 618 CURVE",
"307 621 OFFCURVE",
"325 622 OFFCURVE",
"353 622 CURVE SMOOTH",
"503 622 LINE SMOOTH",
"519 622 OFFCURVE",
"535 621 OFFCURVE",
"542 619 CURVE",
"557 525 LINE",
"602 530 LINE",
"616 675 LINE",
"581 672 OFFCURVE",
"554 671 OFFCURVE",
"530 671 CURVE SMOOTH",
"153 671 LINE",
"143 634 LINE",
"208 619 LINE",
"207 600 OFFCURVE",
"200 557 OFFCURVE",
"177 449 CURVE SMOOTH",
"127 213 LINE SMOOTH",
"104 107 OFFCURVE",
"97 74 OFFCURVE",
"90 51 CURVE",
"18 37 LINE",
"13 0 LINE",
"411 0 LINE SMOOTH",
"432 0 OFFCURVE",
"457 -1 OFFCURVE",
"494 -6 CURVE"
);
},
{
closed = 1;
nodes = (
"461 237 LINE",
"506 455 LINE",
"465 455 LINE",
"432 374 LINE",
"422 371 OFFCURVE",
"407 370 OFFCURVE",
"384 370 CURVE SMOOTH",
"287 370 LINE SMOOTH",
"270 370 OFFCURVE",
"247 370 OFFCURVE",
"218 371 CURVE",
"206 318 LINE",
"237 319 OFFCURVE",
"261 320 OFFCURVE",
"278 320 CURVE SMOOTH",
"376 320 LINE SMOOTH",
"399 320 OFFCURVE",
"414 318 OFFCURVE",
"422 315 CURVE",
"419 237 LINE"
);
}
);
};
color = -1;
layerId = "D9A1C40A-2361-406B-8D3E-8FA7FBCB82BD";
paths = (
{
closed = 1;
nodes = (
"459 237 LINE",
"505 455 LINE",
"464 455 LINE",
"431 374 LINE",
"421 371 OFFCURVE",
"406 370 OFFCURVE",
"383 370 CURVE SMOOTH",
"286 370 LINE SMOOTH",
"269 370 OFFCURVE",
"246 370 OFFCURVE",
"217 371 CURVE",
"205 318 LINE",
"235 319 OFFCURVE",
"259 320 OFFCURVE",
"277 320 CURVE SMOOTH",
"375 320 LINE SMOOTH",
"398 320 OFFCURVE",
"413 318 OFFCURVE",
"421 315 CURVE",
"418 237 LINE"
);
},
{
closed = 1;
nodes = (
"255 493 OFFCURVE",
"282 611 OFFCURVE",
"285 618 CURVE",
"306 621 OFFCURVE",
"323 622 OFFCURVE",
"352 622 CURVE SMOOTH",
"502 622 LINE SMOOTH",
"518 622 OFFCURVE",
"534 621 OFFCURVE",
"541 619 CURVE",
"555 525 LINE",
"601 530 LINE",
"615 675 LINE",
"568 671 OFFCURVE",
"553 671 OFFCURVE",
"529 671 CURVE SMOOTH",
"153 671 LINE",
"143 634 LINE",
"208 619 LINE",
"207 600 OFFCURVE",
"200 557 OFFCURVE",
"177 449 CURVE SMOOTH",
"127 213 LINE SMOOTH",
"104 107 OFFCURVE",
"97 74 OFFCURVE",
"90 51 CURVE",
"18 37 LINE",
"13 0 LINE",
"427 0 LINE",
"343 -43 OFFCURVE",
"275 -104 OFFCURVE",
"275 -174 CURVE SMOOTH",
"275 -217 OFFCURVE",
"305 -255 OFFCURVE",
"379 -255 CURVE SMOOTH",
"422 -255 OFFCURVE",
"469 -234 OFFCURVE",
"505 -198 CURVE",
"488 -174 LINE",
"458 -200 OFFCURVE",
"430 -214 OFFCURVE",
"401 -214 CURVE SMOOTH",
"363 -214 OFFCURVE",
"344 -194 OFFCURVE",
"344 -161 CURVE SMOOTH",
"344 -97 OFFCURVE",
"419 -33 OFFCURVE",
"495 0 CURVE",
"562 153 LINE",
"514 162 LINE",
"440 56 LINE",
"431 53 OFFCURVE",
"405 51 OFFCURVE",
"359 51 CURVE SMOOTH",
"224 51 LINE SMOOTH",
"202 51 OFFCURVE",
"185 53 OFFCURVE",
"166 55 CURVE",
"168 77 OFFCURVE",
"189 179 OFFCURVE",
"198 223 CURVE SMOOTH",
"243 439 LINE SMOOTH"
);
}
);
width = 623;
},
{
anchors = (
{
name = top;
position = "{434, 671}";
},
{
name = topleft;
position = "{127, 671}";
}
);
background = {
anchors = (
{
name = top;
position = "{437, 671}";
},
{
name = topleft;
position = "{127, 671}";
}
);
paths = (
{
closed = 1;
nodes = (
"533 224 LINE",
"583 462 LINE",
"509 462 LINE",
"483 387 LINE",
"473 390 OFFCURVE",
"443 386 OFFCURVE",
"411 386 CURVE SMOOTH",
"368 386 LINE SMOOTH",
"337 386 OFFCURVE",
"312 390 OFFCURVE",
"306 391 CURVE",
"287 298 LINE",
"293 299 OFFCURVE",
"319 302 OFFCURVE",
"350 302 CURVE SMOOTH",
"392 302 LINE SMOOTH",
"425 302 OFFCURVE",
"453 299 OFFCURVE",
"464 301 CURVE",
"458 224 LINE"
);
},
{
closed = 1;
nodes = (
"360 499 OFFCURVE",
"376 570 OFFCURVE",
"383 593 CURVE",
"399 595 OFFCURVE",
"432 597 OFFCURVE",
"462 597 CURVE SMOOTH",
"521 597 LINE SMOOTH",
"539 597 OFFCURVE",
"553 595 OFFCURVE",
"577 591 CURVE",
"593 489 LINE",
"672 497 LINE",
"681 678 LINE",
"643 678 OFFCURVE",
"525 671 OFFCURVE",
"467 671 CURVE SMOOTH",
"131 671 LINE",
"113 606 LINE",
"185 586 LINE",
"182 560 OFFCURVE",
"170 498 OFFCURVE",
"152 409 CURVE SMOOTH",
"122 269 LINE SMOOTH",
"104 182 OFFCURVE",
"83 106 OFFCURVE",
"77 87 CURVE",
"-3 65 LINE",
"-16 0 LINE",
"477 0 LINE",
"370 -46 OFFCURVE",
"319 -97 OFFCURVE",
"319 -150 CURVE SMOOTH",
"319 -215 OFFCURVE",
"387 -255 OFFCURVE",
"462 -255 CURVE SMOOTH",
"520 -255 OFFCURVE",
"567 -234 OFFCURVE",
"603 -198 CURVE",
"581 -145 LINE",
"552 -171 OFFCURVE",
"522 -184 OFFCURVE",
"498 -184 CURVE SMOOTH",
"473 -184 OFFCURVE",
"449 -169 OFFCURVE",
"449 -136 CURVE SMOOTH",
"449 -97 OFFCURVE",
"481 -54 OFFCURVE",
"576 0 CURVE",
"664 190 LINE",
"587 203 LINE",
"504 86 LINE",
"480 81 OFFCURVE",
"485 81 OFFCURVE",
"421 81 CURVE SMOOTH",
"391 81 LINE SMOOTH",
"334 81 OFFCURVE",
"307 82 OFFCURVE",
"277 87 CURVE",
"279 111 OFFCURVE",
"290 174 OFFCURVE",
"303 231 CURVE SMOOTH",
"349 446 LINE SMOOTH"
);
}
);
};
color = -1;
layerId = "24976ABE-9171-461B-B338-52EF76BD92C7";
paths = (
{
closed = 1;
nodes = (
"530 224 LINE",
"581 462 LINE",
"506 462 LINE",
"481 389 LINE",
"471 387 OFFCURVE",
"441 386 OFFCURVE",
"409 386 CURVE SMOOTH",
"366 386 LINE SMOOTH",
"335 386 OFFCURVE",
"310 390 OFFCURVE",
"304 391 CURVE",
"285 298 LINE",
"290 299 OFFCURVE",
"317 302 OFFCURVE",
"347 302 CURVE SMOOTH",
"390 302 LINE SMOOTH",
"423 302 OFFCURVE",
"448 302 OFFCURVE",
"462 301 CURVE",
"456 224 LINE"
);
},
{
closed = 1;
nodes = (
"358 499 OFFCURVE",
"374 570 OFFCURVE",
"381 593 CURVE",
"397 595 OFFCURVE",
"430 597 OFFCURVE",
"459 597 CURVE SMOOTH",
"519 597 LINE SMOOTH",
"537 597 OFFCURVE",
"551 595 OFFCURVE",
"575 591 CURVE",
"591 489 LINE",
"670 497 LINE",
"679 678 LINE",
"630 674 OFFCURVE",
"522 671 OFFCURVE",
"465 671 CURVE SMOOTH",
"130 671 LINE",
"113 606 LINE",
"183 586 LINE",
"179 560 OFFCURVE",
"168 498 OFFCURVE",
"150 409 CURVE SMOOTH",
"120 269 LINE SMOOTH",
"102 182 OFFCURVE",
"81 106 OFFCURVE",
"74 87 CURVE",
"-5 65 LINE",
"-15 0 LINE",
"475 0 LINE",
"369 -46 OFFCURVE",
"318 -97 OFFCURVE",
"318 -150 CURVE SMOOTH",
"318 -215 OFFCURVE",
"386 -255 OFFCURVE",
"461 -255 CURVE SMOOTH",
"519 -255 OFFCURVE",
"566 -234 OFFCURVE",
"602 -198 CURVE",
"579 -145 LINE",
"551 -171 OFFCURVE",
"521 -184 OFFCURVE",
"497 -184 CURVE SMOOTH",
"472 -184 OFFCURVE",
"448 -169 OFFCURVE",
"448 -136 CURVE SMOOTH",
"448 -97 OFFCURVE",
"480 -54 OFFCURVE",
"575 0 CURVE",
"662 190 LINE",
"585 203 LINE",
"502 86 LINE",
"478 82 OFFCURVE",
"459 81 OFFCURVE",
"418 81 CURVE SMOOTH",
"389 81 LINE SMOOTH",
"331 81 OFFCURVE",
"305 82 OFFCURVE",
"274 87 CURVE",
"277 111 OFFCURVE",
"288 174 OFFCURVE",
"301 231 CURVE SMOOTH",
"346 446 LINE SMOOTH"
);
}
);
width = 689;
},
{
anchors = (
{
name = top;
position = "{418, 671}";
},
{
name = topleft;
position = "{120, 671}";
}
);
background = {
anchors = (
{
name = top;
position = "{418, 671}";
},
{
name = topleft;
position = "{120, 671}";
}
);
paths = (
{
closed = 1;
nodes = (
"494 231 LINE",
"542 458 LINE",
"483 458 LINE",
"455 381 LINE",
"445 379 OFFCURVE",
"422 378 OFFCURVE",
"394 378 CURVE SMOOTH",
"325 378 LINE SMOOTH",
"299 378 OFFCURVE",
"277 379 OFFCURVE",
"258 381 CURVE",
"243 309 LINE",
"262 310 OFFCURVE",
"286 312 OFFCURVE",
"311 312 CURVE SMOOTH",
"381 312 LINE SMOOTH",
"408 312 OFFCURVE",
"430 310 OFFCURVE",
"439 309 CURVE",
"435 231 LINE"
);
},
{
closed = 1;
nodes = (
"304 496 OFFCURVE",
"326 591 OFFCURVE",
"331 606 CURVE",
"350 608 OFFCURVE",
"375 609 OFFCURVE",
"403 609 CURVE SMOOTH",
"509 609 LINE SMOOTH",
"526 609 OFFCURVE",
"541 608 OFFCURVE",
"557 605 CURVE",
"571 507 LINE",
"634 513 LINE",
"646 677 LINE",
"602 674 OFFCURVE",
"536 671 OFFCURVE",
"495 671 CURVE SMOOTH",
"138 671 LINE",
"125 619 LINE",
"193 602 LINE",
"191 581 OFFCURVE",
"182 527 OFFCURVE",
"161 430 CURVE SMOOTH",
"121 240 LINE SMOOTH",
"101 145 OFFCURVE",
"87 90 OFFCURVE",
"80 69 CURVE",
"5 51 LINE",
"-5 0 LINE",
"449 0 LINE",
"353 -45 OFFCURVE",
"294 -101 OFFCURVE",
"294 -161 CURVE SMOOTH",
"294 -216 OFFCURVE",
"344 -255 OFFCURVE",
"418 -255 CURVE SMOOTH",
"469 -255 OFFCURVE",
"515 -234 OFFCURVE",
"552 -198 CURVE",
"531 -159 LINE",
"502 -185 OFFCURVE",
"473 -199 OFFCURVE",
"447 -199 CURVE SMOOTH",
"415 -199 OFFCURVE",
"393 -182 OFFCURVE",
"393 -149 CURVE SMOOTH",
"393 -97 OFFCURVE",
"448 -43 OFFCURVE",
"533 0 CURVE",
"610 171 LINE",
"549 183 LINE",
"469 71 LINE",
"453 67 OFFCURVE",
"441 66 OFFCURVE",
"387 66 CURVE SMOOTH",
"305 66 LINE SMOOTH",
"265 66 OFFCURVE",
"242 67 OFFCURVE",
"217 71 CURVE",
"219 88 OFFCURVE",
"237 177 OFFCURVE",
"247 227 CURVE SMOOTH",
"293 442 LINE SMOOTH"
);
}
);
};
color = -1;
layerId = "925D3525-5003-4FA1-BE98-2BABE6F3DA5C";
paths = (
{
closed = 1;
nodes = (
"494 231 LINE",
"542 458 LINE",
"483 458 LINE",
"455 381 LINE",
"445 379 OFFCURVE",
"422 378 OFFCURVE",
"394 378 CURVE SMOOTH",
"325 378 LINE SMOOTH",
"299 378 OFFCURVE",
"277 379 OFFCURVE",
"258 381 CURVE",
"243 309 LINE",
"262 310 OFFCURVE",
"286 312 OFFCURVE",
"311 312 CURVE SMOOTH",
"381 312 LINE SMOOTH",
"408 312 OFFCURVE",
"430 310 OFFCURVE",
"439 309 CURVE",
"435 231 LINE"
);
},
{
closed = 1;
nodes = (
"304 496 OFFCURVE",
"326 591 OFFCURVE",
"331 606 CURVE",
"350 608 OFFCURVE",
"375 609 OFFCURVE",
"403 609 CURVE SMOOTH",
"509 609 LINE SMOOTH",
"526 609 OFFCURVE",
"541 608 OFFCURVE",
"557 605 CURVE",
"571 507 LINE",
"634 513 LINE",
"646 677 LINE",
"602 674 OFFCURVE",
"536 671 OFFCURVE",
"495 671 CURVE SMOOTH",
"141 671 LINE",
"126 619 LINE",
"193 602 LINE",
"191 581 OFFCURVE",
"182 527 OFFCURVE",
"161 430 CURVE SMOOTH",
"121 240 LINE SMOOTH",
"101 145 OFFCURVE",
"87 90 OFFCURVE",
"80 69 CURVE",
"5 51 LINE",
"-2 0 LINE",
"449 0 LINE",
"353 -45 OFFCURVE",
"294 -101 OFFCURVE",
"294 -161 CURVE SMOOTH",
"294 -216 OFFCURVE",
"344 -255 OFFCURVE",
"418 -255 CURVE SMOOTH",
"469 -255 OFFCURVE",
"515 -234 OFFCURVE",
"552 -198 CURVE",
"531 -159 LINE",
"502 -185 OFFCURVE",
"473 -199 OFFCURVE",
"447 -199 CURVE SMOOTH",
"415 -199 OFFCURVE",
"393 -182 OFFCURVE",
"393 -149 CURVE SMOOTH",
"393 -97 OFFCURVE",
"448 -43 OFFCURVE",
"533 0 CURVE",
"610 171 LINE",
"549 183 LINE",
"469 71 LINE",
"453 67 OFFCURVE",
"441 66 OFFCURVE",
"387 66 CURVE SMOOTH",
"305 66 LINE SMOOTH",
"265 66 OFFCURVE",
"242 67 OFFCURVE",
"217 71 CURVE",
"219 88 OFFCURVE",
"237 177 OFFCURVE",
"247 227 CURVE SMOOTH",
"293 442 LINE SMOOTH"
);
}
);
width = 654;
}
);
leftKerningGroup = H;
leftMetricsKey = E;
widthMetricsKey = E;
note = Eogonek;
rightKerningGroup = E;
unicode = 0118;
},
{
glyphname = F;
lastChange = "2020-06-19 12:07:49 +0000";
layers = (
{
anchors = (
{
name = bottom;
position = "{121, 0}";
},
{
name = top;
position = "{390, 671}";
}
);
background = {
anchors = (
{
name = bottom;
position = "{121, 0}";
},
{
name = top;
position = "{390, 671}";
}
);
paths = (
{
closed = 1;
nodes = (
"246 0 LINE",
"257 39 LINE",
"168 51 LINE",
"170 72 OFFCURVE",
"173 100 OFFCURVE",
"203 239 CURVE",
"242 431 LINE",
"249 458 OFFCURVE",
"284 611 OFFCURVE",
"287 619 CURVE",
"303 620 OFFCURVE",
"338 622 OFFCURVE",
"360 622 CURVE SMOOTH",
"503 622 LINE SMOOTH",
"520 622 OFFCURVE",
"535 621 OFFCURVE",
"540 619 CURVE",
"554 525 LINE",
"600 530 LINE",
"614 675 LINE",
"566 670 OFFCURVE",
"551 671 OFFCURVE",
"528 671 CURVE SMOOTH",
"153 671 LINE",
"144 634 LINE",
"209 619 LINE",
"206 592 OFFCURVE",
"201 556 OFFCURVE",
"178 449 CURVE",
"127 212 LINE",
"104 108 OFFCURVE",
"97 74 OFFCURVE",
"90 51 CURVE",
"26 37 LINE",
"20 0 LINE"
);
},
{
closed = 1;
nodes = (
"456 231 LINE",
"503 451 LINE",
"461 451 LINE",
"429 372 LINE",
"419 367 OFFCURVE",
"407 366 OFFCURVE",
"376 366 CURVE SMOOTH",
"268 366 LINE SMOOTH",
"251 366 OFFCURVE",
"232 368 OFFCURVE",
"212 369 CURVE",
"202 317 LINE",
"231 318 OFFCURVE",
"247 319 OFFCURVE",
"257 319 CURVE SMOOTH",
"365 319 LINE SMOOTH",
"403 319 OFFCURVE",
"413 318 OFFCURVE",
"417 314 CURVE",
"414 231 LINE"
);
}
);
};
color = -1;
layerId = "D9A1C40A-2361-406B-8D3E-8FA7FBCB82BD";
paths = (
{
closed = 1;
nodes = (
"246 0 LINE",
"256 39 LINE",
"167 51 LINE",
"169 72 OFFCURVE",
"171 99 OFFCURVE",
"201 240 CURVE",
"241 431 LINE",
"247 458 OFFCURVE",
"283 611 OFFCURVE",
"286 619 CURVE",
"302 619 OFFCURVE",
"337 622 OFFCURVE",
"359 622 CURVE SMOOTH",
"503 622 LINE SMOOTH",
"519 622 OFFCURVE",
"535 621 OFFCURVE",
"538 619 CURVE",
"553 525 LINE",
"599 530 LINE",
"613 675 LINE",
"565 671 OFFCURVE",
"550 671 OFFCURVE",
"527 671 CURVE SMOOTH",
"155 671 LINE",
"145 634 LINE",
"210 619 LINE",
"207 592 OFFCURVE",
"200 557 OFFCURVE",
"177 449 CURVE",
"127 213 LINE",
"104 107 OFFCURVE",
"97 74 OFFCURVE",
"90 51 CURVE",
"24 37 LINE",
"18 0 LINE"
);
},
{
closed = 1;
nodes = (
"455 229 LINE",
"502 451 LINE",
"461 451 LINE",
"429 371 LINE",
"418 369 OFFCURVE",
"406 367 OFFCURVE",
"375 367 CURVE SMOOTH",
"267 367 LINE SMOOTH",
"250 367 OFFCURVE",
"231 368 OFFCURVE",
"211 369 CURVE",
"201 315 LINE",
"230 317 OFFCURVE",
"246 317 OFFCURVE",
"256 317 CURVE SMOOTH",
"363 317 LINE SMOOTH",
"390 317 OFFCURVE",
"408 315 OFFCURVE",
"416 313 CURVE",
"413 229 LINE"
);
}
);
width = 562;
},
{
anchors = (
{
name = bottom;
position = "{154, 0}";
},
{
name = top;
position = "{393, 671}";
}
);
background = {
anchors = (
{
name = bottom;
position = "{155, 0}";
},
{
name = top;
position = "{394, 671}";
}
);
paths = (
{
closed = 1;
nodes = (
"349 0 LINE",
"367 67 LINE",
"278 87 LINE",
"280 107 OFFCURVE",
"291 174 OFFCURVE",
"291 177 CURVE",
"352 471 LINE",
"381 614 OFFCURVE",
"370 571 OFFCURVE",
"376 590 CURVE",
"393 594 OFFCURVE",
"417 597 OFFCURVE",
"446 597 CURVE SMOOTH",
"511 597 LINE SMOOTH",
"529 597 OFFCURVE",
"543 595 OFFCURVE",
"568 591 CURVE",
"584 489 LINE",
"663 497 LINE",
"672 678 LINE",
"633 678 OFFCURVE",
"515 671 OFFCURVE",
"458 671 CURVE SMOOTH",
"133 671 LINE",
"113 606 LINE",
"185 586 LINE",
"190 585 OFFCURVE",
"170 498 OFFCURVE",
"153 409 CURVE",
"122 269 LINE",
"104 182 OFFCURVE",
"82 106 OFFCURVE",
"75 87 CURVE",
"-7 65 LINE",
"-19 0 LINE"
);
},
{
closed = 1;
nodes = (
"521 210 LINE",
"573 454 LINE",
"498 454 LINE",
"471 381 LINE",
"461 383 OFFCURVE",
"432 378 OFFCURVE",
"401 378 CURVE SMOOTH",
"354 378 LINE SMOOTH",
"323 378 OFFCURVE",
"297 382 OFFCURVE",
"285 383 CURVE",
"263 289 LINE",
"275 290 OFFCURVE",
"303 294 OFFCURVE",
"336 294 CURVE SMOOTH",
"383 294 LINE SMOOTH",
"400 294 OFFCURVE",
"430 293 OFFCURVE",
"451 290 CURVE",
"447 210 LINE"
);
}
);
};
color = -1;
layerId = "24976ABE-9171-461B-B338-52EF76BD92C7";
paths = (
{
closed = 1;
nodes = (
"345 0 LINE",
"363 67 LINE",
"274 87 LINE",
"277 107 OFFCURVE",
"285 151 OFFCURVE",
"289 177 CURVE",
"351 471 LINE",
"363 535 OFFCURVE",
"370 571 OFFCURVE",
"375 590 CURVE",
"392 594 OFFCURVE",
"416 597 OFFCURVE",
"445 597 CURVE SMOOTH",
"510 597 LINE SMOOTH",
"528 597 OFFCURVE",
"542 595 OFFCURVE",
"567 591 CURVE",
"583 489 LINE",
"662 497 LINE",
"671 678 LINE",
"621 674 OFFCURVE",
"514 671 OFFCURVE",
"457 671 CURVE SMOOTH",
"131 671 LINE",
"114 606 LINE",
"184 586 LINE",
"183 562 OFFCURVE",
"169 498 OFFCURVE",
"152 409 CURVE",
"121 269 LINE",
"103 182 OFFCURVE",
"81 106 OFFCURVE",
"74 87 CURVE",
"-1 65 LINE",
"-11 0 LINE"
);
},
{
closed = 1;
nodes = (
"520 210 LINE",
"571 454 LINE",
"497 454 LINE",
"470 382 LINE",
"450 379 OFFCURVE",
"431 378 OFFCURVE",
"400 378 CURVE SMOOTH",
"353 378 LINE SMOOTH",
"322 378 OFFCURVE",
"296 382 OFFCURVE",
"283 383 CURVE",
"262 289 LINE",
"274 290 OFFCURVE",
"302 294 OFFCURVE",
"335 294 CURVE SMOOTH",
"382 294 LINE SMOOTH",
"399 294 OFFCURVE",
"429 293 OFFCURVE",
"450 290 CURVE",
"446 210 LINE"
);
}
);
width = 647;
},
{
anchors = (
{
name = bottom;
position = "{136, 0}";
},
{
name = top;
position = "{390, 671}";
}
);
background = {
anchors = (
{
name = bottom;
position = "{136, 0}";
},
{
name = top;
position = "{390, 671}";
}
);
paths = (
{
closed = 1;
nodes = (
"295 0 LINE",
"310 53 LINE",
"220 69 LINE",
"223 89 OFFCURVE",
"230 137 OFFCURVE",
"244 208 CURVE",
"295 451 LINE",
"313 536 OFFCURVE",
"325 592 OFFCURVE",
"329 604 CURVE",
"346 607 OFFCURVE",
"376 609 OFFCURVE",
"400 609 CURVE SMOOTH",
"505 609 LINE SMOOTH",
"522 609 OFFCURVE",
"537 608 OFFCURVE",
"551 605 CURVE",
"567 507 LINE",
"630 513 LINE",
"641 676 LINE",
"598 674 OFFCURVE",
"531 671 OFFCURVE",
"491 671 CURVE SMOOTH",
"140 671 LINE",
"127 620 LINE",
"195 603 LINE",
"195 589 OFFCURVE",
"184 527 OFFCURVE",
"163 429 CURVE",
"122 240 LINE",
"102 145 OFFCURVE",
"88 90 OFFCURVE",
"81 69 CURVE",
"7 51 LINE",
"-2 0 LINE"
);
},
{
closed = 1;
nodes = (
"486 221 LINE",
"535 452 LINE",
"477 452 LINE",
"448 376 LINE",
"438 375 OFFCURVE",
"417 372 OFFCURVE",
"386 372 CURVE SMOOTH",
"309 372 LINE SMOOTH",
"285 372 OFFCURVE",
"262 375 OFFCURVE",
"246 376 CURVE",
"230 303 LINE",
"251 304 OFFCURVE",
"272 306 OFFCURVE",
"295 306 CURVE SMOOTH",
"372 306 LINE SMOOTH",
"399 306 OFFCURVE",
"419 305 OFFCURVE",
"432 302 CURVE",
"428 221 LINE"
);
}
);
};
color = -1;
layerId = "925D3525-5003-4FA1-BE98-2BABE6F3DA5C";
paths = (
{
closed = 1;
nodes = (
"295 0 LINE",
"310 54 LINE",
"221 69 LINE",
"223 89 OFFCURVE",
"230 137 OFFCURVE",
"245 208 CURVE",
"295 450 LINE",
"312 536 OFFCURVE",
"325 592 OFFCURVE",
"329 605 CURVE",
"345 607 OFFCURVE",
"376 609 OFFCURVE",
"400 609 CURVE SMOOTH",
"505 609 LINE SMOOTH",
"522 609 OFFCURVE",
"537 608 OFFCURVE",
"552 605 CURVE",
"567 507 LINE",
"630 513 LINE",
"641 677 LINE",
"598 674 OFFCURVE",
"531 671 OFFCURVE",
"490 671 CURVE SMOOTH",
"142 671 LINE",
"127 619 LINE",
"194 602 LINE",
"194 589 OFFCURVE",
"184 527 OFFCURVE",
"163 430 CURVE",
"122 240 LINE",
"102 145 OFFCURVE",
"88 90 OFFCURVE",
"81 69 CURVE",
"11 51 LINE",
"3 0 LINE"
);
},
{
closed = 1;
nodes = (
"486 221 LINE",
"536 453 LINE",
"478 453 LINE",
"448 376 LINE",
"438 375 OFFCURVE",
"417 373 OFFCURVE",
"386 373 CURVE SMOOTH",
"309 373 LINE SMOOTH",
"285 373 OFFCURVE",
"262 375 OFFCURVE",
"246 376 CURVE",
"230 303 LINE",
"250 304 OFFCURVE",
"272 306 OFFCURVE",
"295 306 CURVE SMOOTH",
"371 306 LINE SMOOTH",
"399 306 OFFCURVE",
"419 305 OFFCURVE",
"432 302 CURVE",
"429 221 LINE"
);
}
);
width = 599;
}
);
leftKerningGroup = H;
note = F;
rightKerningGroup = F;
unicode = 0046;
},
{
glyphname = G;
lastChange = "2020-06-19 12:07:49 +0000";
layers = (
{
anchors = (
{
name = bottom;
position = "{352, 0}";
},
{
name = top;
position = "{494, 671}";
}
);
background = {
anchors = (
{
name = bottom;
position = "{352, 0}";
},
{
name = top;
position = "{494, 671}";
}
);
paths = (
{
closed = 1;
nodes = (
"448 -10 OFFCURVE",
"550 15 OFFCURVE",
"608 55 CURVE",
"614 86 OFFCURVE",
"619 119 OFFCURVE",
"634 187 CURVE SMOOTH",
"642 232 OFFCURVE",
"649 261 OFFCURVE",
"650 265 CURVE",
"699 277 LINE",
"705 313 LINE",
"513 313 LINE",
"504 274 LINE",
"577 264 LINE",
"576 245 OFFCURVE",
"570 208 OFFCURVE",
"558 150 CURVE SMOOTH",
"533 26 LINE",
"574 94 LINE",
"521 54 OFFCURVE",
"439 40 OFFCURVE",
"393 40 CURVE SMOOTH",
"249 40 OFFCURVE",
"167 126 OFFCURVE",
"167 270 CURVE SMOOTH",
"167 472 OFFCURVE",
"296 631 OFFCURVE",
"489 631 CURVE SMOOTH",
"546 631 OFFCURVE",
"605 618 OFFCURVE",
"633 597 CURVE",
"641 501 LINE",
"687 502 LINE",
"707 646 LINE",
"650 670 OFFCURVE",
"577 681 OFFCURVE",
"510 681 CURVE SMOOTH",
"266 681 OFFCURVE",
"75 493 OFFCURVE",
"75 261 CURVE SMOOTH",
"75 94 OFFCURVE",
"190 -10 OFFCURVE",
"391 -10 CURVE SMOOTH"
);
}
);
};
color = -1;
layerId = "D9A1C40A-2361-406B-8D3E-8FA7FBCB82BD";
paths = (
{
closed = 1;
nodes = (
"448 -10 OFFCURVE",
"550 15 OFFCURVE",
"608 50 CURVE",
"614 86 OFFCURVE",
"621 119 OFFCURVE",
"634 187 CURVE SMOOTH",
"643 232 OFFCURVE",
"649 261 OFFCURVE",
"650 265 CURVE",
"701 277 LINE",
"706 313 LINE",
"515 313 LINE",
"505 274 LINE",
"578 264 LINE",
"577 245 OFFCURVE",
"571 208 OFFCURVE",
"559 150 CURVE SMOOTH",
"533 26 LINE",
"574 94 LINE",
"521 54 OFFCURVE",
"439 40 OFFCURVE",
"393 40 CURVE SMOOTH",
"249 40 OFFCURVE",
"167 126 OFFCURVE",
"167 270 CURVE SMOOTH",
"167 456 OFFCURVE",
"283 631 OFFCURVE",
"489 631 CURVE SMOOTH",
"546 631 OFFCURVE",
"605 618 OFFCURVE",
"633 597 CURVE",
"641 501 LINE",
"687 502 LINE",
"707 646 LINE",
"650 670 OFFCURVE",
"577 681 OFFCURVE",
"510 681 CURVE SMOOTH",
"248 681 OFFCURVE",
"75 478 OFFCURVE",
"75 261 CURVE SMOOTH",
"75 94 OFFCURVE",
"190 -10 OFFCURVE",
"391 -10 CURVE SMOOTH"
);
}
);
width = 736;
},
{
anchors = (
{
name = bottom;
position = "{349, 0}";
},
{
name = top;
position = "{490, 671}";
}
);
background = {
anchors = (
{
name = bottom;
position = "{350, 0}";
},
{
name = top;
position = "{491, 671}";
}
);
paths = (
{
closed = 1;
nodes = (
"464 -10 OFFCURVE",
"545 8 OFFCURVE",
"626 46 CURVE",
"637 114 OFFCURVE",
"642 143 OFFCURVE",
"641 142 CURVE SMOOTH",
"649 171 OFFCURVE",
"656 209 OFFCURVE",
"664 230 CURVE",
"730 253 LINE",
"741 318 LINE",
"409 318 LINE",
"390 250 LINE",
"470 229 LINE",
"466 208 OFFCURVE",
"458 154 OFFCURVE",
"454 134 CURVE SMOOTH",
"430 24 LINE",
"464 82 LINE",
"449 82 OFFCURVE",
"443 80 OFFCURVE",
"435 80 CURVE SMOOTH",
"342 80 OFFCURVE",
"279 158 OFFCURVE",
"279 274 CURVE SMOOTH",
"279 395 OFFCURVE",
"344 594 OFFCURVE",
"515 594 CURVE SMOOTH",
"553 594 OFFCURVE",
"576 590 OFFCURVE",
"605 577 CURVE",
"611 467 LINE",
"696 472 LINE",
"738 641 LINE",
"694 665 OFFCURVE",
"614 681 OFFCURVE",
"528 681 CURVE SMOOTH",
"262 681 OFFCURVE",
"57 497 OFFCURVE",
"57 254 CURVE SMOOTH",
"57 87 OFFCURVE",
"181 -10 OFFCURVE",
"384 -10 CURVE SMOOTH"
);
}
);
};
color = -1;
layerId = "24976ABE-9171-461B-B338-52EF76BD92C7";
paths = (
{
closed = 1;
nodes = (
"463 -10 OFFCURVE",
"544 8 OFFCURVE",
"626 46 CURVE",
"630 81 OFFCURVE",
"637 122 OFFCURVE",
"640 142 CURVE SMOOTH",
"646 173 OFFCURVE",
"654 209 OFFCURVE",
"661 230 CURVE",
"726 253 LINE",
"736 318 LINE",
"406 318 LINE",
"389 250 LINE",
"469 229 LINE",
"465 208 OFFCURVE",
"457 154 OFFCURVE",
"453 134 CURVE SMOOTH",
"430 24 LINE",
"478 86 LINE",
"463 83 OFFCURVE",
"447 80 OFFCURVE",
"434 80 CURVE SMOOTH",
"341 80 OFFCURVE",
"278 158 OFFCURVE",
"278 274 CURVE SMOOTH",
"278 395 OFFCURVE",
"343 594 OFFCURVE",
"518 594 CURVE SMOOTH",
"549 594 OFFCURVE",
"575 591 OFFCURVE",
"603 577 CURVE",
"610 467 LINE",
"695 472 LINE",
"737 641 LINE",
"693 665 OFFCURVE",
"613 681 OFFCURVE",
"527 681 CURVE SMOOTH",
"261 681 OFFCURVE",
"56 497 OFFCURVE",
"56 254 CURVE SMOOTH",
"56 87 OFFCURVE",
"179 -10 OFFCURVE",
"383 -10 CURVE SMOOTH"
);
}
);
width = 768;
},
{
anchors = (
{
name = bottom;
position = "{349, 0}";
},
{
name = top;
position = "{490, 671}";
}
);
background = {
anchors = (
{
name = bottom;
position = "{348, 0}";
},
{
name = top;
position = "{490, 671}";
}
);
paths = (
{
closed = 1;
nodes = (
"454 -10 OFFCURVE",
"545 12 OFFCURVE",
"615 50 CURVE",
"623 100 OFFCURVE",
"628 131 OFFCURVE",
"635 164 CURVE SMOOTH",
"643 202 OFFCURVE",
"650 235 OFFCURVE",
"654 248 CURVE",
"713 265 LINE",
"721 316 LINE",
"459 316 LINE",
"445 262 LINE",
"521 247 LINE",
"519 226 OFFCURVE",
"512 181 OFFCURVE",
"503 142 CURVE SMOOTH",
"479 26 LINE",
"517 88 LINE",
"482 68 OFFCURVE",
"439 60 OFFCURVE",
"412 60 CURVE SMOOTH",
"293 60 OFFCURVE",
"220 141 OFFCURVE",
"220 272 CURVE SMOOTH",
"220 434 OFFCURVE",
"318 613 OFFCURVE",
"500 613 CURVE SMOOTH",
"547 613 OFFCURVE",
"588 604 OFFCURVE",
"617 587 CURVE",
"624 484 LINE",
"689 487 LINE",
"721 643 LINE",
"670 667 OFFCURVE",
"593 681 OFFCURVE",
"516 681 CURVE SMOOTH",
"262 681 OFFCURVE",
"64 495 OFFCURVE",
"64 258 CURVE SMOOTH",
"64 91 OFFCURVE",
"183 -10 OFFCURVE",
"385 -10 CURVE SMOOTH"
);
}
);
};
color = -1;
layerId = "925D3525-5003-4FA1-BE98-2BABE6F3DA5C";
paths = (
{
closed = 1;
nodes = (
"454 -10 OFFCURVE",
"545 11 OFFCURVE",
"615 50 CURVE",
"623 101 OFFCURVE",
"629 131 OFFCURVE",
"635 165 CURVE SMOOTH",
"643 202 OFFCURVE",
"650 235 OFFCURVE",
"655 248 CURVE",
"713 264 LINE",
"721 315 LINE",
"459 315 LINE",
"445 262 LINE",
"521 247 LINE",
"519 226 OFFCURVE",
"511 181 OFFCURVE",
"503 142 CURVE SMOOTH",
"478 25 LINE",
"517 88 LINE",
"482 65 OFFCURVE",
"439 59 OFFCURVE",
"411 59 CURVE SMOOTH",
"293 59 OFFCURVE",
"221 142 OFFCURVE",
"221 272 CURVE SMOOTH",
"221 455 OFFCURVE",
"331 613 OFFCURVE",
"499 613 CURVE SMOOTH",
"547 613 OFFCURVE",
"589 603 OFFCURVE",
"617 587 CURVE",
"624 483 LINE",
"689 487 LINE",
"721 643 LINE",
"670 667 OFFCURVE",
"593 681 OFFCURVE",
"517 681 CURVE SMOOTH",
"262 681 OFFCURVE",
"64 495 OFFCURVE",
"64 257 CURVE SMOOTH",
"64 90 OFFCURVE",
"183 -10 OFFCURVE",
"385 -10 CURVE SMOOTH"
);
}
);
width = 747;
}
);
leftKerningGroup = O;
note = G;
rightKerningGroup = G;
unicode = 0047;
},
{
glyphname = H;
lastChange = "2020-06-19 12:07:49 +0000";
layers = (
{
anchors = (
{
name = bottom;
position = "{326, 0}";
},
{
name = center;
position = "{430, 496}";
},
{
name = top;
position = "{467, 671}";
},
{
name = topleft;
position = "{120, 671}";
}
);
background = {
anchors = (
{
name = bottom;
position = "{327, 0}";
},
{
name = center;
position = "{431, 496}";
},
{
name = top;
position = "{469, 671}";
},
{
name = topleft;
position = "{119, 671}";
}
);
paths = (
{
closed = 1;
nodes = (
"250 321 OFFCURVE",
"302 321 OFFCURVE",
"394 321 CURVE SMOOTH",
"486 321 OFFCURVE",
"535 321 OFFCURVE",
"570 317 CURVE",
"583 375 LINE",
"557 373 OFFCURVE",
"494 372 OFFCURVE",
"405 372 CURVE SMOOTH",
"315 372 OFFCURVE",
"254 373 OFFCURVE",
"228 375 CURVE",
"214 317 LINE"
);
},
{
closed = 1;
nodes = (
"224 0 LINE",
"233 37 LINE",
"168 51 LINE",
"168 69 OFFCURVE",
"170 93 OFFCURVE",
"195 212 CURVE SMOOTH",
"246 449 LINE SMOOTH",
"268 554 OFFCURVE",
"282 598 OFFCURVE",
"287 619 CURVE",
"359 634 LINE",
"365 671 LINE",
"153 671 LINE",
"143 634 LINE",
"208 619 LINE",
"207 600 OFFCURVE",
"200 556 OFFCURVE",
"178 449 CURVE SMOOTH",
"127 212 LINE SMOOTH",
"104 108 OFFCURVE",
"97 74 OFFCURVE",
"90 51 CURVE",
"19 37 LINE",
"14 0 LINE"
);
},
{
closed = 1;
nodes = (
"643 0 LINE",
"653 37 LINE",
"587 51 LINE",
"587 69 OFFCURVE",
"589 93 OFFCURVE",
"614 212 CURVE SMOOTH",
"665 449 LINE SMOOTH",
"688 554 OFFCURVE",
"701 600 OFFCURVE",
"707 619 CURVE",
"778 634 LINE",
"784 671 LINE",
"572 671 LINE",
"563 634 LINE",
"627 619 LINE",
"627 600 OFFCURVE",
"620 556 OFFCURVE",
"597 449 CURVE SMOOTH",
"546 212 LINE SMOOTH",
"524 108 OFFCURVE",
"517 74 OFFCURVE",
"510 51 CURVE",
"439 37 LINE",
"433 0 LINE"
);
}
);
};
color = -1;
layerId = "D9A1C40A-2361-406B-8D3E-8FA7FBCB82BD";
paths = (
{
closed = 1;
nodes = (
"249 321 OFFCURVE",
"302 321 OFFCURVE",
"394 321 CURVE SMOOTH",
"487 321 OFFCURVE",
"535 321 OFFCURVE",
"593 317 CURVE",
"606 375 LINE",
"558 373 OFFCURVE",
"494 371 OFFCURVE",
"405 371 CURVE SMOOTH",
"315 371 OFFCURVE",
"254 373 OFFCURVE",
"205 375 CURVE",
"191 317 LINE"
);
},
{
closed = 1;
nodes = (
"223 0 LINE",
"233 37 LINE",
"167 51 LINE",
"168 70 OFFCURVE",
"170 93 OFFCURVE",
"195 213 CURVE SMOOTH",
"246 449 LINE SMOOTH",
"269 554 OFFCURVE",
"282 599 OFFCURVE",
"287 619 CURVE",
"360 634 LINE",
"366 671 LINE",
"153 671 LINE",
"143 634 LINE",
"209 619 LINE",
"208 600 OFFCURVE",
"200 557 OFFCURVE",
"177 449 CURVE SMOOTH",
"127 213 LINE SMOOTH",
"104 107 OFFCURVE",
"97 74 OFFCURVE",
"90 51 CURVE",
"17 37 LINE",
"11 0 LINE"
);
},
{
closed = 1;
nodes = (
"639 0 LINE",
"649 37 LINE",
"583 51 LINE",
"585 70 OFFCURVE",
"587 93 OFFCURVE",
"613 213 CURVE SMOOTH",
"663 449 LINE SMOOTH",
"686 554 OFFCURVE",
"699 600 OFFCURVE",
"704 619 CURVE",
"776 634 LINE",
"782 671 LINE",
"569 671 LINE",
"559 634 LINE",
"625 619 LINE",
"624 600 OFFCURVE",
"617 557 OFFCURVE",
"594 449 CURVE SMOOTH",
"544 213 LINE SMOOTH",
"521 107 OFFCURVE",
"514 74 OFFCURVE",
"507 51 CURVE",
"434 37 LINE",
"429 0 LINE"
);
}
);
width = 753;
},
{
anchors = (
{
name = bottom;
position = "{361, 0}";
},
{
name = center;
position = "{467, 496}";
},
{
name = top;
position = "{505, 671}";
},
{
name = topleft;
position = "{133, 671}";
}
);
background = {
anchors = (
{
name = bottom;
position = "{362, 0}";
},
{
name = center;
position = "{469, 496}";
},
{
name = top;
position = "{506, 671}";
},
{
name = topleft;
position = "{134, 671}";
}
);
paths = (
{
closed = 1;
nodes = (
"313 291 OFFCURVE",
"357 296 OFFCURVE",
"425 296 CURVE SMOOTH",
"495 296 OFFCURVE",
"536 291 OFFCURVE",
"567 291 CURVE",
"586 391 LINE",
"544 386 OFFCURVE",
"509 385 OFFCURVE",
"446 385 CURVE SMOOTH",
"382 385 OFFCURVE",
"345 386 OFFCURVE",
"303 391 CURVE",
"282 291 LINE"
);
},
{
closed = 1;
nodes = (
"329 0 LINE",
"346 65 LINE",
"280 87 LINE",
"285 115 OFFCURVE",
"297 193 OFFCURVE",
"313 269 CURVE SMOOTH",
"343 409 LINE SMOOTH",
"361 496 OFFCURVE",
"379 570 OFFCURVE",
"387 586 CURVE",
"463 606 LINE",
"473 671 LINE",
"134 671 LINE",
"115 606 LINE",
"185 586 LINE",
"182 560 OFFCURVE",
"170 498 OFFCURVE",
"152 409 CURVE SMOOTH",
"122 269 LINE SMOOTH",
"104 182 OFFCURVE",
"83 106 OFFCURVE",
"77 87 CURVE",
"-2 65 LINE",
"-13 0 LINE"
);
},
{
closed = 1;
nodes = (
"736 0 LINE",
"753 65 LINE",
"683 87 LINE",
"688 115 OFFCURVE",
"702 193 OFFCURVE",
"718 269 CURVE SMOOTH",
"747 409 LINE SMOOTH",
"766 494 OFFCURVE",
"784 563 OFFCURVE",
"791 586 CURVE",
"870 606 LINE",
"880 671 LINE",
"539 671 LINE",
"522 606 LINE",
"589 586 LINE",
"586 560 OFFCURVE",
"574 498 OFFCURVE",
"557 409 CURVE SMOOTH",
"527 269 LINE SMOOTH",
"509 182 OFFCURVE",
"487 106 OFFCURVE",
"480 87 CURVE",
"405 65 LINE",
"394 0 LINE"
);
}
);
};
color = -1;
layerId = "24976ABE-9171-461B-B338-52EF76BD92C7";
paths = (
{
closed = 1;
nodes = (
"312 291 OFFCURVE",
"355 296 OFFCURVE",
"424 296 CURVE SMOOTH",
"494 296 OFFCURVE",
"535 291 OFFCURVE",
"566 291 CURVE",
"585 391 LINE",
"543 386 OFFCURVE",
"507 385 OFFCURVE",
"445 385 CURVE SMOOTH",
"381 385 OFFCURVE",
"344 386 OFFCURVE",
"302 391 CURVE",
"281 291 LINE"
);
},
{
closed = 1;
nodes = (
"328 0 LINE",
"345 65 LINE",
"279 87 LINE",
"283 115 OFFCURVE",
"296 193 OFFCURVE",
"312 269 CURVE SMOOTH",
"342 409 LINE SMOOTH",
"360 496 OFFCURVE",
"378 570 OFFCURVE",
"386 586 CURVE",
"462 606 LINE",
"472 671 LINE",
"133 671 LINE",
"114 606 LINE",
"184 586 LINE",
"181 560 OFFCURVE",
"169 498 OFFCURVE",
"151 409 CURVE SMOOTH",
"121 269 LINE SMOOTH",
"103 182 OFFCURVE",
"82 106 OFFCURVE",
"75 87 CURVE",
"-3 65 LINE",
"-14 0 LINE"
);
},
{
closed = 1;
nodes = (
"735 0 LINE",
"752 65 LINE",
"682 87 LINE",
"687 115 OFFCURVE",
"701 193 OFFCURVE",
"717 269 CURVE SMOOTH",
"746 409 LINE SMOOTH",
"765 494 OFFCURVE",
"783 563 OFFCURVE",
"790 586 CURVE",
"869 606 LINE",
"879 671 LINE",
"538 671 LINE",
"521 606 LINE",
"587 586 LINE",
"585 560 OFFCURVE",
"573 498 OFFCURVE",
"555 409 CURVE SMOOTH",
"526 269 LINE SMOOTH",
"507 182 OFFCURVE",
"486 106 OFFCURVE",
"479 87 CURVE",
"403 65 LINE",
"393 0 LINE"
);
}
);
width = 832;
},
{
anchors = (
{
name = bottom;
position = "{342, 0}";
},
{
name = center;
position = "{446, 496}";
},
{
name = top;
position = "{483, 671}";
},
{
name = topleft;
position = "{121, 671}";
}
);
background = {
anchors = (
{
name = bottom;
position = "{342, 0}";
},
{
name = center;
position = "{446, 496}";
},
{
name = top;
position = "{484, 671}";
},
{
name = topleft;
position = "{121, 671}";
}
);
paths = (
{
closed = 1;
nodes = (
"279 306 OFFCURVE",
"326 308 OFFCURVE",
"407 308 CURVE SMOOTH",
"487 308 OFFCURVE",
"532 306 OFFCURVE",
"565 304 CURVE",
"582 383 LINE",
"548 380 OFFCURVE",
"499 379 OFFCURVE",
"422 379 CURVE SMOOTH",
"346 379 OFFCURVE",
"297 380 OFFCURVE",
"262 383 CURVE",
"246 304 LINE"
);
},
{
closed = 1;
nodes = (
"274 0 LINE",
"288 51 LINE",
"220 69 LINE",
"223 93 OFFCURVE",
"231 143 OFFCURVE",
"251 240 CURVE SMOOTH",
"291 429 LINE SMOOTH",
"311 525 OFFCURVE",
"328 584 OFFCURVE",
"334 603 CURVE",
"409 620 LINE",
"417 671 LINE",
"139 671 LINE",
"125 620 LINE",
"193 603 LINE",
"191 580 OFFCURVE",
"182 527 OFFCURVE",
"161 429 CURVE SMOOTH",
"121 240 LINE SMOOTH",
"101 145 OFFCURVE",
"87 90 OFFCURVE",
"80 69 CURVE",
"4 51 LINE",
"-4 0 LINE"
);
},
{
closed = 1;
nodes = (
"686 0 LINE",
"700 51 LINE",
"633 69 LINE",
"635 93 OFFCURVE",
"643 143 OFFCURVE",
"663 240 CURVE SMOOTH",
"703 429 LINE SMOOTH",
"724 524 OFFCURVE",
"740 582 OFFCURVE",
"746 603 CURVE",
"821 620 LINE",
"829 671 LINE",
"551 671 LINE",
"537 620 LINE",
"605 603 LINE",
"603 580 OFFCURVE",
"594 527 OFFCURVE",
"574 429 CURVE SMOOTH",
"534 240 LINE SMOOTH",
"513 145 OFFCURVE",
"499 90 OFFCURVE",
"492 69 CURVE",
"417 51 LINE",
"408 0 LINE"
);
}
);
};
color = -1;
layerId = "925D3525-5003-4FA1-BE98-2BABE6F3DA5C";
paths = (
{
closed = 1;
nodes = (
"279 306 OFFCURVE",
"327 309 OFFCURVE",
"407 309 CURVE SMOOTH",
"488 309 OFFCURVE",
"533 306 OFFCURVE",
"566 304 CURVE",
"582 383 LINE",
"549 379 OFFCURVE",
"498 378 OFFCURVE",
"422 378 CURVE SMOOTH",
"345 378 OFFCURVE",
"296 379 OFFCURVE",
"263 383 CURVE",
"246 304 LINE"
);
},
{
closed = 1;
nodes = (
"273 0 LINE",
"288 51 LINE",
"221 69 LINE",
"223 93 OFFCURVE",
"231 143 OFFCURVE",
"251 240 CURVE SMOOTH",
"291 430 LINE SMOOTH",
"311 525 OFFCURVE",
"328 584 OFFCURVE",
"334 602 CURVE",
"408 619 LINE",
"416 671 LINE",
"139 671 LINE",
"126 619 LINE",
"193 602 LINE",
"191 581 OFFCURVE",
"182 527 OFFCURVE",
"161 430 CURVE SMOOTH",
"121 240 LINE SMOOTH",
"101 145 OFFCURVE",
"87 90 OFFCURVE",
"80 69 CURVE",
"6 51 LINE",
"-2 0 LINE"
);
},
{
closed = 1;
nodes = (
"685 0 LINE",
"699 51 LINE",
"632 69 LINE",
"634 93 OFFCURVE",
"641 143 OFFCURVE",
"662 240 CURVE SMOOTH",
"702 430 LINE SMOOTH",
"722 525 OFFCURVE",
"738 582 OFFCURVE",
"745 602 CURVE",
"819 619 LINE",
"827 671 LINE",
"551 671 LINE",
"536 619 LINE",
"603 602 LINE",
"602 581 OFFCURVE",
"593 527 OFFCURVE",
"573 430 CURVE SMOOTH",
"533 240 LINE SMOOTH",
"512 145 OFFCURVE",
"498 90 OFFCURVE",
"491 69 CURVE",
"417 51 LINE",
"409 0 LINE"
);
}
);
width = 787;
}
);
leftKerningGroup = H;
note = H;
rightKerningGroup = H;
unicode = 0048;
},
{
glyphname = I;
lastChange = "2020-06-19 12:07:49 +0000";
layers = (
{
anchors = (
{
name = bottom;
position = "{115, 0}";
},
{
name = ogonek;
position = "{222, 0}";
},
{
name = top;
position = "{259, 671}";
},
{
name = topleft;
position = "{119, 671}";
}
);
background = {
anchors = (
{
name = bottom;
position = "{115, 0}";
},
{
name = ogonek;
position = "{224, 0}";
},
{
name = top;
position = "{259, 671}";
},
{
name = topleft;
position = "{119, 671}";
}
);
paths = (
{
closed = 1;
nodes = (
"224 0 LINE",
"233 37 LINE",
"168 51 LINE",
"168 70 OFFCURVE",
"170 93 OFFCURVE",
"195 213 CURVE SMOOTH",
"246 449 LINE SMOOTH",
"269 554 OFFCURVE",
"282 600 OFFCURVE",
"287 619 CURVE",
"359 634 LINE",
"365 671 LINE",
"153 671 LINE",
"143 634 LINE",
"208 619 LINE",
"208 600 OFFCURVE",
"200 557 OFFCURVE",
"178 449 CURVE SMOOTH",
"127 213 LINE SMOOTH",
"104 107 OFFCURVE",
"97 74 OFFCURVE",
"90 51 CURVE",
"19 37 LINE",
"14 0 LINE"
);
}
);
};
color = -1;
layerId = "D9A1C40A-2361-406B-8D3E-8FA7FBCB82BD";
paths = (
{
closed = 1;
nodes = (
"221 0 LINE",
"231 37 LINE",
"166 51 LINE",
"168 70 OFFCURVE",
"170 93 OFFCURVE",
"195 213 CURVE SMOOTH",
"246 449 LINE SMOOTH",
"269 554 OFFCURVE",
"282 600 OFFCURVE",
"287 619 CURVE",
"359 634 LINE",
"365 671 LINE",
"152 671 LINE",
"142 634 LINE",
"207 619 LINE",
"207 600 OFFCURVE",
"201 557 OFFCURVE",
"178 449 CURVE SMOOTH",
"128 213 LINE SMOOTH",
"105 107 OFFCURVE",
"96 74 OFFCURVE",
"89 51 CURVE",
"17 37 LINE",
"11 0 LINE"
);
}
);
width = 337;
},
{
anchors = (
{
name = bottom;
position = "{159, 0}";
},
{
name = ogonek;
position = "{331, 0}";
},
{
name = top;
position = "{304, 671}";
},
{
name = topleft;
position = "{131, 671}";
}
);
background = {
anchors = (
{
name = bottom;
position = "{160, 0}";
},
{
name = ogonek;
position = "{333, 0}";
},
{
name = top;
position = "{305, 671}";
},
{
name = topleft;
position = "{133, 671}";
}
);
paths = (
{
closed = 1;
nodes = (
"333 0 LINE",
"350 65 LINE",
"280 87 LINE",
"285 115 OFFCURVE",
"298 193 OFFCURVE",
"313 269 CURVE SMOOTH",
"343 409 LINE SMOOTH",
"361 494 OFFCURVE",
"379 563 OFFCURVE",
"387 586 CURVE",
"466 606 LINE",
"477 671 LINE",
"133 671 LINE",
"115 606 LINE",
"185 586 LINE",
"182 560 OFFCURVE",
"170 498 OFFCURVE",
"152 409 CURVE SMOOTH",
"122 269 LINE SMOOTH",
"104 182 OFFCURVE",
"83 106 OFFCURVE",
"77 87 CURVE",
"-2 65 LINE",
"-13 0 LINE"
);
}
);
};
color = -1;
layerId = "24976ABE-9171-461B-B338-52EF76BD92C7";
paths = (
{
closed = 1;
nodes = (
"331 0 LINE",
"349 65 LINE",
"279 87 LINE",
"283 115 OFFCURVE",
"297 193 OFFCURVE",
"312 269 CURVE SMOOTH",
"342 409 LINE SMOOTH",
"360 494 OFFCURVE",
"378 563 OFFCURVE",
"386 586 CURVE",
"465 606 LINE",
"475 671 LINE",
"131 671 LINE",
"114 606 LINE",
"184 586 LINE",
"181 560 OFFCURVE",
"169 498 OFFCURVE",
"151 409 CURVE SMOOTH",
"121 269 LINE SMOOTH",
"103 182 OFFCURVE",
"82 106 OFFCURVE",
"75 87 CURVE",
"-3 65 LINE",
"-14 0 LINE"
);
}
);
width = 427;
},
{
anchors = (
{
name = bottom;
position = "{135, 0}";
},
{
name = ogonek;
position = "{273, 0}";
},
{
name = top;
position = "{277, 671}";
},
{
name = topleft;
position = "{122, 671}";
}
);
background = {
anchors = (
{
name = bottom;
position = "{135, 0}";
},
{
name = ogonek;
position = "{274, 0}";
},
{
name = top;
position = "{277, 671}";
},
{
name = topleft;
position = "{122, 671}";
}
);
paths = (
{
closed = 1;
nodes = (
"274 0 LINE",
"288 51 LINE",
"220 69 LINE",
"223 93 OFFCURVE",
"231 143 OFFCURVE",
"251 240 CURVE SMOOTH",
"291 429 LINE SMOOTH",
"311 524 OFFCURVE",
"328 582 OFFCURVE",
"334 603 CURVE",
"409 620 LINE",
"417 671 LINE",
"139 671 LINE",
"125 620 LINE",
"193 603 LINE",
"191 580 OFFCURVE",
"182 527 OFFCURVE",
"161 429 CURVE SMOOTH",
"121 240 LINE SMOOTH",
"101 145 OFFCURVE",
"87 90 OFFCURVE",
"80 69 CURVE",
"4 51 LINE",
"-4 0 LINE"
);
}
);
};
color = -1;
layerId = "925D3525-5003-4FA1-BE98-2BABE6F3DA5C";
paths = (
{
closed = 1;
nodes = (
"273 0 LINE",
"288 51 LINE",
"221 69 LINE",
"223 93 OFFCURVE",
"231 143 OFFCURVE",
"251 240 CURVE SMOOTH",
"291 430 LINE SMOOTH",
"311 525 OFFCURVE",
"328 582 OFFCURVE",
"334 602 CURVE",
"409 619 LINE",
"417 671 LINE",
"141 671 LINE",
"126 619 LINE",
"193 602 LINE",
"191 581 OFFCURVE",
"182 527 OFFCURVE",
"161 430 CURVE SMOOTH",
"121 240 LINE SMOOTH",
"101 145 OFFCURVE",
"87 90 OFFCURVE",
"80 69 CURVE",
"6 51 LINE",
"-2 0 LINE"
);
}
);
width = 377;
}
);
leftKerningGroup = H;
note = I;
rightKerningGroup = H;
unicode = 0049;
},
{
glyphname = Iogonek;
lastChange = "2020-06-19 12:07:49 +0000";
layers = (
{
anchors = (
{
name = top;
position = "{248, 671}";
}
);
background = {
anchors = (
{
name = top;
position = "{705, 671}";
}
);
paths = (
{
closed = 1;
nodes = (
"589 634 LINE",
"654 619 LINE",
"654 600 OFFCURVE",
"647 557 OFFCURVE",
"624 449 CURVE SMOOTH",
"573 213 LINE SMOOTH",
"550 107 OFFCURVE",
"543 74 OFFCURVE",
"536 51 CURVE",
"465 37 LINE",
"459 0 LINE",
"646 0 LINE",
"647 18 LINE",
"502 -27 OFFCURVE",
"416 -94 OFFCURVE",
"416 -174 CURVE SMOOTH",
"416 -217 OFFCURVE",
"446 -255 OFFCURVE",
"518 -255 CURVE SMOOTH",
"555 -255 OFFCURVE",
"602 -234 OFFCURVE",
"639 -198 CURVE",
"623 -174 LINE",
"592 -200 OFFCURVE",
"565 -214 OFFCURVE",
"539 -214 CURVE SMOOTH",
"504 -214 OFFCURVE",
"485 -194 OFFCURVE",
"485 -161 CURVE SMOOTH",
"485 -97 OFFCURVE",
"554 -38 OFFCURVE",
"670 0 CURVE",
"679 37 LINE",
"614 51 LINE",
"614 70 OFFCURVE",
"616 93 OFFCURVE",
"641 213 CURVE SMOOTH",
"691 449 LINE SMOOTH",
"714 554 OFFCURVE",
"728 600 OFFCURVE",
"733 619 CURVE",
"805 634 LINE",
"810 671 LINE",
"599 671 LINE"
);
},
{
closed = 1;
nodes = (
"221 0 LINE",
"231 37 LINE",
"166 51 LINE",
"168 70 OFFCURVE",
"170 93 OFFCURVE",
"195 213 CURVE SMOOTH",
"246 449 LINE SMOOTH",
"269 554 OFFCURVE",
"282 600 OFFCURVE",
"287 619 CURVE",
"359 634 LINE",
"365 671 LINE",
"152 671 LINE",
"142 634 LINE",
"207 619 LINE",
"207 600 OFFCURVE",
"201 557 OFFCURVE",
"178 449 CURVE SMOOTH",
"128 213 LINE SMOOTH",
"105 107 OFFCURVE",
"96 74 OFFCURVE",
"89 51 CURVE",
"17 37 LINE",
"11 0 LINE"
);
}
);
};
color = -1;
layerId = "D9A1C40A-2361-406B-8D3E-8FA7FBCB82BD";
paths = (
{
closed = 1;
nodes = (
"142 634 LINE",
"207 619 LINE",
"207 600 OFFCURVE",
"201 557 OFFCURVE",
"178 449 CURVE SMOOTH",
"128 213 LINE SMOOTH",
"105 107 OFFCURVE",
"96 74 OFFCURVE",
"89 51 CURVE",
"17 37 LINE",
"11 0 LINE",
"200 0 LINE",
"201 18 LINE",
"56 -27 OFFCURVE",
"-30 -94 OFFCURVE",
"-30 -174 CURVE SMOOTH",
"-30 -217 OFFCURVE",
"1 -255 OFFCURVE",
"72 -255 CURVE SMOOTH",
"110 -255 OFFCURVE",
"157 -234 OFFCURVE",
"193 -198 CURVE",
"177 -174 LINE",
"146 -200 OFFCURVE",
"119 -214 OFFCURVE",
"94 -214 CURVE SMOOTH",
"58 -214 OFFCURVE",
"39 -194 OFFCURVE",
"39 -161 CURVE SMOOTH",
"39 -97 OFFCURVE",
"109 -38 OFFCURVE",
"221 0 CURVE",
"231 37 LINE",
"166 51 LINE",
"168 70 OFFCURVE",
"170 93 OFFCURVE",
"195 213 CURVE SMOOTH",
"246 449 LINE SMOOTH",
"269 554 OFFCURVE",
"282 600 OFFCURVE",
"287 619 CURVE",
"359 634 LINE",
"365 671 LINE",
"152 671 LINE"
);
}
);
width = 337;
},
{
anchors = (
{
name = top;
position = "{304, 671}";
}
);
background = {
anchors = (
{
name = top;
position = "{759, 671}";
}
);
paths = (
{
closed = 1;
nodes = (
"570 606 LINE",
"642 586 LINE",
"639 560 OFFCURVE",
"627 498 OFFCURVE",
"609 409 CURVE SMOOTH",
"579 269 LINE SMOOTH",
"561 182 OFFCURVE",
"541 106 OFFCURVE",
"534 87 CURVE",
"454 65 LINE",
"442 0 LINE",
"696 0 LINE",
"695 14 LINE",
"511 -7 OFFCURVE",
"427 -85 OFFCURVE",
"427 -150 CURVE SMOOTH",
"427 -215 OFFCURVE",
"497 -255 OFFCURVE",
"573 -255 CURVE SMOOTH",
"632 -255 OFFCURVE",
"679 -234 OFFCURVE",
"715 -198 CURVE",
"693 -145 LINE",
"664 -171 OFFCURVE",
"634 -184 OFFCURVE",
"609 -184 CURVE SMOOTH",
"583 -184 OFFCURVE",
"559 -169 OFFCURVE",
"559 -136 CURVE SMOOTH",
"559 -97 OFFCURVE",
"593 -35 OFFCURVE",
"789 0 CURVE",
"807 65 LINE",
"737 87 LINE",
"742 115 OFFCURVE",
"754 193 OFFCURVE",
"770 269 CURVE SMOOTH",
"800 409 LINE SMOOTH",
"818 494 OFFCURVE",
"837 563 OFFCURVE",
"845 586 CURVE",
"923 606 LINE",
"934 671 LINE",
"589 671 LINE"
);
},
{
closed = 1;
nodes = (
"333 0 LINE",
"350 65 LINE",
"280 87 LINE",
"285 115 OFFCURVE",
"298 193 OFFCURVE",
"313 269 CURVE SMOOTH",
"343 409 LINE SMOOTH",
"361 494 OFFCURVE",
"379 563 OFFCURVE",
"387 586 CURVE",
"466 606 LINE",
"477 671 LINE",
"133 671 LINE",
"115 606 LINE",
"185 586 LINE",
"182 560 OFFCURVE",
"170 498 OFFCURVE",
"152 409 CURVE SMOOTH",
"122 269 LINE SMOOTH",
"104 182 OFFCURVE",
"83 106 OFFCURVE",
"77 87 CURVE",
"-2 65 LINE",
"-13 0 LINE"
);
}
);
};
color = -1;
layerId = "24976ABE-9171-461B-B338-52EF76BD92C7";
paths = (
{
closed = 1;
nodes = (
"114 606 LINE",
"184 586 LINE",
"181 560 OFFCURVE",
"169 498 OFFCURVE",
"151 409 CURVE SMOOTH",
"121 269 LINE SMOOTH",
"103 182 OFFCURVE",
"82 106 OFFCURVE",
"75 87 CURVE",
"-3 65 LINE",
"-14 0 LINE",
"238 0 LINE",
"237 14 LINE",
"53 -7 OFFCURVE",
"-31 -85 OFFCURVE",
"-31 -150 CURVE SMOOTH",
"-31 -215 OFFCURVE",
"39 -255 OFFCURVE",
"114 -255 CURVE SMOOTH",
"174 -255 OFFCURVE",
"221 -234 OFFCURVE",
"257 -198 CURVE",
"234 -145 LINE",
"206 -171 OFFCURVE",
"176 -184 OFFCURVE",
"151 -184 CURVE SMOOTH",
"125 -184 OFFCURVE",
"101 -169 OFFCURVE",
"101 -136 CURVE SMOOTH",
"101 -97 OFFCURVE",
"135 -35 OFFCURVE",
"331 0 CURVE",
"349 65 LINE",
"279 87 LINE",
"283 115 OFFCURVE",
"297 193 OFFCURVE",
"312 269 CURVE SMOOTH",
"342 409 LINE SMOOTH",
"360 494 OFFCURVE",
"378 563 OFFCURVE",
"386 586 CURVE",
"465 606 LINE",
"475 671 LINE",
"131 671 LINE"
);
}
);
width = 427;
},
{
anchors = (
{
name = top;
position = "{277, 671}";
}
);
background = {
anchors = (
{
name = top;
position = "{277, 671}";
}
);
paths = (
{
closed = 1;
nodes = (
"125 620 LINE",
"193 603 LINE",
"191 580 OFFCURVE",
"182 527 OFFCURVE",
"161 429 CURVE SMOOTH",
"121 240 LINE SMOOTH",
"101 145 OFFCURVE",
"87 90 OFFCURVE",
"80 69 CURVE",
"4 51 LINE",
"-4 0 LINE",
"216 0 LINE",
"216 16 LINE",
"51 -17 OFFCURVE",
"-33 -89 OFFCURVE",
"-33 -162 CURVE SMOOTH",
"-33 -217 OFFCURVE",
"17 -255 OFFCURVE",
"90 -255 CURVE SMOOTH",
"139 -255 OFFCURVE",
"186 -234 OFFCURVE",
"223 -198 CURVE",
"202 -159 LINE",
"173 -186 OFFCURVE",
"144 -199 OFFCURVE",
"119 -199 CURVE SMOOTH",
"88 -199 OFFCURVE",
"67 -182 OFFCURVE",
"67 -148 CURVE SMOOTH",
"67 -97 OFFCURVE",
"119 -37 OFFCURVE",
"274 0 CURVE",
"288 51 LINE",
"220 69 LINE",
"223 93 OFFCURVE",
"231 143 OFFCURVE",
"251 240 CURVE SMOOTH",
"291 429 LINE SMOOTH",
"311 524 OFFCURVE",
"328 582 OFFCURVE",
"334 603 CURVE",
"409 620 LINE",
"417 671 LINE",
"139 671 LINE"
);
}
);
};
color = -1;
layerId = "925D3525-5003-4FA1-BE98-2BABE6F3DA5C";
paths = (
{
closed = 1;
nodes = (
"126 619 LINE",
"193 602 LINE",
"191 581 OFFCURVE",
"182 527 OFFCURVE",
"161 430 CURVE SMOOTH",
"121 240 LINE SMOOTH",
"101 145 OFFCURVE",
"87 90 OFFCURVE",
"80 69 CURVE",
"6 51 LINE",
"-2 0 LINE",
"216 0 LINE",
"216 16 LINE",
"51 -17 OFFCURVE",
"-33 -89 OFFCURVE",
"-33 -161 CURVE SMOOTH",
"-33 -216 OFFCURVE",
"17 -255 OFFCURVE",
"90 -255 CURVE SMOOTH",
"139 -255 OFFCURVE",
"186 -234 OFFCURVE",
"223 -198 CURVE",
"202 -159 LINE",
"174 -185 OFFCURVE",
"144 -199 OFFCURVE",
"119 -199 CURVE SMOOTH",
"88 -199 OFFCURVE",
"66 -182 OFFCURVE",
"66 -149 CURVE SMOOTH",
"66 -97 OFFCURVE",
"119 -37 OFFCURVE",
"273 0 CURVE",
"288 51 LINE",
"221 69 LINE",
"223 93 OFFCURVE",
"231 143 OFFCURVE",
"251 240 CURVE SMOOTH",
"291 430 LINE SMOOTH",
"311 525 OFFCURVE",
"328 582 OFFCURVE",
"334 602 CURVE",
"408 619 LINE",
"416 671 LINE",
"141 671 LINE"
);
}
);
width = 377;
}
);
leftKerningGroup = H;
widthMetricsKey = I;
note = Iogonek;
rightKerningGroup = H;
unicode = 012E;
},
{
glyphname = J;
lastChange = "2020-06-19 12:07:49 +0000";
layers = (
{
anchors = (
{
name = top;
position = "{262, 671}";
}
);
background = {
anchors = (
{
name = top;
position = "{262, 671}";
}
);
paths = (
{
closed = 1;
nodes = (
"247 449 LINE SMOOTH",
"268 553 OFFCURVE",
"283 595 OFFCURVE",
"288 619 CURVE",
"360 634 LINE",
"365 671 LINE",
"146 671 LINE",
"136 634 LINE",
"209 618 LINE",
"206 596 OFFCURVE",
"201 560 OFFCURVE",
"177 448 CURVE SMOOTH",
"81 1 LINE SMOOTH",
"54 -123 OFFCURVE",
"23 -163 OFFCURVE",
"-51 -163 CURVE SMOOTH",
"-87 -163 OFFCURVE",
"-123 -153 OFFCURVE",
"-144 -136 CURVE",
"-158 -154 OFFCURVE",
"-162 -168 OFFCURVE",
"-162 -182 CURVE SMOOTH",
"-162 -213 OFFCURVE",
"-128 -230 OFFCURVE",
"-86 -230 CURVE SMOOTH",
"17 -230 OFFCURVE",
"123 -134 OFFCURVE",
"164 56 CURVE SMOOTH"
);
}
);
};
color = -1;
layerId = "D9A1C40A-2361-406B-8D3E-8FA7FBCB82BD";
paths = (
{
closed = 1;
nodes = (
"247 449 LINE SMOOTH",
"267 553 OFFCURVE",
"281 594 OFFCURVE",
"287 619 CURVE",
"359 634 LINE",
"365 671 LINE",
"146 671 LINE",
"136 634 LINE",
"209 618 LINE",
"207 595 OFFCURVE",
"201 560 OFFCURVE",
"177 448 CURVE SMOOTH",
"81 1 LINE SMOOTH",
"54 -123 OFFCURVE",
"24 -163 OFFCURVE",
"-51 -163 CURVE SMOOTH",
"-87 -163 OFFCURVE",
"-123 -153 OFFCURVE",
"-144 -136 CURVE",
"-158 -154 OFFCURVE",
"-162 -168 OFFCURVE",
"-162 -183 CURVE SMOOTH",
"-162 -214 OFFCURVE",
"-128 -231 OFFCURVE",
"-85 -231 CURVE SMOOTH",
"17 -231 OFFCURVE",
"122 -145 OFFCURVE",
"165 56 CURVE SMOOTH"
);
}
);
width = 337;
},
{
anchors = (
{
name = top;
position = "{302, 671}";
}
);
background = {
anchors = (
{
name = top;
position = "{303, 671}";
}
);
paths = (
{
closed = 1;
nodes = (
"342 409 LINE SMOOTH",
"362 497 OFFCURVE",
"382 583 OFFCURVE",
"389 586 CURVE",
"467 606 LINE",
"478 671 LINE",
"119 671 LINE",
"101 606 LINE",
"179 589 LINE",
"184 579 OFFCURVE",
"167 486 OFFCURVE",
"153 413 CURVE SMOOTH",
"62 -29 LINE SMOOTH",
"53 -74 OFFCURVE",
"32 -94 OFFCURVE",
"-6 -94 CURVE SMOOTH",
"-51 -94 OFFCURVE",
"-78 -74 OFFCURVE",
"-109 -46 CURVE",
"-150 -70 OFFCURVE",
"-182 -110 OFFCURVE",
"-182 -150 CURVE SMOOTH",
"-182 -200 OFFCURVE",
"-138 -233 OFFCURVE",
"-73 -233 CURVE SMOOTH",
"79 -233 OFFCURVE",
"250 -48 OFFCURVE",
"287 135 CURVE SMOOTH"
);
}
);
};
color = -1;
layerId = "24976ABE-9171-461B-B338-52EF76BD92C7";
paths = (
{
closed = 1;
nodes = (
"342 409 LINE SMOOTH",
"360 498 OFFCURVE",
"378 560 OFFCURVE",
"385 586 CURVE",
"464 606 LINE",
"474 671 LINE",
"121 671 LINE",
"102 606 LINE",
"181 589 LINE",
"176 557 OFFCURVE",
"166 486 OFFCURVE",
"152 413 CURVE SMOOTH",
"61 -29 LINE SMOOTH",
"51 -74 OFFCURVE",
"31 -94 OFFCURVE",
"-7 -94 CURVE SMOOTH",
"-53 -94 OFFCURVE",
"-79 -74 OFFCURVE",
"-110 -46 CURVE",
"-151 -70 OFFCURVE",
"-183 -110 OFFCURVE",
"-183 -150 CURVE SMOOTH",
"-183 -200 OFFCURVE",
"-139 -233 OFFCURVE",
"-74 -233 CURVE SMOOTH",
"78 -233 OFFCURVE",
"246 -59 OFFCURVE",
"286 135 CURVE SMOOTH"
);
}
);
width = 427;
},
{
anchors = (
{
name = top;
position = "{279, 671}";
}
);
background = {
anchors = (
{
name = top;
position = "{279, 671}";
}
);
paths = (
{
closed = 1;
nodes = (
"291 429 LINE SMOOTH",
"312 525 OFFCURVE",
"329 589 OFFCURVE",
"336 603 CURVE",
"411 620 LINE",
"419 671 LINE",
"129 671 LINE",
"115 620 LINE",
"192 603 LINE",
"192 588 OFFCURVE",
"181 523 OFFCURVE",
"162 431 CURVE SMOOTH",
"68 -14 LINE SMOOTH",
"51 -99 OFFCURVE",
"25 -128 OFFCURVE",
"-32 -128 CURVE SMOOTH",
"-72 -128 OFFCURVE",
"-104 -113 OFFCURVE",
"-129 -91 CURVE",
"-157 -112 OFFCURVE",
"-175 -138 OFFCURVE",
"-175 -166 CURVE SMOOTH",
"-175 -206 OFFCURVE",
"-136 -231 OFFCURVE",
"-83 -231 CURVE SMOOTH",
"45 -231 OFFCURVE",
"184 -91 OFFCURVE",
"222 96 CURVE SMOOTH"
);
}
);
};
color = -1;
layerId = "925D3525-5003-4FA1-BE98-2BABE6F3DA5C";
paths = (
{
closed = 1;
nodes = (
"291 430 LINE SMOOTH",
"312 526 OFFCURVE",
"329 589 OFFCURVE",
"336 602 CURVE",
"410 619 LINE",
"418 671 LINE",
"131 671 LINE",
"117 619 LINE",
"192 603 LINE",
"192 587 OFFCURVE",
"182 522 OFFCURVE",
"162 431 CURVE SMOOTH",
"67 -14 LINE SMOOTH",
"49 -98 OFFCURVE",
"24 -128 OFFCURVE",
"-33 -128 CURVE SMOOTH",
"-73 -128 OFFCURVE",
"-105 -113 OFFCURVE",
"-130 -90 CURVE",
"-158 -112 OFFCURVE",
"-176 -138 OFFCURVE",
"-176 -166 CURVE SMOOTH",
"-176 -207 OFFCURVE",
"-137 -232 OFFCURVE",
"-83 -232 CURVE SMOOTH",
"43 -232 OFFCURVE",
"182 -96 OFFCURVE",
"222 96 CURVE SMOOTH"
);
}
);
width = 377;
}
);
leftKerningGroup = J;
note = J;
rightKerningGroup = J;
unicode = 004A;
},
{
glyphname = K;
lastChange = "2020-06-19 12:07:49 +0000";
layers = (
{
anchors = (
{
name = bottom;
position = "{301, 0}";
},
{
name = top;
position = "{442, 671}";
}
);
background = {
anchors = (
{
name = bottom;
position = "{301, 0}";
},
{
name = top;
position = "{442, 671}";
}
);
paths = (
{
closed = 1;
nodes = (
"582 0 LINE",
"590 38 LINE",
"536 54 LINE",
"520 71 OFFCURVE",
"498 104 OFFCURVE",
"477 136 CURVE SMOOTH",
"310 369 LINE",
"309 343 LINE",
"657 621 LINE",
"720 632 LINE",
"726 671 LINE",
"513 671 LINE",
"504 634 LINE",
"570 618 LINE",
"283 374 LINE",
"218 355 LINE",
"210 319 LINE",
"264 319 LINE",
"409 106 LINE SMOOTH",
"424 87 OFFCURVE",
"438 64 OFFCURVE",
"447 48 CURVE",
"370 37 LINE",
"365 0 LINE"
);
},
{
closed = 1;
nodes = (
"230 0 LINE",
"239 37 LINE",
"168 51 LINE",
"168 70 OFFCURVE",
"170 93 OFFCURVE",
"195 213 CURVE SMOOTH",
"246 449 LINE SMOOTH",
"269 554 OFFCURVE",
"282 600 OFFCURVE",
"287 619 CURVE",
"359 634 LINE",
"365 671 LINE",
"153 671 LINE",
"143 634 LINE",
"208 619 LINE",
"208 600 OFFCURVE",
"200 557 OFFCURVE",
"178 449 CURVE SMOOTH",
"127 213 LINE SMOOTH",
"104 107 OFFCURVE",
"97 74 OFFCURVE",
"90 51 CURVE",
"19 37 LINE",
"14 0 LINE"
);
}
);
};
color = -1;
layerId = "D9A1C40A-2361-406B-8D3E-8FA7FBCB82BD";
paths = (
{
closed = 1;
nodes = (
"579 0 LINE",
"587 38 LINE",
"535 54 LINE",
"519 71 OFFCURVE",
"498 104 OFFCURVE",
"475 136 CURVE SMOOTH",
"313 369 LINE",
"309 343 LINE",
"657 621 LINE",
"720 632 LINE",
"726 671 LINE",
"515 671 LINE",
"505 634 LINE",
"570 618 LINE",
"283 374 LINE",
"218 355 LINE",
"210 319 LINE",
"263 319 LINE",
"409 106 LINE SMOOTH",
"423 86 OFFCURVE",
"438 64 OFFCURVE",
"447 48 CURVE",
"369 37 LINE",
"363 0 LINE"
);
},
{
closed = 1;
nodes = (
"226 0 LINE",
"237 37 LINE",
"166 51 LINE",
"168 70 OFFCURVE",
"170 93 OFFCURVE",
"195 213 CURVE SMOOTH",
"246 449 LINE SMOOTH",
"269 554 OFFCURVE",
"282 600 OFFCURVE",
"287 619 CURVE",
"359 634 LINE",
"365 671 LINE",
"153 671 LINE",
"143 634 LINE",
"208 619 LINE",
"208 600 OFFCURVE",
"201 557 OFFCURVE",
"178 449 CURVE SMOOTH",
"128 213 LINE SMOOTH",
"105 107 OFFCURVE",
"98 74 OFFCURVE",
"91 51 CURVE",
"21 37 LINE",
"15 0 LINE"
);
}
);
width = 639;
},
{
anchors = (
{
name = bottom;
position = "{343, 0}";
},
{
name = top;
position = "{485, 671}";
}
);
background = {
anchors = (
{
name = bottom;
position = "{344, 0}";
},
{
name = top;
position = "{486, 671}";
}
);
paths = (
{
closed = 1;
nodes = (
"760 0 LINE",
"774 66 LINE",
"715 73 LINE",
"710 82 OFFCURVE",
"699 95 OFFCURVE",
"651 173 CURVE SMOOTH",
"488 448 LINE",
"498 389 LINE",
"771 591 LINE",
"858 603 LINE",
"869 671 LINE",
"577 671 LINE",
"558 606 LINE",
"630 593 LINE",
"345 353 LINE",
"307 346 LINE",
"295 286 LINE",
"344 286 LINE",
"431 131 LINE SMOOTH",
"448 101 OFFCURVE",
"450 94 OFFCURVE",
"453 77 CURVE",
"398 65 LINE",
"386 0 LINE"
);
},
{
closed = 1;
nodes = (
"314 0 LINE",
"331 65 LINE",
"282 87 LINE",
"286 115 OFFCURVE",
"299 193 OFFCURVE",
"314 269 CURVE SMOOTH",
"344 409 LINE SMOOTH",
"362 494 OFFCURVE",
"381 563 OFFCURVE",
"389 586 CURVE",
"467 606 LINE",
"478 671 LINE",
"133 671 LINE",
"114 606 LINE",
"186 586 LINE",
"183 560 OFFCURVE",
"171 498 OFFCURVE",
"153 409 CURVE SMOOTH",
"123 269 LINE SMOOTH",
"105 182 OFFCURVE",
"85 106 OFFCURVE",
"79 87 CURVE",
"-2 65 LINE",
"-14 0 LINE"
);
}
);
};
color = -1;
layerId = "24976ABE-9171-461B-B338-52EF76BD92C7";
paths = (
{
closed = 1;
nodes = (
"759 0 LINE",
"773 66 LINE",
"714 73 LINE",
"709 82 OFFCURVE",
"698 95 OFFCURVE",
"650 173 CURVE SMOOTH",
"487 448 LINE",
"501 389 LINE",
"770 591 LINE",
"856 603 LINE",
"867 671 LINE",
"574 671 LINE",
"557 606 LINE",
"629 593 LINE",
"347 353 LINE",
"306 346 LINE",
"294 286 LINE",
"343 286 LINE",
"430 131 LINE SMOOTH",
"447 101 OFFCURVE",
"449 94 OFFCURVE",
"451 77 CURVE",
"395 65 LINE",
"385 0 LINE"
);
},
{
closed = 1;
nodes = (
"312 0 LINE",
"329 65 LINE",
"281 87 LINE",
"285 115 OFFCURVE",
"298 193 OFFCURVE",
"313 269 CURVE SMOOTH",
"343 409 LINE SMOOTH",
"361 494 OFFCURVE",
"379 563 OFFCURVE",
"387 586 CURVE",
"466 606 LINE",
"477 671 LINE",
"133 671 LINE",
"115 606 LINE",
"185 586 LINE",
"182 560 OFFCURVE",
"170 498 OFFCURVE",
"152 409 CURVE SMOOTH",
"122 269 LINE SMOOTH",
"104 182 OFFCURVE",
"83 106 OFFCURVE",
"78 87 CURVE",
"-1 65 LINE",
"-11 0 LINE"
);
}
);
width = 805;
},
{
anchors = (
{
name = bottom;
position = "{319, 0}";
},
{
name = top;
position = "{461, 671}";
}
);
background = {
anchors = (
{
name = bottom;
position = "{319, 0}";
},
{
name = top;
position = "{461, 671}";
}
);
paths = (
{
closed = 1;
nodes = (
"668 0 LINE",
"679 52 LINE",
"623 63 LINE",
"612 76 OFFCURVE",
"597 99 OFFCURVE",
"561 154 CURVE SMOOTH",
"396 409 LINE",
"400 366 LINE",
"711 605 LINE",
"786 618 LINE",
"794 671 LINE",
"542 671 LINE",
"528 620 LINE",
"597 606 LINE",
"312 363 LINE",
"260 351 LINE",
"249 302 LINE",
"301 302 LINE",
"418 119 LINE SMOOTH",
"433 94 OFFCURVE",
"441 79 OFFCURVE",
"447 62 CURVE",
"381 51 LINE",
"373 0 LINE"
);
},
{
closed = 1;
nodes = (
"269 0 LINE",
"282 51 LINE",
"222 69 LINE",
"224 93 OFFCURVE",
"232 143 OFFCURVE",
"252 240 CURVE SMOOTH",
"292 429 LINE SMOOTH",
"313 524 OFFCURVE",
"329 582 OFFCURVE",
"335 603 CURVE",
"410 620 LINE",
"418 671 LINE",
"140 671 LINE",
"126 620 LINE",
"194 603 LINE",
"192 580 OFFCURVE",
"183 527 OFFCURVE",
"163 429 CURVE SMOOTH",
"123 240 LINE SMOOTH",
"102 145 OFFCURVE",
"88 90 OFFCURVE",
"82 69 CURVE",
"5 51 LINE",
"-3 0 LINE"
);
}
);
};
color = -1;
layerId = "925D3525-5003-4FA1-BE98-2BABE6F3DA5C";
paths = (
{
closed = 1;
nodes = (
"667 0 LINE",
"679 53 LINE",
"623 63 LINE",
"611 77 OFFCURVE",
"597 99 OFFCURVE",
"561 154 CURVE SMOOTH",
"395 409 LINE",
"400 366 LINE",
"711 606 LINE",
"784 617 LINE",
"792 671 LINE",
"544 671 LINE",
"529 619 LINE",
"597 606 LINE",
"312 363 LINE",
"259 351 LINE",
"249 302 LINE",
"301 302 LINE",
"417 119 LINE SMOOTH",
"433 94 OFFCURVE",
"441 79 OFFCURVE",
"447 63 CURVE",
"379 51 LINE",
"371 0 LINE"
);
},
{
closed = 1;
nodes = (
"269 0 LINE",
"282 51 LINE",
"222 69 LINE",
"224 93 OFFCURVE",
"232 143 OFFCURVE",
"253 240 CURVE SMOOTH",
"293 430 LINE SMOOTH",
"312 525 OFFCURVE",
"329 582 OFFCURVE",
"335 602 CURVE",
"409 619 LINE",
"417 671 LINE",
"142 671 LINE",
"127 619 LINE",
"194 602 LINE",
"192 581 OFFCURVE",
"183 527 OFFCURVE",
"162 430 CURVE SMOOTH",
"122 240 LINE SMOOTH",
"102 145 OFFCURVE",
"88 90 OFFCURVE",
"82 69 CURVE",
"7 51 LINE",
"-1 0 LINE"
);
}
);
width = 718;
}
);
leftKerningGroup = H;
note = K;
rightKerningGroup = K;
unicode = 004B;
},
{
glyphname = L;
lastChange = "2020-06-19 12:07:49 +0000";
layers = (
{
anchors = (
{
name = bottom;
position = "{261, 0}";
},
{
name = center;
position = "{240, 346}";
},
{
name = dotacc;
position = "{402, 366}";
},
{
name = top;
position = "{264, 671}";
},
{
name = topright;
position = "{503, 671}";
}
);
background = {
anchors = (
{
name = bottom;
position = "{262, 0}";
},
{
name = center;
position = "{241, 346}";
},
{
name = dotacc;
position = "{404, 366}";
},
{
name = top;
position = "{265, 671}";
},
{
name = topright;
position = "{504, 671}";
}
);
paths = (
{
closed = 1;
nodes = (
"548 155 LINE",
"495 166 LINE",
"425 58 LINE",
"396 55 OFFCURVE",
"375 54 OFFCURVE",
"341 54 CURVE SMOOTH",
"232 54 LINE SMOOTH",
"210 54 OFFCURVE",
"189 56 OFFCURVE",
"173 57 CURVE",
"172 69 OFFCURVE",
"174 93 OFFCURVE",
"199 212 CURVE SMOOTH",
"250 449 LINE SMOOTH",
"272 554 OFFCURVE",
"286 598 OFFCURVE",
"291 619 CURVE",
"390 632 LINE",
"397 671 LINE",
"155 671 LINE",
"146 634 LINE",
"211 619 LINE",
"210 600 OFFCURVE",
"203 556 OFFCURVE",
"181 449 CURVE SMOOTH",
"130 212 LINE SMOOTH",
"107 108 OFFCURVE",
"100 74 OFFCURVE",
"93 51 CURVE",
"22 37 LINE",
"16 0 LINE",
"395 0 LINE",
"423 0 OFFCURVE",
"434 -2 OFFCURVE",
"472 -5 CURVE"
);
}
);
};
color = -1;
layerId = "D9A1C40A-2361-406B-8D3E-8FA7FBCB82BD";
paths = (
{
closed = 1;
nodes = (
"545 155 LINE",
"493 166 LINE",
"423 58 LINE",
"393 55 OFFCURVE",
"373 55 OFFCURVE",
"339 55 CURVE SMOOTH",
"230 55 LINE SMOOTH",
"207 55 OFFCURVE",
"187 56 OFFCURVE",
"169 57 CURVE",
"171 72 OFFCURVE",
"173 93 OFFCURVE",
"198 213 CURVE SMOOTH",
"248 449 LINE SMOOTH",
"271 554 OFFCURVE",
"285 599 OFFCURVE",
"290 619 CURVE",
"387 632 LINE",
"393 671 LINE",
"154 671 LINE",
"144 634 LINE",
"209 619 LINE",
"208 600 OFFCURVE",
"201 557 OFFCURVE",
"178 449 CURVE SMOOTH",
"128 213 LINE SMOOTH",
"105 107 OFFCURVE",
"97 74 OFFCURVE",
"90 51 CURVE",
"18 37 LINE",
"13 0 LINE",
"393 0 LINE",
"421 0 OFFCURVE",
"432 -2 OFFCURVE",
"470 -5 CURVE"
);
}
);
width = 563;
},
{
anchors = (
{
name = bottom;
position = "{302, 0}";
},
{
name = center;
position = "{259, 346}";
},
{
name = dotacc;
position = "{497, 366}";
},
{
name = top;
position = "{299, 671}";
},
{
name = topright;
position = "{538, 671}";
}
);
background = {
anchors = (
{
name = bottom;
position = "{303, 0}";
},
{
name = center;
position = "{261, 346}";
},
{
name = dotacc;
position = "{498, 366}";
},
{
name = top;
position = "{301, 671}";
},
{
name = topright;
position = "{539, 671}";
}
);
paths = (
{
closed = 1;
nodes = (
"647 216 LINE",
"575 235 LINE",
"475 104 LINE",
"464 101 OFFCURVE",
"459 96 OFFCURVE",
"393 96 CURVE SMOOTH",
"393 96 LINE SMOOTH",
"338 96 OFFCURVE",
"312 97 OFFCURVE",
"283 102 CURVE",
"285 115 OFFCURVE",
"298 193 OFFCURVE",
"314 269 CURVE SMOOTH",
"344 409 LINE SMOOTH",
"362 496 OFFCURVE",
"381 570 OFFCURVE",
"387 586 CURVE",
"486 603 LINE",
"496 671 LINE",
"131 671 LINE",
"112 606 LINE",
"184 586 LINE",
"181 560 OFFCURVE",
"169 498 OFFCURVE",
"151 409 CURVE SMOOTH",
"122 269 LINE SMOOTH",
"104 182 OFFCURVE",
"82 106 OFFCURVE",
"75 87 CURVE",
"-5 65 LINE",
"-15 0 LINE",
"317 0 LINE",
"359 0 OFFCURVE",
"480 -5 OFFCURVE",
"538 -9 CURVE"
);
}
);
};
color = -1;
layerId = "24976ABE-9171-461B-B338-52EF76BD92C7";
paths = (
{
closed = 1;
nodes = (
"646 216 LINE",
"574 235 LINE",
"472 102 LINE",
"461 98 OFFCURVE",
"435 96 OFFCURVE",
"403 96 CURVE SMOOTH",
"381 96 LINE SMOOTH",
"337 96 OFFCURVE",
"311 97 OFFCURVE",
"282 102 CURVE",
"283 115 OFFCURVE",
"297 193 OFFCURVE",
"313 269 CURVE SMOOTH",
"343 409 LINE SMOOTH",
"361 496 OFFCURVE",
"379 570 OFFCURVE",
"386 586 CURVE",
"485 603 LINE",
"496 671 LINE",
"130 671 LINE",
"113 606 LINE",
"183 586 LINE",
"179 560 OFFCURVE",
"168 498 OFFCURVE",
"150 409 CURVE SMOOTH",
"121 269 LINE SMOOTH",
"103 182 OFFCURVE",
"81 106 OFFCURVE",
"74 87 CURVE",
"-5 65 LINE",
"-15 0 LINE",
"315 0 LINE",
"358 0 OFFCURVE",
"456 -2 OFFCURVE",
"537 -9 CURVE"
);
}
);
width = 664;
},
{
anchors = (
{
name = bottom;
position = "{278, 0}";
},
{
name = center;
position = "{247, 346}";
},
{
name = dotacc;
position = "{447, 366}";
},
{
name = top;
position = "{279, 671}";
},
{
name = topright;
position = "{518, 671}";
}
);
background = {
anchors = (
{
name = bottom;
position = "{278, 0}";
},
{
name = center;
position = "{247, 346}";
},
{
name = dotacc;
position = "{447, 366}";
},
{
name = top;
position = "{279, 671}";
},
{
name = topright;
position = "{518, 671}";
}
);
paths = (
{
closed = 1;
nodes = (
"593 185 LINE",
"531 201 LINE",
"447 81 LINE",
"426 78 OFFCURVE",
"414 75 OFFCURVE",
"363 75 CURVE SMOOTH",
"309 75 LINE SMOOTH",
"270 75 OFFCURVE",
"247 77 OFFCURVE",
"224 80 CURVE",
"224 93 OFFCURVE",
"232 143 OFFCURVE",
"253 240 CURVE SMOOTH",
"293 430 LINE SMOOTH",
"313 525 OFFCURVE",
"329 584 OFFCURVE",
"336 602 CURVE",
"434 617 LINE",
"442 671 LINE",
"139 671 LINE",
"126 619 LINE",
"193 602 LINE",
"192 581 OFFCURVE",
"183 527 OFFCURVE",
"162 430 CURVE SMOOTH",
"122 240 LINE SMOOTH",
"102 145 OFFCURVE",
"87 90 OFFCURVE",
"80 69 CURVE",
"5 51 LINE",
"-3 0 LINE",
"352 0 LINE",
"386 0 OFFCURVE",
"453 -3 OFFCURVE",
"501 -7 CURVE"
);
}
);
};
color = -1;
layerId = "925D3525-5003-4FA1-BE98-2BABE6F3DA5C";
paths = (
{
closed = 1;
nodes = (
"593 185 LINE",
"531 201 LINE",
"447 81 LINE",
"426 78 OFFCURVE",
"414 75 OFFCURVE",
"363 75 CURVE SMOOTH",
"309 75 LINE SMOOTH",
"270 75 OFFCURVE",
"247 77 OFFCURVE",
"224 80 CURVE",
"224 93 OFFCURVE",
"232 143 OFFCURVE",
"253 240 CURVE SMOOTH",
"293 430 LINE SMOOTH",
"313 525 OFFCURVE",
"329 584 OFFCURVE",
"336 602 CURVE",
"434 617 LINE",
"442 671 LINE",
"141 671 LINE",
"126 619 LINE",
"193 602 LINE",
"192 581 OFFCURVE",
"183 527 OFFCURVE",
"162 430 CURVE SMOOTH",
"122 240 LINE SMOOTH",
"102 145 OFFCURVE",
"87 90 OFFCURVE",
"80 69 CURVE",
"5 51 LINE",
"-3 0 LINE",
"352 0 LINE",
"386 0 OFFCURVE",
"453 -3 OFFCURVE",
"501 -7 CURVE"
);
}
);
width = 611;
}
);
leftKerningGroup = H;
note = L;
rightKerningGroup = L;
unicode = 004C;
},
{
glyphname = M;
lastChange = "2020-06-19 12:07:49 +0000";
layers = (
{
anchors = (
{
name = bottom;
position = "{419, 0}";
},
{
name = top;
position = "{562, 671}";
}
);
background = {
anchors = (
{
name = bottom;
position = "{1448, 0}";
},
{
name = top;
position = "{1591, 671}";
}
);
paths = (
{
closed = 1;
nodes = (
"1181 634 LINE",
"1247 619 LINE",
"1239 576 OFFCURVE",
"1224 509 OFFCURVE",
"1214 465 CURVE SMOOTH",
"1161 232 LINE SMOOTH",
"1136 119 OFFCURVE",
"1122 67 OFFCURVE",
"1121 51 CURVE",
"1041 37 LINE",
"1035 0 LINE",
"1247 0 LINE",
"1257 37 LINE",
"1183 51 LINE",
"1183 59 OFFCURVE",
"1190 104 OFFCURVE",
"1221 249 CURVE SMOOTH",
"1304 638 LINE",
"1297 638 LINE",
"1430 -3 LINE",
"1455 -3 LINE",
"1871 638 LINE",
"1851 638 LINE",
"1763 211 LINE SMOOTH",
"1734 67 OFFCURVE",
"1738 67 OFFCURVE",
"1734 50 CURVE",
"1663 37 LINE",
"1657 0 LINE",
"1864 0 LINE",
"1874 37 LINE",
"1808 50 LINE",
"1810 71 OFFCURVE",
"1824 125 OFFCURVE",
"1847 248 CURVE SMOOTH",
"1887 466 LINE SMOOTH",
"1897 525 OFFCURVE",
"1915 608 OFFCURVE",
"1921 621 CURVE",
"1993 634 LINE",
"1998 671 LINE",
"1834 671 LINE",
"1471 105 LINE",
"1483 105 LINE",
"1367 671 LINE",
"1191 671 LINE"
);
},
{
closed = 1;
nodes = (
"153 634 LINE",
"217 619 LINE",
"211 587 OFFCURVE",
"198 517 OFFCURVE",
"185 462 CURVE SMOOTH",
"133 232 LINE SMOOTH",
"106 118 OFFCURVE",
"95 69 OFFCURVE",
"89 51 CURVE",
"9 37 LINE",
"5 0 LINE",
"217 0 LINE",
"226 37 LINE",
"153 51 LINE",
"155 67 OFFCURVE",
"166 121 OFFCURVE",
"194 254 CURVE SMOOTH",
"275 638 LINE",
"265 638 LINE",
"402 -3 LINE",
"426 -3 LINE",
"841 638 LINE",
"823 638 LINE",
"737 223 LINE SMOOTH",
"713 105 OFFCURVE",
"710 88 OFFCURVE",
"701 50 CURVE",
"630 37 LINE",
"625 0 LINE",
"834 0 LINE",
"843 37 LINE",
"778 50 LINE",
"783 79 OFFCURVE",
"792 125 OFFCURVE",
"816 248 CURVE",
"858 461 LINE SMOOTH",
"870 519 OFFCURVE",
"885 593 OFFCURVE",
"893 621 CURVE",
"963 634 LINE",
"968 671 LINE",
"810 671 LINE",
"445 105 LINE",
"458 105 LINE",
"338 671 LINE",
"162 671 LINE"
);
}
);
};
color = -1;
layerId = "D9A1C40A-2361-406B-8D3E-8FA7FBCB82BD";
paths = (
{
closed = 1;
nodes = (
"153 634 LINE",
"218 619 LINE",
"210 576 OFFCURVE",
"194 509 OFFCURVE",
"185 465 CURVE SMOOTH",
"133 232 LINE SMOOTH",
"106 119 OFFCURVE",
"94 67 OFFCURVE",
"90 51 CURVE",
"10 37 LINE",
"5 0 LINE",
"217 0 LINE",
"227 37 LINE",
"154 51 LINE",
"154 59 OFFCURVE",
"162 104 OFFCURVE",
"193 249 CURVE SMOOTH",
"275 638 LINE",
"267 638 LINE",
"401 -3 LINE",
"426 -3 LINE",
"842 638 LINE",
"823 638 LINE",
"735 211 LINE SMOOTH",
"721 146 OFFCURVE",
"705 67 OFFCURVE",
"701 50 CURVE",
"630 37 LINE",
"624 0 LINE",
"834 0 LINE",
"845 37 LINE",
"778 50 LINE",
"782 71 OFFCURVE",
"790 125 OFFCURVE",
"810 225 CURVE SMOOTH",
"859 466 LINE SMOOTH",
"871 525 OFFCURVE",
"888 608 OFFCURVE",
"894 621 CURVE",
"966 634 LINE",
"971 671 LINE",
"807 671 LINE",
"443 105 LINE",
"455 105 LINE",
"338 671 LINE",
"163 671 LINE"
);
}
);
width = 951;
},
{
anchors = (
{
name = bottom;
position = "{429, 0}";
},
{
name = top;
position = "{571, 671}";
}
);
background = {
anchors = (
{
name = bottom;
position = "{430, 0}";
},
{
name = top;
position = "{573, 671}";
}
);
paths = (
{
closed = 1;
nodes = (
"121 606 LINE",
"191 584 LINE",
"192 590 OFFCURVE",
"191 574 OFFCURVE",
"162 445 CURVE SMOOTH",
"114 232 LINE SMOOTH",
"103 177 OFFCURVE",
"86 109 OFFCURVE",
"74 87 CURVE",
"-11 65 LINE",
"-23 0 LINE",
"248 0 LINE",
"266 65 LINE",
"192 87 LINE",
"197 120 OFFCURVE",
"208 189 OFFCURVE",
"222 254 CURVE SMOOTH",
"302 638 LINE",
"202 638 LINE",
"386 -3 LINE",
"478 -3 LINE",
"885 638 LINE",
"817 638 LINE",
"750 301 LINE SMOOTH",
"736 230 OFFCURVE",
"704 109 OFFCURVE",
"702 87 CURVE",
"621 65 LINE",
"610 0 LINE",
"965 0 LINE",
"984 65 LINE",
"913 87 LINE",
"918 115 OFFCURVE",
"922 170 OFFCURVE",
"935 255 CURVE SMOOTH",
"966 431 LINE SMOOTH",
"984 541 OFFCURVE",
"990 559 OFFCURVE",
"993 585 CURVE",
"1072 606 LINE",
"1085 671 LINE",
"800 671 LINE",
"494 190 LINE",
"537 190 LINE",
"398 671 LINE",
"139 671 LINE"
);
}
);
};
color = -1;
layerId = "24976ABE-9171-461B-B338-52EF76BD92C7";
paths = (
{
closed = 1;
nodes = (
"120 606 LINE",
"190 584 LINE",
"187 567 OFFCURVE",
"178 520 OFFCURVE",
"161 445 CURVE SMOOTH",
"113 232 LINE SMOOTH",
"101 177 OFFCURVE",
"85 109 OFFCURVE",
"78 87 CURVE",
"-8 65 LINE",
"-18 0 LINE",
"250 0 LINE",
"267 65 LINE",
"191 87 LINE",
"195 120 OFFCURVE",
"207 189 OFFCURVE",
"221 254 CURVE SMOOTH",
"301 638 LINE",
"201 638 LINE",
"385 -3 LINE",
"477 -3 LINE",
"883 638 LINE",
"816 638 LINE",
"744 278 LINE SMOOTH",
"730 207 OFFCURVE",
"710 120 OFFCURVE",
"703 87 CURVE",
"624 65 LINE",
"614 0 LINE",
"962 0 LINE",
"979 65 LINE",
"910 87 LINE",
"914 115 OFFCURVE",
"919 170 OFFCURVE",
"934 255 CURVE SMOOTH",
"965 431 LINE SMOOTH",
"984 541 OFFCURVE",
"989 559 OFFCURVE",
"992 585 CURVE",
"1071 606 LINE",
"1081 671 LINE",
"799 671 LINE",
"493 190 LINE",
"536 190 LINE",
"397 671 LINE",
"137 671 LINE"
);
}
);
width = 1054;
},
{
anchors = (
{
name = bottom;
position = "{423, 0}";
},
{
name = top;
position = "{566, 671}";
}
);
background = {
anchors = (
{
name = bottom;
position = "{423, 0}";
},
{
name = top;
position = "{566, 671}";
}
);
paths = (
{
closed = 1;
nodes = (
"135 619 LINE",
"202 602 LINE",
"199 583 OFFCURVE",
"191 542 OFFCURVE",
"171 455 CURVE SMOOTH",
"121 232 LINE SMOOTH",
"103 149 OFFCURVE",
"88 88 OFFCURVE",
"81 69 CURVE",
"-1 51 LINE",
"-9 0 LINE",
"232 0 LINE",
"246 51 LINE",
"171 69 LINE",
"174 89 OFFCURVE",
"183 146 OFFCURVE",
"206 251 CURVE SMOOTH",
"287 638 LINE",
"234 638 LINE",
"392 -3 LINE",
"450 -3 LINE",
"862 638 LINE",
"818 638 LINE",
"741 256 LINE SMOOTH",
"719 149 OFFCURVE",
"705 88 OFFCURVE",
"702 69 CURVE",
"626 51 LINE",
"617 0 LINE",
"898 0 LINE",
"913 51 LINE",
"845 69 LINE",
"848 94 OFFCURVE",
"857 147 OFFCURVE",
"875 251 CURVE SMOOTH",
"910 449 LINE SMOOTH",
"925 533 OFFCURVE",
"936 583 OFFCURVE",
"942 603 CURVE",
"1016 619 LINE",
"1025 671 LINE",
"801 671 LINE",
"466 147 LINE",
"494 147 LINE",
"367 671 LINE",
"149 671 LINE"
);
}
);
};
color = -1;
layerId = "925D3525-5003-4FA1-BE98-2BABE6F3DA5C";
paths = (
{
closed = 1;
nodes = (
"135 619 LINE",
"202 602 LINE",
"199 583 OFFCURVE",
"191 542 OFFCURVE",
"171 455 CURVE SMOOTH",
"121 232 LINE SMOOTH",
"103 149 OFFCURVE",
"88 88 OFFCURVE",
"81 69 CURVE",
"-1 51 LINE",
"-9 0 LINE",
"231 0 LINE",
"246 51 LINE",
"171 69 LINE",
"174 89 OFFCURVE",
"185 146 OFFCURVE",
"207 251 CURVE SMOOTH",
"287 638 LINE",
"234 638 LINE",
"392 -3 LINE",
"450 -3 LINE",
"862 638 LINE",
"818 638 LINE",
"741 256 LINE SMOOTH",
"719 149 OFFCURVE",
"705 88 OFFCURVE",
"702 69 CURVE",
"626 51 LINE",
"618 0 LINE",
"897 0 LINE",
"912 51 LINE",
"845 69 LINE",
"848 94 OFFCURVE",
"857 147 OFFCURVE",
"875 251 CURVE SMOOTH",
"910 449 LINE SMOOTH",
"925 533 OFFCURVE",
"936 583 OFFCURVE",
"942 603 CURVE",
"1016 619 LINE",
"1024 671 LINE",
"801 671 LINE",
"466 147 LINE",
"494 147 LINE",
"367 671 LINE",
"150 671 LINE"
);
}
);
width = 1000;
}
);
leftKerningGroup = H;
note = M;
rightKerningGroup = H;
unicode = 004D;
},
{
glyphname = N;
lastChange = "2020-06-19 12:07:49 +0000";
layers = (
{
anchors = (
{
name = bottom;
position = "{329, 0}";
},
{
name = top;
position = "{472, 671}";
}
);
background = {
paths = (
{
closed = 1;
nodes = (
"554 145 LINE",
"295 671 LINE",
"154 671 LINE",
"144 634 LINE",
"209 619 LINE",
"208 611 OFFCURVE",
"201 560 OFFCURVE",
"178 450 CURVE SMOOTH",
"136 250 LINE SMOOTH",
"112 137 OFFCURVE",
"96 69 OFFCURVE",
"90 51 CURVE",
"18 37 LINE",
"13 0 LINE",
"215 0 LINE",
"225 37 LINE",
"152 51 LINE",
"157 85 OFFCURVE",
"177 194 OFFCURVE",
"189 246 CURVE SMOOTH",
"258 573 LINE",
"250 573 LINE",
"534 -5 LINE",
"575 -5 LINE",
"585 49 OFFCURVE",
"595 102 OFFCURVE",
"603 139 CURVE SMOOTH",
"666 435 LINE SMOOTH",
"695 568 OFFCURVE",
"703 598 OFFCURVE",
"709 619 CURVE",
"781 634 LINE",
"786 671 LINE",
"585 671 LINE",
"575 634 LINE",
"648 619 LINE",
"646 601 OFFCURVE",
"640 563 OFFCURVE",
"613 435 CURVE SMOOTH",
"551 145 LINE"
);
}
);
};
color = 3;
layerId = "D9A1C40A-2361-406B-8D3E-8FA7FBCB82BD";
paths = (
{
closed = 1;
nodes = (
"554 134 LINE",
"295 671 LINE",
"154 671 LINE",
"144 634 LINE",
"209 619 LINE",
"208 611 OFFCURVE",
"201 560 OFFCURVE",
"178 450 CURVE SMOOTH",
"136 250 LINE SMOOTH",
"112 137 OFFCURVE",
"96 69 OFFCURVE",
"90 51 CURVE",
"18 37 LINE",
"13 0 LINE",
"215 0 LINE",
"225 37 LINE",
"152 51 LINE",
"157 85 OFFCURVE",
"177 194 OFFCURVE",
"189 246 CURVE SMOOTH",
"261 584 LINE",
"250 584 LINE",
"534 -5 LINE",
"575 -5 LINE",
"585 49 OFFCURVE",
"595 102 OFFCURVE",
"603 139 CURVE SMOOTH",
"666 435 LINE SMOOTH",
"695 568 OFFCURVE",
"703 598 OFFCURVE",
"709 619 CURVE",
"781 634 LINE",
"786 671 LINE",
"585 671 LINE",
"575 634 LINE",
"648 619 LINE",
"646 601 OFFCURVE",
"640 563 OFFCURVE",
"613 435 CURVE SMOOTH",
"547 129 LINE"
);
}
);
width = 760;
},
{
anchors = (
{
name = bottom;
position = "{354, 0}";
},
{
name = top;
position = "{497, 671}";
}
);
background = {
anchors = (
{
name = bottom;
position = "{355, 0}";
},
{
name = top;
position = "{498, 671}";
}
);
paths = (
{
closed = 1;
nodes = (
"654 240 LINE",
"321 671 LINE",
"131 671 LINE",
"113 606 LINE",
"183 584 LINE",
"179 551 OFFCURVE",
"170 490 OFFCURVE",
"161 450 CURVE SMOOTH",
"134 320 LINE SMOOTH",
"110 205 OFFCURVE",
"87 118 OFFCURVE",
"78 87 CURVE",
"-2 65 LINE",
"-13 0 LINE",
"251 0 LINE",
"270 65 LINE",
"194 87 LINE",
"195 110 OFFCURVE",
"203 170 OFFCURVE",
"235 322 CURVE SMOOTH",
"274 505 LINE",
"197 505 LINE",
"574 -7 LINE",
"647 -7 LINE",
"658 47 OFFCURVE",
"669 97 OFFCURVE",
"688 182 CURVE SMOOTH",
"727 366 LINE SMOOTH",
"744 451 OFFCURVE",
"766 546 OFFCURVE",
"781 584 CURVE",
"861 606 LINE",
"871 671 LINE",
"611 671 LINE",
"592 606 LINE",
"669 584 LINE",
"666 545 OFFCURVE",
"653 469 OFFCURVE",
"631 366 CURVE SMOOTH",
"605 240 LINE"
);
}
);
};
color = -1;
layerId = "24976ABE-9171-461B-B338-52EF76BD92C7";
paths = (
{
closed = 1;
nodes = (
"647 240 LINE",
"320 671 LINE",
"129 671 LINE",
"112 606 LINE",
"182 584 LINE",
"178 551 OFFCURVE",
"169 490 OFFCURVE",
"160 450 CURVE SMOOTH",
"133 320 LINE SMOOTH",
"109 205 OFFCURVE",
"87 118 OFFCURVE",
"79 87 CURVE",
"-1 65 LINE",
"-11 0 LINE",
"250 0 LINE",
"267 65 LINE",
"191 87 LINE",
"193 110 OFFCURVE",
"201 170 OFFCURVE",
"233 322 CURVE SMOOTH",
"272 505 LINE",
"201 505 LINE",
"573 -7 LINE",
"646 -7 LINE",
"657 47 OFFCURVE",
"667 97 OFFCURVE",
"687 182 CURVE SMOOTH",
"726 366 LINE SMOOTH",
"743 451 OFFCURVE",
"765 546 OFFCURVE",
"779 584 CURVE",
"858 606 LINE",
"869 671 LINE",
"608 671 LINE",
"591 606 LINE",
"667 584 LINE",
"665 545 OFFCURVE",
"651 469 OFFCURVE",
"630 366 CURVE SMOOTH",
"603 240 LINE"
);
}
);
width = 822;
},
{
anchors = (
{
name = bottom;
position = "{339, 0}";
},
{
name = top;
position = "{482, 671}";
}
);
background = {
anchors = (
{
name = bottom;
position = "{339, 0}";
},
{
name = top;
position = "{482, 671}";
}
);
paths = (
{
closed = 1;
nodes = (
"601 193 LINE",
"306 671 LINE",
"140 671 LINE",
"126 620 LINE",
"193 602 LINE",
"192 581 OFFCURVE",
"183 525 OFFCURVE",
"167 450 CURVE SMOOTH",
"132 285 LINE SMOOTH",
"108 170 OFFCURVE",
"89 93 OFFCURVE",
"82 69 CURVE",
"6 51 LINE",
"-2 0 LINE",
"232 0 LINE",
"246 51 LINE",
"171 69 LINE",
"173 97 OFFCURVE",
"188 182 OFFCURVE",
"210 284 CURVE SMOOTH",
"264 539 LINE",
"221 539 LINE",
"550 -5 LINE",
"607 -5 LINE",
"618 49 OFFCURVE",
"629 99 OFFCURVE",
"642 159 CURVE SMOOTH",
"693 400 LINE SMOOTH",
"716 510 OFFCURVE",
"731 572 OFFCURVE",
"741 602 CURVE",
"816 620 LINE",
"824 671 LINE",
"594 671 LINE",
"580 620 LINE",
"655 602 LINE",
"652 573 OFFCURVE",
"643 516 OFFCURVE",
"619 400 CURVE SMOOTH",
"574 193 LINE"
);
}
);
};
color = -1;
layerId = "925D3525-5003-4FA1-BE98-2BABE6F3DA5C";
paths = (
{
closed = 1;
nodes = (
"597 193 LINE",
"305 671 LINE",
"141 671 LINE",
"126 619 LINE",
"193 602 LINE",
"192 582 OFFCURVE",
"183 525 OFFCURVE",
"167 450 CURVE SMOOTH",
"131 286 LINE SMOOTH",
"106 170 OFFCURVE",
"89 94 OFFCURVE",
"82 69 CURVE",
"7 51 LINE",
"-1 0 LINE",
"231 0 LINE",
"245 51 LINE",
"169 69 LINE",
"174 97 OFFCURVE",
"187 182 OFFCURVE",
"209 283 CURVE SMOOTH",
"264 539 LINE",
"226 539 LINE",
"550 -6 LINE",
"607 -6 LINE",
"618 48 OFFCURVE",
"629 98 OFFCURVE",
"641 160 CURVE SMOOTH",
"693 400 LINE SMOOTH",
"717 510 OFFCURVE",
"731 573 OFFCURVE",
"741 602 CURVE",
"815 619 LINE",
"823 671 LINE",
"594 671 LINE",
"579 619 LINE",
"655 602 LINE",
"653 574 OFFCURVE",
"643 515 OFFCURVE",
"618 400 CURVE SMOOTH",
"575 193 LINE"
);
}
);
width = 785;
}
);
leftKerningGroup = H;
note = N;
rightKerningGroup = N;
unicode = 004E;
},
{
glyphname = Eng;
lastChange = "2020-06-19 12:07:49 +0000";
layers = (
{
background = {
paths = (
{
closed = 1;
nodes = (
"554 138 LINE",
"295 671 LINE",
"154 671 LINE",
"144 634 LINE",
"209 619 LINE",
"208 611 OFFCURVE",
"201 560 OFFCURVE",
"178 450 CURVE SMOOTH",
"136 250 LINE SMOOTH",
"112 137 OFFCURVE",
"96 69 OFFCURVE",
"90 51 CURVE",
"18 37 LINE",
"13 0 LINE",
"215 0 LINE",
"225 37 LINE",
"152 51 LINE",
"157 85 OFFCURVE",
"177 194 OFFCURVE",
"189 246 CURVE SMOOTH",
"261 584 LINE",
"250 579 LINE",
"534 -5 LINE",
"575 -5 LINE",
"585 49 OFFCURVE",
"595 102 OFFCURVE",
"603 139 CURVE SMOOTH",
"666 435 LINE SMOOTH",
"695 568 OFFCURVE",
"703 598 OFFCURVE",
"709 619 CURVE",
"781 634 LINE",
"786 671 LINE",
"585 671 LINE",
"575 634 LINE",
"648 619 LINE",
"646 601 OFFCURVE",
"640 563 OFFCURVE",
"613 435 CURVE SMOOTH",
"547 129 LINE"
);
}
);
};
color = 3;
layerId = "D9A1C40A-2361-406B-8D3E-8FA7FBCB82BD";
paths = (
{
closed = 1;
nodes = (
"521 16 LINE SMOOTH",
"493 -123 OFFCURVE",
"443 -163 OFFCURVE",
"367 -163 CURVE SMOOTH",
"333 -163 OFFCURVE",
"297 -153 OFFCURVE",
"277 -136 CURVE",
"262 -154 OFFCURVE",
"258 -168 OFFCURVE",
"258 -183 CURVE SMOOTH",
"258 -214 OFFCURVE",
"293 -231 OFFCURVE",
"334 -231 CURVE SMOOTH",
"453 -231 OFFCURVE",
"545 -133 OFFCURVE",
"585 53 CURVE SMOOTH",
"666 435 LINE SMOOTH",
"695 568 OFFCURVE",
"703 598 OFFCURVE",
"709 619 CURVE",
"781 634 LINE",
"786 671 LINE",
"585 671 LINE",
"575 634 LINE",
"648 619 LINE",
"646 601 OFFCURVE",
"640 562 OFFCURVE",
"613 435 CURVE SMOOTH",
"547 129 LINE",
"554 134 LINE",
"295 671 LINE",
"154 671 LINE",
"144 634 LINE",
"209 619 LINE",
"208 611 OFFCURVE",
"201 560 OFFCURVE",
"178 450 CURVE SMOOTH",
"136 250 LINE SMOOTH",
"112 137 OFFCURVE",
"96 69 OFFCURVE",
"90 51 CURVE",
"18 37 LINE",
"13 0 LINE",
"215 0 LINE",
"225 37 LINE",
"152 51 LINE",
"157 85 OFFCURVE",
"177 194 OFFCURVE",
"189 246 CURVE SMOOTH",
"261 584 LINE",
"250 584 LINE",
"534 -5 LINE",
"533 71 LINE"
);
}
);
width = 760;
},
{
background = {
paths = (
{
closed = 1;
nodes = (
"1585 21 LINE SMOOTH",
"1562 -77 OFFCURVE",
"1519 -94 OFFCURVE",
"1487 -94 CURVE SMOOTH",
"1437 -94 OFFCURVE",
"1408 -74 OFFCURVE",
"1378 -46 CURVE",
"1336 -70 OFFCURVE",
"1304 -110 OFFCURVE",
"1304 -150 CURVE SMOOTH",
"1304 -200 OFFCURVE",
"1347 -233 OFFCURVE",
"1413 -233 CURVE SMOOTH",
"1561 -233 OFFCURVE",
"1669 -47 OFFCURVE",
"1701 104 CURVE SMOOTH",
"1757 366 LINE SMOOTH",
"1775 451 OFFCURVE",
"1795 546 OFFCURVE",
"1810 584 CURVE",
"1890 606 LINE",
"1901 671 LINE",
"1641 671 LINE",
"1622 606 LINE",
"1698 584 LINE",
"1696 545 OFFCURVE",
"1682 469 OFFCURVE",
"1661 366 CURVE SMOOTH",
"1634 240 LINE",
"1683 240 LINE",
"1351 671 LINE",
"1161 671 LINE",
"1143 606 LINE",
"1209 584 LINE",
"1215 587 OFFCURVE",
"1200 491 OFFCURVE",
"1191 450 CURVE SMOOTH",
"1163 320 LINE SMOOTH",
"1139 205 OFFCURVE",
"1117 118 OFFCURVE",
"1107 87 CURVE",
"1027 65 LINE",
"1019 0 LINE",
"1281 0 LINE",
"1299 65 LINE",
"1224 87 LINE",
"1225 110 OFFCURVE",
"1233 170 OFFCURVE",
"1265 322 CURVE SMOOTH",
"1304 505 LINE",
"1226 505 LINE",
"1603 -7 LINE",
"1598 73 LINE"
);
},
{
closed = 1;
nodes = (
"648 240 LINE",
"321 671 LINE",
"130 671 LINE",
"113 606 LINE",
"183 584 LINE",
"179 551 OFFCURVE",
"170 490 OFFCURVE",
"161 450 CURVE SMOOTH",
"134 320 LINE SMOOTH",
"110 205 OFFCURVE",
"88 118 OFFCURVE",
"80 87 CURVE",
"0 65 LINE",
"-10 0 LINE",
"253 0 LINE",
"270 65 LINE",
"193 87 LINE",
"195 110 OFFCURVE",
"203 170 OFFCURVE",
"235 322 CURVE SMOOTH",
"274 505 LINE",
"202 505 LINE",
"574 -7 LINE",
"647 -7 LINE",
"658 47 OFFCURVE",
"669 97 OFFCURVE",
"688 182 CURVE SMOOTH",
"727 366 LINE SMOOTH",
"744 451 OFFCURVE",
"766 546 OFFCURVE",
"781 584 CURVE",
"859 606 LINE",
"870 671 LINE",
"609 671 LINE",
"592 606 LINE",
"669 584 LINE",
"666 545 OFFCURVE",
"653 469 OFFCURVE",
"631 366 CURVE SMOOTH",
"605 240 LINE"
);
}
);
};
color = -1;
layerId = "24976ABE-9171-461B-B338-52EF76BD92C7";
paths = (
{
closed = 1;
nodes = (
"554 21 LINE SMOOTH",
"531 -77 OFFCURVE",
"489 -94 OFFCURVE",
"457 -94 CURVE SMOOTH",
"407 -94 OFFCURVE",
"378 -74 OFFCURVE",
"349 -46 CURVE",
"306 -70 OFFCURVE",
"274 -110 OFFCURVE",
"274 -150 CURVE SMOOTH",
"274 -200 OFFCURVE",
"318 -233 OFFCURVE",
"383 -233 CURVE SMOOTH",
"531 -233 OFFCURVE",
"638 -47 OFFCURVE",
"670 104 CURVE SMOOTH",
"726 366 LINE SMOOTH",
"744 451 OFFCURVE",
"765 546 OFFCURVE",
"779 584 CURVE",
"859 606 LINE",
"870 671 LINE",
"610 671 LINE",
"591 606 LINE",
"667 584 LINE",
"665 545 OFFCURVE",
"651 469 OFFCURVE",
"630 366 CURVE SMOOTH",
"603 240 LINE",
"647 240 LINE",
"320 671 LINE",
"129 671 LINE",
"112 606 LINE",
"182 584 LINE",
"178 551 OFFCURVE",
"168 490 OFFCURVE",
"160 450 CURVE SMOOTH",
"133 320 LINE SMOOTH",
"109 205 OFFCURVE",
"87 118 OFFCURVE",
"79 87 CURVE",
"-1 65 LINE",
"-11 0 LINE",
"250 0 LINE",
"267 65 LINE",
"191 87 LINE",
"193 110 OFFCURVE",
"201 170 OFFCURVE",
"233 322 CURVE SMOOTH",
"272 505 LINE",
"201 505 LINE",
"573 -7 LINE",
"567 73 LINE"
);
}
);
width = 822;
},
{
background = {
paths = (
{
closed = 1;
nodes = (
"1449 18 LINE SMOOTH",
"1422 -98 OFFCURVE",
"1377 -128 OFFCURVE",
"1322 -128 CURVE SMOOTH",
"1281 -128 OFFCURVE",
"1248 -113 OFFCURVE",
"1223 -90 CURVE",
"1194 -112 OFFCURVE",
"1177 -138 OFFCURVE",
"1177 -166 CURVE SMOOTH",
"1177 -207 OFFCURVE",
"1216 -232 OFFCURVE",
"1270 -232 CURVE SMOOTH",
"1399 -232 OFFCURVE",
"1503 -90 OFFCURVE",
"1538 78 CURVE SMOOTH",
"1607 400 LINE SMOOTH",
"1630 510 OFFCURVE",
"1646 573 OFFCURVE",
"1655 602 CURVE",
"1730 619 LINE",
"1738 671 LINE",
"1509 671 LINE",
"1494 619 LINE",
"1569 602 LINE",
"1567 574 OFFCURVE",
"1557 515 OFFCURVE",
"1533 400 CURVE SMOOTH",
"1489 193 LINE",
"1515 193 LINE",
"1219 671 LINE",
"1054 671 LINE",
"1040 619 LINE",
"1106 602 LINE",
"1107 594 OFFCURVE",
"1097 526 OFFCURVE",
"1081 450 CURVE SMOOTH",
"1047 286 LINE SMOOTH",
"1023 170 OFFCURVE",
"1003 94 OFFCURVE",
"997 69 CURVE",
"920 51 LINE",
"913 0 LINE",
"1146 0 LINE",
"1160 51 LINE",
"1085 69 LINE",
"1088 97 OFFCURVE",
"1102 182 OFFCURVE",
"1123 283 CURVE SMOOTH",
"1178 539 LINE",
"1136 539 LINE",
"1464 -6 LINE",
"1461 66 LINE"
);
},
{
closed = 1;
nodes = (
"597 193 LINE",
"305 671 LINE",
"141 671 LINE",
"126 619 LINE",
"193 602 LINE",
"192 582 OFFCURVE",
"183 525 OFFCURVE",
"167 450 CURVE SMOOTH",
"131 286 LINE SMOOTH",
"106 170 OFFCURVE",
"89 94 OFFCURVE",
"82 69 CURVE",
"7 51 LINE",
"-1 0 LINE",
"231 0 LINE",
"245 51 LINE",
"169 69 LINE",
"174 97 OFFCURVE",
"187 182 OFFCURVE",
"209 283 CURVE SMOOTH",
"264 539 LINE",
"226 539 LINE",
"550 -6 LINE",
"607 -6 LINE",
"618 48 OFFCURVE",
"629 98 OFFCURVE",
"641 160 CURVE SMOOTH",
"693 400 LINE SMOOTH",
"717 510 OFFCURVE",
"731 573 OFFCURVE",
"741 602 CURVE",
"815 619 LINE",
"823 671 LINE",
"594 671 LINE",
"579 619 LINE",
"655 602 LINE",
"653 574 OFFCURVE",
"643 515 OFFCURVE",
"618 400 CURVE SMOOTH",
"575 193 LINE"
);
}
);
};
color = -1;
layerId = "925D3525-5003-4FA1-BE98-2BABE6F3DA5C";
paths = (
{
closed = 1;
nodes = (
"535 18 LINE SMOOTH",
"510 -99 OFFCURVE",
"463 -128 OFFCURVE",
"408 -128 CURVE SMOOTH",
"367 -128 OFFCURVE",
"334 -113 OFFCURVE",
"309 -90 CURVE",
"280 -112 OFFCURVE",
"263 -138 OFFCURVE",
"263 -166 CURVE SMOOTH",
"263 -207 OFFCURVE",
"302 -232 OFFCURVE",
"355 -232 CURVE SMOOTH",
"485 -232 OFFCURVE",
"589 -90 OFFCURVE",
"624 78 CURVE SMOOTH",
"693 400 LINE SMOOTH",
"717 510 OFFCURVE",
"731 573 OFFCURVE",
"741 602 CURVE",
"815 619 LINE",
"823 671 LINE",
"594 671 LINE",
"579 619 LINE",
"655 602 LINE",
"653 574 OFFCURVE",
"643 515 OFFCURVE",
"618 400 CURVE SMOOTH",
"575 193 LINE",
"597 193 LINE",
"305 671 LINE",
"141 671 LINE",
"126 619 LINE",
"192 602 LINE",
"193 594 OFFCURVE",
"183 526 OFFCURVE",
"167 450 CURVE SMOOTH",
"131 286 LINE SMOOTH",
"106 170 OFFCURVE",
"89 94 OFFCURVE",
"82 69 CURVE",
"7 51 LINE",
"-1 0 LINE",
"231 0 LINE",
"245 51 LINE",
"169 69 LINE",
"174 97 OFFCURVE",
"187 182 OFFCURVE",
"209 283 CURVE SMOOTH",
"264 539 LINE",
"226 539 LINE",
"550 -6 LINE",
"546 66 LINE"
);
}
);
width = 785;
}
);
leftKerningGroup = H;
leftMetricsKey = N;
widthMetricsKey = N;
note = Eng;
rightKerningGroup = J;
unicode = 014A;
},
{
glyphname = O;
lastChange = "2020-06-19 12:07:49 +0000";
layers = (
{
anchors = (
{
name = bottom;
position = "{335, 0}";
},
{
name = center;
position = "{406, 336}";
},
{
name = ogonek;
position = "{418, 0}";
},
{
name = top;
position = "{477, 671}";
},
{
name = topleft;
position = "{112, 671}";
},
{
name = topright;
position = "{842, 671}";
}
);
background = {
anchors = (
{
name = bottom;
position = "{335, 0}";
},
{
name = center;
position = "{406, 336}";
},
{
name = ogonek;
position = "{418, 0}";
},
{
name = top;
position = "{477, 671}";
},
{
name = topleft;
position = "{112, 671}";
},
{
name = topright;
position = "{842, 671}";
}
);
paths = (
{
closed = 1;
nodes = (
"554 -10 OFFCURVE",
"737 190 OFFCURVE",
"737 413 CURVE SMOOTH",
"737 577 OFFCURVE",
"638 681 OFFCURVE",
"473 681 CURVE SMOOTH",
"258 681 OFFCURVE",
"75 485 OFFCURVE",
"75 261 CURVE SMOOTH",
"75 96 OFFCURVE",
"179 -10 OFFCURVE",
"349 -10 CURVE SMOOTH"
);
},
{
closed = 1;
nodes = (
"243 40 OFFCURVE",
"163 131 OFFCURVE",
"163 271 CURVE SMOOTH",
"163 474 OFFCURVE",
"291 633 OFFCURVE",
"456 633 CURVE SMOOTH",
"581 633 OFFCURVE",
"654 543 OFFCURVE",
"654 403 CURVE SMOOTH",
"654 199 OFFCURVE",
"529 40 OFFCURVE",
"368 40 CURVE SMOOTH"
);
}
);
};
color = -1;
layerId = "D9A1C40A-2361-406B-8D3E-8FA7FBCB82BD";
paths = (
{
closed = 1;
nodes = (
"554 -10 OFFCURVE",
"737 190 OFFCURVE",
"737 413 CURVE SMOOTH",
"737 577 OFFCURVE",
"638 681 OFFCURVE",
"473 681 CURVE SMOOTH",
"256 681 OFFCURVE",
"75 485 OFFCURVE",
"75 261 CURVE SMOOTH",
"75 96 OFFCURVE",
"179 -10 OFFCURVE",
"349 -10 CURVE SMOOTH"
);
},
{
closed = 1;
nodes = (
"243 40 OFFCURVE",
"163 131 OFFCURVE",
"163 271 CURVE SMOOTH",
"163 474 OFFCURVE",
"291 633 OFFCURVE",
"456 633 CURVE SMOOTH",
"581 633 OFFCURVE",
"654 543 OFFCURVE",
"654 403 CURVE SMOOTH",
"654 199 OFFCURVE",
"529 40 OFFCURVE",
"368 40 CURVE SMOOTH"
);
}
);
width = 775;
},
{
anchors = (
{
name = bottom;
position = "{361, 0}";
},
{
name = center;
position = "{433, 336}";
},
{
name = ogonek;
position = "{448, 0}";
},
{
name = top;
position = "{503, 671}";
},
{
name = topleft;
position = "{109, 671}";
},
{
name = topright;
position = "{897, 671}";
}
);
background = {
anchors = (
{
name = bottom;
position = "{362, 0}";
},
{
name = center;
position = "{433, 336}";
},
{
name = ogonek;
position = "{449, 0}";
},
{
name = top;
position = "{504, 671}";
},
{
name = topleft;
position = "{110, 671}";
},
{
name = topright;
position = "{898, 671}";
}
);
paths = (
{
closed = 1;
nodes = (
"606 -10 OFFCURVE",
"809 190 OFFCURVE",
"809 417 CURVE SMOOTH",
"809 577 OFFCURVE",
"690 681 OFFCURVE",
"499 681 CURVE SMOOTH",
"258 681 OFFCURVE",
"58 496 OFFCURVE",
"58 267 CURVE SMOOTH",
"58 101 OFFCURVE",
"186 -10 OFFCURVE",
"381 -10 CURVE SMOOTH"
);
},
{
closed = 1;
nodes = (
"327 91 OFFCURVE",
"280 157 OFFCURVE",
"280 266 CURVE SMOOTH",
"280 449 OFFCURVE",
"370 593 OFFCURVE",
"477 593 CURVE SMOOTH",
"547 593 OFFCURVE",
"591 536 OFFCURVE",
"591 419 CURVE SMOOTH",
"591 234 OFFCURVE",
"507 91 OFFCURVE",
"400 91 CURVE SMOOTH"
);
}
);
};
color = -1;
layerId = "24976ABE-9171-461B-B338-52EF76BD92C7";
paths = (
{
closed = 1;
nodes = (
"605 -10 OFFCURVE",
"808 190 OFFCURVE",
"808 417 CURVE SMOOTH",
"808 577 OFFCURVE",
"689 681 OFFCURVE",
"498 681 CURVE SMOOTH",
"257 681 OFFCURVE",
"57 496 OFFCURVE",
"57 267 CURVE SMOOTH",
"57 101 OFFCURVE",
"185 -10 OFFCURVE",
"379 -10 CURVE SMOOTH"
);
},
{
closed = 1;
nodes = (
"326 91 OFFCURVE",
"279 157 OFFCURVE",
"279 266 CURVE SMOOTH",
"279 449 OFFCURVE",
"369 593 OFFCURVE",
"475 593 CURVE SMOOTH",
"546 593 OFFCURVE",
"590 536 OFFCURVE",
"590 419 CURVE SMOOTH",
"590 234 OFFCURVE",
"506 91 OFFCURVE",
"399 91 CURVE SMOOTH"
);
}
);
width = 830;
},
{
anchors = (
{
name = bottom;
position = "{346, 0}";
},
{
name = center;
position = "{417, 336}";
},
{
name = ogonek;
position = "{432, 0}";
},
{
name = top;
position = "{488, 671}";
},
{
name = topleft;
position = "{109, 671}";
},
{
name = topright;
position = "{869, 671}";
}
);
background = {
anchors = (
{
name = bottom;
position = "{346, 0}";
},
{
name = center;
position = "{417, 336}";
},
{
name = ogonek;
position = "{431, 0}";
},
{
name = top;
position = "{488, 671}";
},
{
name = topleft;
position = "{108, 671}";
},
{
name = topright;
position = "{868, 671}";
}
);
paths = (
{
closed = 1;
nodes = (
"578 -10 OFFCURVE",
"771 190 OFFCURVE",
"771 415 CURVE SMOOTH",
"771 577 OFFCURVE",
"662 681 OFFCURVE",
"484 681 CURVE SMOOTH",
"256 681 OFFCURVE",
"65 490 OFFCURVE",
"65 264 CURVE SMOOTH",
"65 98 OFFCURVE",
"181 -10 OFFCURVE",
"362 -10 CURVE SMOOTH"
);
},
{
closed = 1;
nodes = (
"283 65 OFFCURVE",
"219 144 OFFCURVE",
"219 268 CURVE SMOOTH",
"219 462 OFFCURVE",
"328 613 OFFCURVE",
"464 613 CURVE SMOOTH",
"562 613 OFFCURVE",
"620 540 OFFCURVE",
"620 411 CURVE SMOOTH",
"620 216 OFFCURVE",
"516 65 OFFCURVE",
"382 65 CURVE SMOOTH"
);
}
);
};
color = -1;
layerId = "925D3525-5003-4FA1-BE98-2BABE6F3DA5C";
paths = (
{
closed = 1;
nodes = (
"578 -10 OFFCURVE",
"773 190 OFFCURVE",
"773 415 CURVE SMOOTH",
"773 577 OFFCURVE",
"662 681 OFFCURVE",
"483 681 CURVE SMOOTH",
"256 681 OFFCURVE",
"64 490 OFFCURVE",
"64 264 CURVE SMOOTH",
"64 98 OFFCURVE",
"181 -10 OFFCURVE",
"362 -10 CURVE SMOOTH"
);
},
{
closed = 1;
nodes = (
"282 65 OFFCURVE",
"219 144 OFFCURVE",
"219 269 CURVE SMOOTH",
"219 462 OFFCURVE",
"328 614 OFFCURVE",
"464 614 CURVE SMOOTH",
"562 614 OFFCURVE",
"619 539 OFFCURVE",
"619 411 CURVE SMOOTH",
"619 216 OFFCURVE",
"515 65 OFFCURVE",
"382 65 CURVE SMOOTH"
);
}
);
width = 798;
}
);
leftKerningGroup = O;
note = O;
rightKerningGroup = O;
unicode = 004F;
},
{
glyphname = Ohorn;
lastChange = "2020-06-19 12:07:49 +0000";
layers = (
{
anchors = (
{
name = bottom;
position = "{334, 0}";
},
{
name = center;
position = "{406, 336}";
},
{
name = top;
position = "{477, 671}";
},
{
name = topleft;
position = "{112, 671}";
}
);
background = {
anchors = (
{
name = bottom;
position = "{1248, 0}";
},
{
name = center;
position = "{1320, 336}";
},
{
name = top;
position = "{1391, 671}";
},
{
name = topleft;
position = "{1026, 671}";
}
);
paths = (
{
closed = 1;
nodes = (
"1673 753 LINE SMOOTH",
"1654 679 OFFCURVE",
"1621 662 OFFCURVE",
"1570 662 CURVE SMOOTH",
"1518 662 OFFCURVE",
"1453 681 OFFCURVE",
"1387 681 CURVE SMOOTH",
"1173 681 OFFCURVE",
"990 485 OFFCURVE",
"990 261 CURVE SMOOTH",
"990 96 OFFCURVE",
"1094 -10 OFFCURVE",
"1263 -10 CURVE SMOOTH",
"1469 -10 OFFCURVE",
"1651 190 OFFCURVE",
"1651 413 CURVE SMOOTH",
"1651 509 OFFCURVE",
"1617 585 OFFCURVE",
"1554 630 CURVE",
"1560 611 LINE",
"1696 611 OFFCURVE",
"1766 705 OFFCURVE",
"1766 761 CURVE SMOOTH",
"1766 800 OFFCURVE",
"1734 817 OFFCURVE",
"1687 807 CURVE"
);
},
{
closed = 1;
nodes = (
"1158 40 OFFCURVE",
"1078 131 OFFCURVE",
"1078 271 CURVE SMOOTH",
"1078 474 OFFCURVE",
"1206 633 OFFCURVE",
"1370 633 CURVE SMOOTH",
"1495 633 OFFCURVE",
"1568 543 OFFCURVE",
"1568 403 CURVE SMOOTH",
"1568 199 OFFCURVE",
"1443 40 OFFCURVE",
"1282 40 CURVE SMOOTH"
);
},
{
closed = 1;
nodes = (
"554 -10 OFFCURVE",
"737 190 OFFCURVE",
"737 413 CURVE SMOOTH",
"737 577 OFFCURVE",
"638 681 OFFCURVE",
"473 681 CURVE SMOOTH",
"256 681 OFFCURVE",
"75 485 OFFCURVE",
"75 261 CURVE SMOOTH",
"75 96 OFFCURVE",
"179 -10 OFFCURVE",
"349 -10 CURVE SMOOTH"
);
},
{
closed = 1;
nodes = (
"243 40 OFFCURVE",
"163 131 OFFCURVE",
"163 271 CURVE SMOOTH",
"163 474 OFFCURVE",
"291 633 OFFCURVE",
"456 633 CURVE SMOOTH",
"581 633 OFFCURVE",
"654 543 OFFCURVE",
"654 403 CURVE SMOOTH",
"654 199 OFFCURVE",
"529 40 OFFCURVE",
"368 40 CURVE SMOOTH"
);
}
);
};
color = -1;
layerId = "D9A1C40A-2361-406B-8D3E-8FA7FBCB82BD";
paths = (
{
closed = 1;
nodes = (
"759 753 LINE SMOOTH",
"739 679 OFFCURVE",
"706 662 OFFCURVE",
"656 662 CURVE SMOOTH",
"603 662 OFFCURVE",
"538 681 OFFCURVE",
"473 681 CURVE SMOOTH",
"256 681 OFFCURVE",
"75 485 OFFCURVE",
"75 261 CURVE SMOOTH",
"75 96 OFFCURVE",
"179 -10 OFFCURVE",
"349 -10 CURVE SMOOTH",
"554 -10 OFFCURVE",
"737 190 OFFCURVE",
"737 413 CURVE SMOOTH",
"737 509 OFFCURVE",
"703 585 OFFCURVE",
"640 630 CURVE",
"646 611 LINE",
"782 611 OFFCURVE",
"851 705 OFFCURVE",
"851 761 CURVE SMOOTH",
"851 800 OFFCURVE",
"819 817 OFFCURVE",
"773 807 CURVE"
);
},
{
closed = 1;
nodes = (
"243 40 OFFCURVE",
"163 131 OFFCURVE",
"163 271 CURVE SMOOTH",
"163 474 OFFCURVE",
"291 633 OFFCURVE",
"456 633 CURVE SMOOTH",
"581 633 OFFCURVE",
"654 543 OFFCURVE",
"654 403 CURVE SMOOTH",
"654 199 OFFCURVE",
"529 40 OFFCURVE",
"368 40 CURVE SMOOTH"
);
}
);
width = 775;
},
{
anchors = (
{
name = bottom;
position = "{360, 0}";
},
{
name = center;
position = "{432, 336}";
},
{
name = top;
position = "{503, 671}";
},
{
name = topleft;
position = "{109, 671}";
}
);
background = {
anchors = (
{
name = bottom;
position = "{1390, 0}";
},
{
name = center;
position = "{1462, 336}";
},
{
name = top;
position = "{1533, 671}";
},
{
name = topleft;
position = "{1138, 671}";
}
);
paths = (
{
closed = 1;
nodes = (
"1810 751 LINE SMOOTH",
"1800 707 OFFCURVE",
"1758 664 OFFCURVE",
"1705 664 CURVE SMOOTH",
"1643 664 OFFCURVE",
"1598 681 OFFCURVE",
"1528 681 CURVE SMOOTH",
"1287 681 OFFCURVE",
"1087 496 OFFCURVE",
"1087 267 CURVE SMOOTH",
"1087 101 OFFCURVE",
"1215 -10 OFFCURVE",
"1409 -10 CURVE SMOOTH",
"1634 -10 OFFCURVE",
"1838 190 OFFCURVE",
"1838 417 CURVE SMOOTH",
"1838 502 OFFCURVE",
"1803 571 OFFCURVE",
"1745 618 CURVE",
"1727 592 LINE",
"1857 592 OFFCURVE",
"1961 686 OFFCURVE",
"1961 773 CURVE SMOOTH",
"1961 830 OFFCURVE",
"1901 833 OFFCURVE",
"1829 826 CURVE"
);
},
{
closed = 1;
nodes = (
"1355 91 OFFCURVE",
"1309 157 OFFCURVE",
"1309 266 CURVE SMOOTH",
"1309 449 OFFCURVE",
"1399 593 OFFCURVE",
"1505 593 CURVE SMOOTH",
"1576 593 OFFCURVE",
"1619 536 OFFCURVE",
"1619 419 CURVE SMOOTH",
"1619 234 OFFCURVE",
"1536 91 OFFCURVE",
"1429 91 CURVE SMOOTH"
);
},
{
closed = 1;
nodes = (
"606 -10 OFFCURVE",
"809 190 OFFCURVE",
"809 417 CURVE SMOOTH",
"809 577 OFFCURVE",
"690 681 OFFCURVE",
"499 681 CURVE SMOOTH",
"258 681 OFFCURVE",
"58 496 OFFCURVE",
"58 267 CURVE SMOOTH",
"58 101 OFFCURVE",
"186 -10 OFFCURVE",
"381 -10 CURVE SMOOTH"
);
},
{
closed = 1;
nodes = (
"327 91 OFFCURVE",
"280 157 OFFCURVE",
"280 266 CURVE SMOOTH",
"280 449 OFFCURVE",
"370 593 OFFCURVE",
"477 593 CURVE SMOOTH",
"547 593 OFFCURVE",
"591 536 OFFCURVE",
"591 419 CURVE SMOOTH",
"591 234 OFFCURVE",
"507 91 OFFCURVE",
"400 91 CURVE SMOOTH"
);
}
);
};
color = -1;
layerId = "24976ABE-9171-461B-B338-52EF76BD92C7";
paths = (
{
closed = 1;
nodes = (
"781 751 LINE SMOOTH",
"768 707 OFFCURVE",
"728 664 OFFCURVE",
"675 664 CURVE SMOOTH",
"614 664 OFFCURVE",
"568 681 OFFCURVE",
"498 681 CURVE SMOOTH",
"257 681 OFFCURVE",
"57 496 OFFCURVE",
"57 267 CURVE SMOOTH",
"57 101 OFFCURVE",
"185 -10 OFFCURVE",
"379 -10 CURVE SMOOTH",
"605 -10 OFFCURVE",
"808 190 OFFCURVE",
"808 417 CURVE SMOOTH",
"808 502 OFFCURVE",
"774 571 OFFCURVE",
"715 618 CURVE",
"697 592 LINE",
"827 592 OFFCURVE",
"931 686 OFFCURVE",
"931 773 CURVE SMOOTH",
"931 830 OFFCURVE",
"871 833 OFFCURVE",
"799 826 CURVE"
);
},
{
closed = 1;
nodes = (
"326 91 OFFCURVE",
"279 157 OFFCURVE",
"279 266 CURVE SMOOTH",
"279 449 OFFCURVE",
"369 593 OFFCURVE",
"475 593 CURVE SMOOTH",
"546 593 OFFCURVE",
"590 536 OFFCURVE",
"590 419 CURVE SMOOTH",
"590 234 OFFCURVE",
"506 91 OFFCURVE",
"399 91 CURVE SMOOTH"
);
}
);
width = 830;
},
{
anchors = (
{
name = bottom;
position = "{345, 0}";
},
{
name = center;
position = "{417, 336}";
},
{
name = top;
position = "{488, 671}";
},
{
name = topleft;
position = "{109, 671}";
}
);
background = {
anchors = (
{
name = bottom;
position = "{345, 0}";
},
{
name = center;
position = "{417, 336}";
},
{
name = top;
position = "{488, 671}";
},
{
name = topleft;
position = "{108, 671}";
}
);
paths = (
{
closed = 1;
nodes = (
"768 753 LINE SMOOTH",
"753 693 OFFCURVE",
"715 662 OFFCURVE",
"664 662 CURVE SMOOTH",
"607 662 OFFCURVE",
"551 681 OFFCURVE",
"484 681 CURVE SMOOTH",
"256 681 OFFCURVE",
"65 490 OFFCURVE",
"65 264 CURVE SMOOTH",
"65 98 OFFCURVE",
"181 -10 OFFCURVE",
"362 -10 CURVE SMOOTH",
"578 -10 OFFCURVE",
"771 190 OFFCURVE",
"771 415 CURVE SMOOTH",
"771 506 OFFCURVE",
"737 578 OFFCURVE",
"676 624 CURVE",
"670 602 LINE",
"803 602 OFFCURVE",
"890 696 OFFCURVE",
"890 767 CURVE SMOOTH",
"890 815 OFFCURVE",
"844 825 OFFCURVE",
"784 816 CURVE"
);
},
{
closed = 1;
nodes = (
"283 65 OFFCURVE",
"219 144 OFFCURVE",
"219 268 CURVE SMOOTH",
"219 462 OFFCURVE",
"328 613 OFFCURVE",
"464 613 CURVE SMOOTH",
"562 613 OFFCURVE",
"620 540 OFFCURVE",
"620 411 CURVE SMOOTH",
"620 216 OFFCURVE",
"516 65 OFFCURVE",
"382 65 CURVE SMOOTH"
);
}
);
};
color = -1;
layerId = "925D3525-5003-4FA1-BE98-2BABE6F3DA5C";
paths = (
{
closed = 1;
nodes = (
"768 752 LINE SMOOTH",
"753 694 OFFCURVE",
"715 663 OFFCURVE",
"664 663 CURVE SMOOTH",
"607 663 OFFCURVE",
"552 681 OFFCURVE",
"483 681 CURVE SMOOTH",
"256 681 OFFCURVE",
"64 490 OFFCURVE",
"64 264 CURVE SMOOTH",
"64 98 OFFCURVE",
"181 -10 OFFCURVE",
"362 -10 CURVE SMOOTH",
"578 -10 OFFCURVE",
"773 190 OFFCURVE",
"773 415 CURVE SMOOTH",
"773 505 OFFCURVE",
"737 578 OFFCURVE",
"677 624 CURVE",
"670 602 LINE",
"802 602 OFFCURVE",
"890 696 OFFCURVE",
"890 767 CURVE SMOOTH",
"890 815 OFFCURVE",
"843 825 OFFCURVE",
"784 816 CURVE"
);
},
{
closed = 1;
nodes = (
"282 65 OFFCURVE",
"219 144 OFFCURVE",
"219 269 CURVE SMOOTH",
"219 462 OFFCURVE",
"328 614 OFFCURVE",
"464 614 CURVE SMOOTH",
"562 614 OFFCURVE",
"619 539 OFFCURVE",
"619 411 CURVE SMOOTH",
"619 216 OFFCURVE",
"515 65 OFFCURVE",
"382 65 CURVE SMOOTH"
);
}
);
width = 798;
}
);
leftKerningGroup = O;
leftMetricsKey = O;
widthMetricsKey = O;
note = Ohorn;
rightKerningGroup = O;
unicode = 01A0;
},
{
glyphname = Oogonek;
lastChange = "2020-06-19 12:07:49 +0000";
layers = (
{
anchors = (
{
name = center;
position = "{406, 336}";
},
{
name = top;
position = "{477, 671}";
},
{
name = topleft;
position = "{112, 671}";
},
{
name = topright;
position = "{842, 671}";
}
);
background = {
anchors = (
{
name = center;
position = "{1320, 336}";
},
{
name = top;
position = "{1391, 671}";
},
{
name = topleft;
position = "{1026, 671}";
},
{
name = topright;
position = "{1757, 671}";
}
);
paths = (
{
closed = 1;
nodes = (
"1275 -255 OFFCURVE",
"1322 -234 OFFCURVE",
"1359 -198 CURVE",
"1343 -174 LINE",
"1312 -200 OFFCURVE",
"1285 -214 OFFCURVE",
"1256 -214 CURVE SMOOTH",
"1217 -214 OFFCURVE",
"1198 -194 OFFCURVE",
"1198 -161 CURVE SMOOTH",
"1198 -96 OFFCURVE",
"1275 -24 OFFCURVE",
"1371 8 CURVE SMOOTH",
"1530 61 OFFCURVE",
"1651 232 OFFCURVE",
"1651 413 CURVE SMOOTH",
"1651 577 OFFCURVE",
"1552 681 OFFCURVE",
"1387 681 CURVE SMOOTH",
"1173 681 OFFCURVE",
"990 485 OFFCURVE",
"990 261 CURVE SMOOTH",
"990 96 OFFCURVE",
"1094 -10 OFFCURVE",
"1266 -10 CURVE SMOOTH",
"1309 -10 LINE",
"1304 8 LINE",
"1206 -37 OFFCURVE",
"1129 -99 OFFCURVE",
"1129 -174 CURVE SMOOTH",
"1129 -217 OFFCURVE",
"1159 -255 OFFCURVE",
"1233 -255 CURVE SMOOTH"
);
},
{
closed = 1;
nodes = (
"1158 40 OFFCURVE",
"1078 131 OFFCURVE",
"1078 271 CURVE SMOOTH",
"1078 474 OFFCURVE",
"1206 633 OFFCURVE",
"1370 633 CURVE SMOOTH",
"1495 633 OFFCURVE",
"1568 543 OFFCURVE",
"1568 403 CURVE SMOOTH",
"1568 199 OFFCURVE",
"1443 40 OFFCURVE",
"1282 40 CURVE SMOOTH"
);
},
{
closed = 1;
nodes = (
"554 -10 OFFCURVE",
"737 190 OFFCURVE",
"737 413 CURVE SMOOTH",
"737 577 OFFCURVE",
"638 681 OFFCURVE",
"473 681 CURVE SMOOTH",
"256 681 OFFCURVE",
"75 485 OFFCURVE",
"75 261 CURVE SMOOTH",
"75 96 OFFCURVE",
"179 -10 OFFCURVE",
"349 -10 CURVE SMOOTH"
);
},
{
closed = 1;
nodes = (
"243 40 OFFCURVE",
"163 131 OFFCURVE",
"163 271 CURVE SMOOTH",
"163 474 OFFCURVE",
"291 633 OFFCURVE",
"456 633 CURVE SMOOTH",
"581 633 OFFCURVE",
"654 543 OFFCURVE",
"654 403 CURVE SMOOTH",
"654 199 OFFCURVE",
"529 40 OFFCURVE",
"368 40 CURVE SMOOTH"
);
}
);
};
color = -1;
layerId = "D9A1C40A-2361-406B-8D3E-8FA7FBCB82BD";
paths = (
{
closed = 1;
nodes = (
"361 -255 OFFCURVE",
"408 -234 OFFCURVE",
"445 -198 CURVE",
"429 -174 LINE",
"398 -200 OFFCURVE",
"370 -214 OFFCURVE",
"342 -214 CURVE SMOOTH",
"303 -214 OFFCURVE",
"283 -194 OFFCURVE",
"283 -161 CURVE SMOOTH",
"283 -96 OFFCURVE",
"361 -25 OFFCURVE",
"457 8 CURVE SMOOTH",
"615 62 OFFCURVE",
"737 232 OFFCURVE",
"737 413 CURVE SMOOTH",
"737 577 OFFCURVE",
"638 681 OFFCURVE",
"473 681 CURVE SMOOTH",
"256 681 OFFCURVE",
"75 485 OFFCURVE",
"75 261 CURVE SMOOTH",
"75 96 OFFCURVE",
"179 -10 OFFCURVE",
"352 -10 CURVE SMOOTH",
"394 -10 LINE",
"390 8 LINE",
"291 -37 OFFCURVE",
"215 -99 OFFCURVE",
"215 -174 CURVE SMOOTH",
"215 -217 OFFCURVE",
"245 -255 OFFCURVE",
"319 -255 CURVE SMOOTH"
);
},
{
closed = 1;
nodes = (
"243 40 OFFCURVE",
"163 131 OFFCURVE",
"163 271 CURVE SMOOTH",
"163 474 OFFCURVE",
"291 633 OFFCURVE",
"456 633 CURVE SMOOTH",
"581 633 OFFCURVE",
"654 543 OFFCURVE",
"654 403 CURVE SMOOTH",
"654 199 OFFCURVE",
"529 40 OFFCURVE",
"368 40 CURVE SMOOTH"
);
}
);
width = 775;
},
{
anchors = (
{
name = center;
position = "{432, 336}";
},
{
name = top;
position = "{503, 671}";
},
{
name = topleft;
position = "{109, 671}";
},
{
name = topright;
position = "{897, 671}";
}
);
background = {
paths = (
{
closed = 1;
nodes = (
"606 -10 OFFCURVE",
"809 190 OFFCURVE",
"809 417 CURVE SMOOTH",
"809 577 OFFCURVE",
"690 681 OFFCURVE",
"499 681 CURVE SMOOTH",
"258 681 OFFCURVE",
"58 496 OFFCURVE",
"58 267 CURVE SMOOTH",
"58 101 OFFCURVE",
"186 -10 OFFCURVE",
"381 -10 CURVE SMOOTH"
);
},
{
closed = 1;
nodes = (
"327 91 OFFCURVE",
"280 157 OFFCURVE",
"280 266 CURVE SMOOTH",
"280 449 OFFCURVE",
"370 593 OFFCURVE",
"477 593 CURVE SMOOTH",
"547 593 OFFCURVE",
"591 536 OFFCURVE",
"591 419 CURVE SMOOTH",
"591 234 OFFCURVE",
"507 91 OFFCURVE",
"400 91 CURVE SMOOTH"
);
}
);
};
color = -1;
layerId = "24976ABE-9171-461B-B338-52EF76BD92C7";
paths = (
{
closed = 1;
nodes = (
"407 -255 OFFCURVE",
"454 -234 OFFCURVE",
"490 -198 CURVE",
"466 -145 LINE",
"439 -171 OFFCURVE",
"408 -184 OFFCURVE",
"384 -184 CURVE SMOOTH",
"360 -184 OFFCURVE",
"335 -169 OFFCURVE",
"335 -136 CURVE SMOOTH",
"335 -98 OFFCURVE",
"359 -57 OFFCURVE",
"537 22 CURVE SMOOTH",
"685 87 OFFCURVE",
"808 239 OFFCURVE",
"808 417 CURVE SMOOTH",
"808 577 OFFCURVE",
"689 681 OFFCURVE",
"498 681 CURVE SMOOTH",
"257 681 OFFCURVE",
"57 496 OFFCURVE",
"57 267 CURVE SMOOTH",
"57 101 OFFCURVE",
"185 -10 OFFCURVE",
"378 -10 CURVE SMOOTH",
"395 -10 LINE",
"398 6 LINE",
"264 -32 OFFCURVE",
"205 -93 OFFCURVE",
"205 -150 CURVE SMOOTH",
"205 -215 OFFCURVE",
"274 -255 OFFCURVE",
"349 -255 CURVE SMOOTH"
);
},
{
closed = 1;
nodes = (
"326 91 OFFCURVE",
"279 157 OFFCURVE",
"279 266 CURVE SMOOTH",
"279 449 OFFCURVE",
"369 593 OFFCURVE",
"475 593 CURVE SMOOTH",
"546 593 OFFCURVE",
"590 536 OFFCURVE",
"590 419 CURVE SMOOTH",
"590 234 OFFCURVE",
"506 91 OFFCURVE",
"399 91 CURVE SMOOTH"
);
}
);
width = 830;
},
{
anchors = (
{
name = center;
position = "{417, 336}";
},
{
name = top;
position = "{488, 671}";
},
{
name = topleft;
position = "{109, 671}";
},
{
name = topright;
position = "{869, 671}";
}
);
background = {
anchors = (
{
name = center;
position = "{417, 336}";
},
{
name = top;
position = "{488, 671}";
},
{
name = topleft;
position = "{108, 671}";
},
{
name = topright;
position = "{868, 671}";
}
);
paths = (
{
closed = 1;
nodes = (
"382 -255 OFFCURVE",
"429 -234 OFFCURVE",
"466 -198 CURVE",
"445 -159 LINE",
"416 -186 OFFCURVE",
"387 -199 OFFCURVE",
"361 -199 CURVE SMOOTH",
"329 -199 OFFCURVE",
"308 -182 OFFCURVE",
"308 -148 CURVE SMOOTH",
"308 -97 OFFCURVE",
"357 -38 OFFCURVE",
"496 15 CURVE SMOOTH",
"648 74 OFFCURVE",
"771 235 OFFCURVE",
"771 415 CURVE SMOOTH",
"771 577 OFFCURVE",
"662 681 OFFCURVE",
"484 681 CURVE SMOOTH",
"256 681 OFFCURVE",
"65 490 OFFCURVE",
"65 264 CURVE SMOOTH",
"65 98 OFFCURVE",
"181 -10 OFFCURVE",
"363 -10 CURVE SMOOTH",
"393 -10 LINE",
"391 7 LINE",
"276 -34 OFFCURVE",
"208 -96 OFFCURVE",
"208 -162 CURVE SMOOTH",
"208 -217 OFFCURVE",
"258 -255 OFFCURVE",
"332 -255 CURVE SMOOTH"
);
},
{
closed = 1;
nodes = (
"283 65 OFFCURVE",
"219 144 OFFCURVE",
"219 268 CURVE SMOOTH",
"219 462 OFFCURVE",
"328 613 OFFCURVE",
"464 613 CURVE SMOOTH",
"562 613 OFFCURVE",
"620 540 OFFCURVE",
"620 411 CURVE SMOOTH",
"620 216 OFFCURVE",
"516 65 OFFCURVE",
"382 65 CURVE SMOOTH"
);
}
);
};
color = -1;
layerId = "925D3525-5003-4FA1-BE98-2BABE6F3DA5C";
paths = (
{
closed = 1;
nodes = (
"382 -255 OFFCURVE",
"429 -234 OFFCURVE",
"465 -198 CURVE",
"446 -159 LINE",
"416 -185 OFFCURVE",
"387 -199 OFFCURVE",
"361 -199 CURVE SMOOTH",
"329 -199 OFFCURVE",
"307 -182 OFFCURVE",
"307 -149 CURVE SMOOTH",
"307 -97 OFFCURVE",
"358 -39 OFFCURVE",
"496 15 CURVE SMOOTH",
"648 74 OFFCURVE",
"773 235 OFFCURVE",
"773 415 CURVE SMOOTH",
"773 577 OFFCURVE",
"662 681 OFFCURVE",
"483 681 CURVE SMOOTH",
"256 681 OFFCURVE",
"64 490 OFFCURVE",
"64 264 CURVE SMOOTH",
"64 98 OFFCURVE",
"181 -10 OFFCURVE",
"363 -10 CURVE SMOOTH",
"393 -10 LINE",
"392 7 LINE",
"275 -34 OFFCURVE",
"208 -96 OFFCURVE",
"208 -161 CURVE SMOOTH",
"208 -216 OFFCURVE",
"258 -255 OFFCURVE",
"333 -255 CURVE SMOOTH"
);
},
{
closed = 1;
nodes = (
"282 65 OFFCURVE",
"219 144 OFFCURVE",
"219 269 CURVE SMOOTH",
"219 462 OFFCURVE",
"328 614 OFFCURVE",
"464 614 CURVE SMOOTH",
"562 614 OFFCURVE",
"619 539 OFFCURVE",
"619 411 CURVE SMOOTH",
"619 216 OFFCURVE",
"515 65 OFFCURVE",
"382 65 CURVE SMOOTH"
);
}
);
width = 798;
}
);
leftKerningGroup = O;
leftMetricsKey = O;
widthMetricsKey = O;
rightKerningGroup = O;
unicode = 01EA;
},
{
glyphname = OE;
lastChange = "2020-06-19 12:07:49 +0000";
layers = (
{
anchors = (
{
name = bottom;
position = "{543, 0}";
},
{
name = top;
position = "{686, 671}";
}
);
background = {
anchors = (
{
name = bottom;
position = "{543, 0}";
},
{
name = top;
position = "{686, 671}";
}
);
paths = (
{
closed = 1;
nodes = (
"456 -10 OFFCURVE",
"519 0 OFFCURVE",
"553 0 CURVE SMOOTH",
"831 0 LINE SMOOTH",
"851 0 OFFCURVE",
"866 0 OFFCURVE",
"913 -6 CURVE",
"984 153 LINE",
"935 162 LINE",
"861 56 LINE",
"851 53 OFFCURVE",
"825 51 OFFCURVE",
"781 51 CURVE SMOOTH",
"650 51 LINE SMOOTH",
"633 51 OFFCURVE",
"615 53 OFFCURVE",
"591 56 CURVE",
"592 66 OFFCURVE",
"602 122 OFFCURVE",
"608 153 CURVE SMOOTH",
"682 495 LINE SMOOTH",
"691 537 OFFCURVE",
"710 611 OFFCURVE",
"712 619 CURVE",
"735 621 OFFCURVE",
"739 622 OFFCURVE",
"766 622 CURVE SMOOTH",
"922 622 LINE SMOOTH",
"939 622 OFFCURVE",
"954 621 OFFCURVE",
"962 619 CURVE",
"976 525 LINE",
"1023 530 LINE",
"1037 675 LINE",
"989 671 OFFCURVE",
"975 671 OFFCURVE",
"950 671 CURVE SMOOTH",
"673 671 LINE SMOOTH",
"609 671 OFFCURVE",
"571 679 OFFCURVE",
"518 679 CURVE SMOOTH",
"280 679 OFFCURVE",
"74 504 OFFCURVE",
"74 257 CURVE SMOOTH",
"74 82 OFFCURVE",
"197 -10 OFFCURVE",
"393 -10 CURVE SMOOTH"
);
},
{
closed = 1;
nodes = (
"248 41 OFFCURVE",
"160 126 OFFCURVE",
"160 271 CURVE SMOOTH",
"160 449 OFFCURVE",
"272 627 OFFCURVE",
"499 627 CURVE SMOOTH",
"555 627 OFFCURVE",
"592 623 OFFCURVE",
"635 613 CURVE",
"630 578 OFFCURVE",
"629 567 OFFCURVE",
"603 447 CURVE SMOOTH",
"553 210 LINE SMOOTH",
"527 91 OFFCURVE",
"523 79 OFFCURVE",
"517 56 CURVE",
"486 47 OFFCURVE",
"447 41 OFFCURVE",
"411 41 CURVE SMOOTH"
);
},
{
closed = 1;
nodes = (
"880 238 LINE",
"926 455 LINE",
"885 455 LINE",
"853 374 LINE",
"842 370 OFFCURVE",
"826 370 OFFCURVE",
"803 370 CURVE SMOOTH",
"713 370 LINE SMOOTH",
"696 370 OFFCURVE",
"673 370 OFFCURVE",
"645 371 CURVE",
"632 319 LINE",
"663 320 OFFCURVE",
"687 321 OFFCURVE",
"704 321 CURVE SMOOTH",
"797 321 LINE SMOOTH",
"819 321 OFFCURVE",
"833 320 OFFCURVE",
"841 317 CURVE",
"839 238 LINE"
);
}
);
};
color = -1;
layerId = "D9A1C40A-2361-406B-8D3E-8FA7FBCB82BD";
paths = (
{
closed = 1;
nodes = (
"456 -10 OFFCURVE",
"519 0 OFFCURVE",
"553 0 CURVE SMOOTH",
"831 0 LINE SMOOTH",
"851 0 OFFCURVE",
"878 -1 OFFCURVE",
"913 -6 CURVE",
"984 153 LINE",
"935 162 LINE",
"861 56 LINE",
"851 53 OFFCURVE",
"825 51 OFFCURVE",
"781 51 CURVE SMOOTH",
"651 51 LINE SMOOTH",
"634 51 OFFCURVE",
"615 53 OFFCURVE",
"591 56 CURVE",
"592 66 OFFCURVE",
"602 122 OFFCURVE",
"609 153 CURVE SMOOTH",
"682 495 LINE SMOOTH",
"691 537 OFFCURVE",
"710 611 OFFCURVE",
"712 619 CURVE",
"735 621 OFFCURVE",
"739 622 OFFCURVE",
"766 622 CURVE SMOOTH",
"922 622 LINE SMOOTH",
"939 622 OFFCURVE",
"954 621 OFFCURVE",
"962 619 CURVE",
"976 525 LINE",
"1023 530 LINE",
"1037 675 LINE",
"1000 671 OFFCURVE",
"975 671 OFFCURVE",
"950 671 CURVE SMOOTH",
"673 671 LINE SMOOTH",
"609 671 OFFCURVE",
"571 679 OFFCURVE",
"518 679 CURVE SMOOTH",
"262 679 OFFCURVE",
"77 489 OFFCURVE",
"77 257 CURVE SMOOTH",
"77 82 OFFCURVE",
"200 -10 OFFCURVE",
"393 -10 CURVE SMOOTH"
);
},
{
closed = 1;
nodes = (
"251 41 OFFCURVE",
"162 126 OFFCURVE",
"162 271 CURVE SMOOTH",
"162 449 OFFCURVE",
"274 627 OFFCURVE",
"499 627 CURVE SMOOTH",
"555 627 OFFCURVE",
"592 623 OFFCURVE",
"635 613 CURVE",
"630 578 OFFCURVE",
"629 567 OFFCURVE",
"603 447 CURVE SMOOTH",
"553 210 LINE SMOOTH",
"527 91 OFFCURVE",
"523 79 OFFCURVE",
"517 56 CURVE",
"486 47 OFFCURVE",
"447 41 OFFCURVE",
"411 41 CURVE SMOOTH"
);
},
{
closed = 1;
nodes = (
"880 237 LINE",
"926 455 LINE",
"885 455 LINE",
"851 374 LINE",
"841 371 OFFCURVE",
"826 370 OFFCURVE",
"803 370 CURVE SMOOTH",
"706 370 LINE SMOOTH",
"689 370 OFFCURVE",
"666 370 OFFCURVE",
"638 371 CURVE",
"625 318 LINE",
"656 319 OFFCURVE",
"680 320 OFFCURVE",
"697 320 CURVE SMOOTH",
"795 320 LINE SMOOTH",
"818 320 OFFCURVE",
"833 318 OFFCURVE",
"841 315 CURVE",
"839 237 LINE"
);
}
);
width = 1045;
},
{
anchors = (
{
name = bottom;
position = "{555, 0}";
},
{
name = top;
position = "{698, 671}";
}
);
background = {
paths = (
{
closed = 1;
nodes = (
"1049 190 LINE",
"973 203 LINE",
"889 86 LINE",
"865 82 OFFCURVE",
"848 81 OFFCURVE",
"809 81 CURVE SMOOTH",
"774 81 LINE SMOOTH",
"742 81 OFFCURVE",
"704 82 OFFCURVE",
"673 87 CURVE",
"675 110 OFFCURVE",
"687 174 OFFCURVE",
"699 231 CURVE SMOOTH",
"745 446 LINE SMOOTH",
"757 499 OFFCURVE",
"773 570 OFFCURVE",
"779 593 CURVE",
"797 595 OFFCURVE",
"826 597 OFFCURVE",
"858 597 CURVE SMOOTH",
"905 597 LINE SMOOTH",
"925 597 OFFCURVE",
"937 595 OFFCURVE",
"962 591 CURVE",
"978 489 LINE",
"1057 497 LINE",
"1066 678 LINE",
"1017 674 OFFCURVE",
"905 671 OFFCURVE",
"853 671 CURVE SMOOTH",
"489 671 LINE",
"472 605 LINE",
"578 584 LINE",
"578 632 LINE",
"83 87 LINE",
"15 66 LINE",
"5 0 LINE",
"253 0 LINE",
"270 66 LINE",
"202 87 LINE",
"626 569 LINE",
"581 562 LINE",
"512 238 LINE SMOOTH",
"501 183 OFFCURVE",
"489 126 OFFCURVE",
"478 87 CURVE",
"401 65 LINE",
"391 0 LINE",
"770 0 LINE SMOOTH",
"829 0 OFFCURVE",
"911 -3 OFFCURVE",
"958 -8 CURVE"
);
},
{
closed = 1;
nodes = (
"274 174 OFFCURVE",
"319 176 OFFCURVE",
"384 176 CURVE SMOOTH",
"434 176 OFFCURVE",
"479 175 OFFCURVE",
"527 174 CURVE",
"549 261 LINE",
"497 256 OFFCURVE",
"455 255 OFFCURVE",
"401 255 CURVE SMOOTH",
"328 255 OFFCURVE",
"335 258 OFFCURVE",
"299 261 CURVE",
"249 171 LINE"
);
},
{
closed = 1;
nodes = (
"918 224 LINE",
"968 462 LINE",
"894 462 LINE",
"869 389 LINE",
"858 387 OFFCURVE",
"830 386 OFFCURVE",
"797 386 CURVE SMOOTH",
"766 386 LINE SMOOTH",
"735 386 OFFCURVE",
"707 390 OFFCURVE",
"703 391 CURVE",
"683 298 LINE",
"688 299 OFFCURVE",
"715 302 OFFCURVE",
"747 302 CURVE SMOOTH",
"778 302 LINE SMOOTH",
"810 302 OFFCURVE",
"838 302 OFFCURVE",
"849 301 CURVE",
"843 224 LINE"
);
}
);
};
color = -1;
layerId = "24976ABE-9171-461B-B338-52EF76BD92C7";
paths = (
{
closed = 1;
nodes = (
"422 -10 OFFCURVE",
"466 0 OFFCURVE",
"538 0 CURVE SMOOTH",
"760 0 LINE SMOOTH",
"818 0 OFFCURVE",
"901 -3 OFFCURVE",
"947 -8 CURVE",
"1039 190 LINE",
"962 203 LINE",
"879 86 LINE",
"855 82 OFFCURVE",
"838 81 OFFCURVE",
"799 81 CURVE SMOOTH",
"763 81 LINE SMOOTH",
"720 81 OFFCURVE",
"693 83 OFFCURVE",
"672 87 CURVE",
"674 110 OFFCURVE",
"686 174 OFFCURVE",
"698 231 CURVE SMOOTH",
"744 446 LINE SMOOTH",
"755 499 OFFCURVE",
"771 570 OFFCURVE",
"778 593 CURVE",
"795 595 OFFCURVE",
"824 597 OFFCURVE",
"862 597 CURVE SMOOTH",
"896 597 LINE SMOOTH",
"914 597 OFFCURVE",
"928 595 OFFCURVE",
"952 591 CURVE",
"968 489 LINE",
"1047 497 LINE",
"1056 678 LINE",
"1007 674 OFFCURVE",
"895 671 OFFCURVE",
"845 671 CURVE SMOOTH",
"693 671 LINE SMOOTH",
"640 671 OFFCURVE",
"591 677 OFFCURVE",
"535 677 CURVE SMOOTH",
"250 677 OFFCURVE",
"56 488 OFFCURVE",
"56 253 CURVE SMOOTH",
"56 106 OFFCURVE",
"177 -10 OFFCURVE",
"378 -10 CURVE SMOOTH"
);
},
{
closed = 1;
nodes = (
"344 87 OFFCURVE",
"285 151 OFFCURVE",
"285 266 CURVE SMOOTH",
"285 430 OFFCURVE",
"375 591 OFFCURVE",
"525 591 CURVE SMOOTH",
"545 591 OFFCURVE",
"569 589 OFFCURVE",
"576 586 CURVE",
"577 570 OFFCURVE",
"558 462 OFFCURVE",
"549 418 CURVE SMOOTH",
"519 275 LINE SMOOTH",
"512 235 OFFCURVE",
"485 122 OFFCURVE",
"477 94 CURVE",
"456 88 OFFCURVE",
"440 87 OFFCURVE",
"419 87 CURVE SMOOTH"
);
},
{
closed = 1;
nodes = (
"907 224 LINE",
"958 462 LINE",
"883 462 LINE",
"858 389 LINE",
"848 387 OFFCURVE",
"818 386 OFFCURVE",
"786 386 CURVE SMOOTH",
"761 386 LINE SMOOTH",
"729 386 OFFCURVE",
"705 390 OFFCURVE",
"699 391 CURVE",
"680 298 LINE",
"686 299 OFFCURVE",
"711 302 OFFCURVE",
"743 302 CURVE SMOOTH",
"767 302 LINE SMOOTH",
"799 302 OFFCURVE",
"827 302 OFFCURVE",
"839 301 CURVE",
"833 224 LINE"
);
}
);
width = 1067;
},
{
anchors = (
{
name = bottom;
position = "{547, 0}";
},
{
name = top;
position = "{690, 671}";
}
);
background = {
anchors = (
{
name = bottom;
position = "{547, 0}";
},
{
name = top;
position = "{690, 671}";
}
);
paths = (
{
closed = 1;
nodes = (
"438 -10 OFFCURVE",
"490 0 OFFCURVE",
"544 0 CURVE SMOOTH",
"794 0 LINE SMOOTH",
"834 0 OFFCURVE",
"888 -3 OFFCURVE",
"929 -7 CURVE",
"1010 171 LINE",
"949 183 LINE",
"869 71 LINE",
"853 67 OFFCURVE",
"841 66 OFFCURVE",
"787 66 CURVE SMOOTH",
"718 66 LINE SMOOTH",
"682 66 OFFCURVE",
"658 67 OFFCURVE",
"630 72 CURVE",
"631 89 OFFCURVE",
"641 138 OFFCURVE",
"654 201 CURVE SMOOTH",
"711 470 LINE SMOOTH",
"726 536 OFFCURVE",
"738 591 OFFCURVE",
"743 605 CURVE",
"761 608 OFFCURVE",
"781 609 OFFCURVE",
"813 609 CURVE SMOOTH",
"909 609 LINE SMOOTH",
"926 609 OFFCURVE",
"941 608 OFFCURVE",
"957 605 CURVE",
"971 507 LINE",
"1034 513 LINE",
"1046 677 LINE",
"1002 674 OFFCURVE",
"936 671 OFFCURVE",
"895 671 CURVE SMOOTH",
"681 671 LINE SMOOTH",
"623 671 OFFCURVE",
"579 678 OFFCURVE",
"525 678 CURVE SMOOTH",
"264 678 OFFCURVE",
"63 496 OFFCURVE",
"63 255 CURVE SMOOTH",
"63 95 OFFCURVE",
"185 -10 OFFCURVE",
"384 -10 CURVE SMOOTH"
);
},
{
closed = 1;
nodes = (
"295 64 OFFCURVE",
"221 138 OFFCURVE",
"221 269 CURVE SMOOTH",
"221 440 OFFCURVE",
"321 609 OFFCURVE",
"510 609 CURVE SMOOTH",
"549 609 OFFCURVE",
"578 606 OFFCURVE",
"605 598 CURVE",
"601 574 OFFCURVE",
"592 514 OFFCURVE",
"575 432 CURVE SMOOTH",
"535 243 LINE SMOOTH",
"518 163 OFFCURVE",
"502 102 OFFCURVE",
"495 75 CURVE",
"470 70 OFFCURVE",
"435 64 OFFCURVE",
"414 64 CURVE SMOOTH"
);
},
{
closed = 1;
nodes = (
"894 231 LINE",
"942 458 LINE",
"883 458 LINE",
"855 381 LINE",
"845 379 OFFCURVE",
"822 378 OFFCURVE",
"794 378 CURVE SMOOTH",
"737 378 LINE SMOOTH",
"712 378 OFFCURVE",
"689 379 OFFCURVE",
"671 381 CURVE",
"656 309 LINE",
"673 310 OFFCURVE",
"698 312 OFFCURVE",
"722 312 CURVE SMOOTH",
"781 312 LINE SMOOTH",
"808 312 OFFCURVE",
"830 310 OFFCURVE",
"839 309 CURVE",
"835 231 LINE"
);
}
);
};
color = -1;
layerId = "925D3525-5003-4FA1-BE98-2BABE6F3DA5C";
paths = (
{
closed = 1;
nodes = (
"438 -10 OFFCURVE",
"490 0 OFFCURVE",
"544 0 CURVE SMOOTH",
"794 0 LINE SMOOTH",
"834 0 OFFCURVE",
"888 -3 OFFCURVE",
"929 -7 CURVE",
"1010 171 LINE",
"949 183 LINE",
"869 71 LINE",
"853 67 OFFCURVE",
"841 66 OFFCURVE",
"787 66 CURVE SMOOTH",
"718 66 LINE SMOOTH",
"682 66 OFFCURVE",
"658 67 OFFCURVE",
"630 72 CURVE",
"631 89 OFFCURVE",
"640 138 OFFCURVE",
"654 201 CURVE SMOOTH",
"711 470 LINE SMOOTH",
"725 536 OFFCURVE",
"738 591 OFFCURVE",
"743 605 CURVE",
"761 608 OFFCURVE",
"781 609 OFFCURVE",
"813 609 CURVE SMOOTH",
"909 609 LINE SMOOTH",
"926 609 OFFCURVE",
"941 608 OFFCURVE",
"957 605 CURVE",
"971 507 LINE",
"1034 513 LINE",
"1046 677 LINE",
"1002 674 OFFCURVE",
"936 671 OFFCURVE",
"895 671 CURVE SMOOTH",
"681 671 LINE SMOOTH",
"623 671 OFFCURVE",
"579 678 OFFCURVE",
"525 678 CURVE SMOOTH",
"264 678 OFFCURVE",
"63 496 OFFCURVE",
"63 255 CURVE SMOOTH",
"63 95 OFFCURVE",
"185 -10 OFFCURVE",
"384 -10 CURVE SMOOTH"
);
},
{
closed = 1;
nodes = (
"295 64 OFFCURVE",
"221 138 OFFCURVE",
"221 269 CURVE SMOOTH",
"221 440 OFFCURVE",
"321 609 OFFCURVE",
"510 609 CURVE SMOOTH",
"549 609 OFFCURVE",
"578 606 OFFCURVE",
"605 598 CURVE",
"601 574 OFFCURVE",
"592 514 OFFCURVE",
"575 432 CURVE SMOOTH",
"535 243 LINE SMOOTH",
"518 163 OFFCURVE",
"502 102 OFFCURVE",
"495 75 CURVE",
"470 70 OFFCURVE",
"435 64 OFFCURVE",
"414 64 CURVE SMOOTH"
);
},
{
closed = 1;
nodes = (
"894 231 LINE",
"942 458 LINE",
"883 458 LINE",
"855 381 LINE",
"845 379 OFFCURVE",
"822 378 OFFCURVE",
"794 378 CURVE SMOOTH",
"737 378 LINE SMOOTH",
"712 378 OFFCURVE",
"689 379 OFFCURVE",
"671 381 CURVE",
"656 309 LINE",
"673 310 OFFCURVE",
"698 312 OFFCURVE",
"722 312 CURVE SMOOTH",
"781 312 LINE SMOOTH",
"808 312 OFFCURVE",
"830 310 OFFCURVE",
"839 309 CURVE",
"835 231 LINE"
);
}
);
width = 1055;
}
);
leftKerningGroup = O;
note = OE;
rightKerningGroup = E;
unicode = 0152;
},
{
glyphname = P;
lastChange = "2020-06-19 12:07:49 +0000";
layers = (
{
anchors = (
{
name = bottom;
position = "{120, 0}";
},
{
name = top;
position = "{365, 671}";
}
);
background = {
anchors = (
{
name = bottom;
position = "{120, 0}";
},
{
name = top;
position = "{364, 671}";
}
);
paths = (
{
closed = 1;
nodes = (
"249 0 LINE",
"258 39 LINE",
"169 51 LINE",
"169 73 OFFCURVE",
"176 111 OFFCURVE",
"197 212 CURVE",
"248 449 LINE",
"262 516 OFFCURVE",
"287 614 OFFCURVE",
"288 627 CURVE",
"346 627 LINE SMOOTH",
"437 627 OFFCURVE",
"485 584 OFFCURVE",
"485 503 CURVE SMOOTH",
"485 390 OFFCURVE",
"415 324 OFFCURVE",
"293 324 CURVE SMOOTH",
"265 324 OFFCURVE",
"245 326 OFFCURVE",
"206 337 CURVE",
"194 291 LINE",
"232 280 OFFCURVE",
"257 277 OFFCURVE",
"286 277 CURVE SMOOTH",
"441 277 OFFCURVE",
"559 379 OFFCURVE",
"559 516 CURVE SMOOTH",
"559 612 OFFCURVE",
"482 671 OFFCURVE",
"355 671 CURVE SMOOTH",
"153 671 LINE",
"144 634 LINE",
"210 619 LINE",
"210 597 OFFCURVE",
"200 541 OFFCURVE",
"180 449 CURVE",
"128 212 LINE",
"111 126 OFFCURVE",
"100 81 OFFCURVE",
"92 51 CURVE",
"25 37 LINE",
"19 0 LINE"
);
}
);
};
color = -1;
layerId = "D9A1C40A-2361-406B-8D3E-8FA7FBCB82BD";
paths = (
{
closed = 1;
nodes = (
"246 0 LINE",
"256 39 LINE",
"167 51 LINE",
"169 73 OFFCURVE",
"176 112 OFFCURVE",
"198 213 CURVE",
"247 449 LINE",
"262 515 OFFCURVE",
"286 614 OFFCURVE",
"288 627 CURVE",
"346 627 LINE SMOOTH",
"437 627 OFFCURVE",
"486 584 OFFCURVE",
"486 503 CURVE SMOOTH",
"486 390 OFFCURVE",
"416 325 OFFCURVE",
"293 325 CURVE SMOOTH",
"265 325 OFFCURVE",
"246 327 OFFCURVE",
"207 337 CURVE",
"194 290 LINE",
"232 280 OFFCURVE",
"257 277 OFFCURVE",
"289 277 CURVE SMOOTH",
"441 277 OFFCURVE",
"559 379 OFFCURVE",
"559 515 CURVE SMOOTH",
"559 611 OFFCURVE",
"482 671 OFFCURVE",
"355 671 CURVE SMOOTH",
"155 671 LINE",
"145 634 LINE",
"210 619 LINE",
"210 598 OFFCURVE",
"199 542 OFFCURVE",
"179 449 CURVE",
"128 213 LINE",
"111 126 OFFCURVE",
"99 81 OFFCURVE",
"91 51 CURVE",
"25 37 LINE",
"19 0 LINE"
);
}
);
width = 560;
},
{
anchors = (
{
name = bottom;
position = "{161, 0}";
},
{
name = top;
position = "{446, 671}";
}
);
background = {
anchors = (
{
name = bottom;
position = "{162, 0}";
},
{
name = top;
position = "{447, 671}";
}
);
paths = (
{
closed = 1;
nodes = (
"350 0 LINE",
"369 67 LINE",
"280 87 LINE",
"285 113 OFFCURVE",
"296 179 OFFCURVE",
"314 269 CURVE",
"344 409 LINE",
"370 529 OFFCURVE",
"378 578 OFFCURVE",
"384 599 CURVE",
"397 599 LINE SMOOTH",
"471 599 OFFCURVE",
"507 565 OFFCURVE",
"507 496 CURVE SMOOTH",
"507 390 OFFCURVE",
"461 327 OFFCURVE",
"383 327 CURVE SMOOTH",
"355 327 OFFCURVE",
"323 334 OFFCURVE",
"314 342 CURVE",
"295 249 LINE",
"307 245 OFFCURVE",
"347 241 OFFCURVE",
"381 241 CURVE SMOOTH",
"563 241 OFFCURVE",
"711 355 OFFCURVE",
"711 495 CURVE SMOOTH",
"711 616 OFFCURVE",
"630 671 OFFCURVE",
"451 671 CURVE SMOOTH",
"134 671 LINE",
"114 606 LINE",
"186 586 LINE",
"183 565 OFFCURVE",
"176 518 OFFCURVE",
"153 409 CURVE",
"122 269 LINE",
"112 216 OFFCURVE",
"89 122 OFFCURVE",
"77 87 CURVE",
"1 65 LINE",
"-10 0 LINE"
);
}
);
};
color = -1;
layerId = "24976ABE-9171-461B-B338-52EF76BD92C7";
paths = (
{
closed = 1;
nodes = (
"350 0 LINE",
"367 67 LINE",
"279 87 LINE",
"282 113 OFFCURVE",
"295 179 OFFCURVE",
"313 269 CURVE",
"343 409 LINE",
"369 529 OFFCURVE",
"377 578 OFFCURVE",
"383 599 CURVE",
"395 599 LINE SMOOTH",
"467 599 OFFCURVE",
"506 565 OFFCURVE",
"506 494 CURVE SMOOTH",
"506 400 OFFCURVE",
"459 327 OFFCURVE",
"382 327 CURVE SMOOTH",
"350 327 OFFCURVE",
"322 334 OFFCURVE",
"313 338 CURVE",
"294 253 LINE",
"306 248 OFFCURVE",
"346 241 OFFCURVE",
"379 241 CURVE SMOOTH",
"549 241 OFFCURVE",
"710 343 OFFCURVE",
"710 497 CURVE SMOOTH",
"710 616 OFFCURVE",
"617 671 OFFCURVE",
"450 671 CURVE SMOOTH",
"133 671 LINE",
"115 606 LINE",
"185 586 LINE",
"182 565 OFFCURVE",
"175 518 OFFCURVE",
"152 409 CURVE",
"121 269 LINE",
"111 216 OFFCURVE",
"88 122 OFFCURVE",
"75 87 CURVE",
"1 65 LINE",
"-9 0 LINE"
);
}
);
width = 701;
},
{
anchors = (
{
name = bottom;
position = "{138, 0}";
},
{
name = top;
position = "{402, 671}";
}
);
background = {
anchors = (
{
name = bottom;
position = "{138, 0}";
},
{
name = top;
position = "{403, 671}";
}
);
paths = (
{
closed = 1;
nodes = (
"297 0 LINE",
"311 53 LINE",
"222 69 LINE",
"224 93 OFFCURVE",
"233 145 OFFCURVE",
"253 240 CURVE",
"293 429 LINE",
"314 523 OFFCURVE",
"330 596 OFFCURVE",
"333 613 CURVE",
"369 613 LINE SMOOTH",
"451 613 OFFCURVE",
"494 574 OFFCURVE",
"494 500 CURVE SMOOTH",
"494 390 OFFCURVE",
"435 325 OFFCURVE",
"335 325 CURVE SMOOTH",
"307 325 OFFCURVE",
"281 330 OFFCURVE",
"258 340 CURVE",
"242 270 LINE",
"267 263 OFFCURVE",
"299 259 OFFCURVE",
"330 259 CURVE SMOOTH",
"499 259 OFFCURVE",
"632 367 OFFCURVE",
"632 505 CURVE SMOOTH",
"632 614 OFFCURVE",
"553 671 OFFCURVE",
"401 671 CURVE SMOOTH",
"140 671 LINE",
"127 620 LINE",
"195 603 LINE",
"193 581 OFFCURVE",
"185 530 OFFCURVE",
"164 429 CURVE",
"123 240 LINE",
"108 171 OFFCURVE",
"92 102 OFFCURVE",
"81 69 CURVE",
"10 51 LINE",
"2 0 LINE"
);
}
);
};
color = -1;
layerId = "925D3525-5003-4FA1-BE98-2BABE6F3DA5C";
paths = (
{
closed = 1;
nodes = (
"296 0 LINE",
"311 54 LINE",
"222 69 LINE",
"224 93 OFFCURVE",
"233 145 OFFCURVE",
"254 240 CURVE",
"294 430 LINE",
"313 522 OFFCURVE",
"329 597 OFFCURVE",
"334 613 CURVE",
"369 613 LINE SMOOTH",
"451 613 OFFCURVE",
"494 575 OFFCURVE",
"494 499 CURVE SMOOTH",
"494 390 OFFCURVE",
"434 326 OFFCURVE",
"335 326 CURVE SMOOTH",
"307 326 OFFCURVE",
"281 330 OFFCURVE",
"257 339 CURVE",
"242 270 LINE",
"271 263 OFFCURVE",
"299 259 OFFCURVE",
"330 259 CURVE SMOOTH",
"499 259 OFFCURVE",
"632 367 OFFCURVE",
"632 505 CURVE SMOOTH",
"632 614 OFFCURVE",
"553 671 OFFCURVE",
"401 671 CURVE SMOOTH",
"143 671 LINE",
"128 619 LINE",
"195 602 LINE",
"193 581 OFFCURVE",
"185 529 OFFCURVE",
"163 430 CURVE",
"122 240 LINE",
"109 171 OFFCURVE",
"91 102 OFFCURVE",
"81 69 CURVE",
"10 51 LINE",
"2 0 LINE"
);
}
);
width = 624;
}
);
leftKerningGroup = H;
note = P;
rightKerningGroup = P;
unicode = 0050;
},
{
glyphname = Thorn;
lastChange = "2020-06-19 12:07:49 +0000";
layers = (
{
background = {
paths = (
{
closed = 1;
nodes = (
"242 0 LINE",
"252 39 LINE",
"162 51 LINE",
"167 81 OFFCURVE",
"173 112 OFFCURVE",
"179 139 CURVE SMOOTH",
"256 501 LINE",
"319 501 LINE SMOOTH",
"412 501 OFFCURVE",
"457 458 OFFCURVE",
"457 377 CURVE SMOOTH",
"457 264 OFFCURVE",
"387 196 OFFCURVE",
"265 196 CURVE SMOOTH",
"238 196 OFFCURVE",
"217 198 OFFCURVE",
"178 209 CURVE",
"166 165 LINE",
"204 154 OFFCURVE",
"230 151 OFFCURVE",
"258 151 CURVE SMOOTH",
"413 151 OFFCURVE",
"531 253 OFFCURVE",
"531 390 CURVE SMOOTH",
"531 486 OFFCURVE",
"454 545 OFFCURVE",
"327 545 CURVE SMOOTH",
"258 545 LINE",
"261 514 LINE",
"271 566 LINE SMOOTH",
"278 593 OFFCURVE",
"282 610 OFFCURVE",
"285 619 CURVE",
"356 634 LINE",
"361 671 LINE",
"153 671 LINE",
"143 634 LINE",
"208 619 LINE",
"207 600 OFFCURVE",
"200 556 OFFCURVE",
"178 449 CURVE SMOOTH",
"127 212 LINE SMOOTH",
"104 108 OFFCURVE",
"97 74 OFFCURVE",
"90 51 CURVE",
"24 37 LINE",
"18 0 LINE"
);
}
);
};
color = -1;
layerId = "D9A1C40A-2361-406B-8D3E-8FA7FBCB82BD";
paths = (
{
closed = 1;
nodes = (
"241 0 LINE",
"251 39 LINE",
"162 51 LINE",
"167 81 OFFCURVE",
"174 112 OFFCURVE",
"179 138 CURVE SMOOTH",
"256 501 LINE",
"319 501 LINE SMOOTH",
"413 501 OFFCURVE",
"457 458 OFFCURVE",
"457 377 CURVE SMOOTH",
"457 264 OFFCURVE",
"387 195 OFFCURVE",
"265 195 CURVE SMOOTH",
"238 195 OFFCURVE",
"217 198 OFFCURVE",
"178 209 CURVE",
"167 165 LINE",
"205 154 OFFCURVE",
"230 151 OFFCURVE",
"261 151 CURVE SMOOTH",
"413 151 OFFCURVE",
"530 253 OFFCURVE",
"530 390 CURVE SMOOTH",
"530 486 OFFCURVE",
"454 545 OFFCURVE",
"327 545 CURVE SMOOTH",
"257 545 LINE",
"258 514 LINE",
"270 566 LINE SMOOTH",
"275 593 OFFCURVE",
"280 610 OFFCURVE",
"282 619 CURVE",
"354 634 LINE",
"360 671 LINE",
"153 671 LINE",
"143 634 LINE",
"208 619 LINE",
"208 600 OFFCURVE",
"200 557 OFFCURVE",
"177 449 CURVE SMOOTH",
"127 213 LINE SMOOTH",
"104 107 OFFCURVE",
"97 74 OFFCURVE",
"90 51 CURVE",
"24 37 LINE",
"18 0 LINE"
);
}
);
width = 559;
},
{
background = {
paths = (
{
closed = 1;
nodes = (
"349 0 LINE",
"367 67 LINE",
"278 87 LINE",
"278 88 OFFCURVE",
"283 128 OFFCURVE",
"291 167 CURVE SMOOTH",
"362 494 LINE",
"370 494 LINE SMOOTH",
"443 494 OFFCURVE",
"482 461 OFFCURVE",
"482 391 CURVE SMOOTH",
"482 285 OFFCURVE",
"434 219 OFFCURVE",
"357 219 CURVE SMOOTH",
"329 219 OFFCURVE",
"297 226 OFFCURVE",
"289 234 CURVE",
"270 144 LINE",
"282 141 OFFCURVE",
"321 137 OFFCURVE",
"354 137 CURVE SMOOTH",
"537 137 OFFCURVE",
"686 250 OFFCURVE",
"686 390 CURVE SMOOTH",
"686 511 OFFCURVE",
"603 566 OFFCURVE",
"426 566 CURVE SMOOTH",
"326 566 LINE",
"367 521 LINE",
"375 550 LINE SMOOTH",
"378 563 OFFCURVE",
"383 581 OFFCURVE",
"385 586 CURVE",
"466 606 LINE",
"477 671 LINE",
"130 671 LINE",
"112 606 LINE",
"184 586 LINE",
"181 560 OFFCURVE",
"169 498 OFFCURVE",
"151 409 CURVE SMOOTH",
"121 269 LINE SMOOTH",
"103 182 OFFCURVE",
"82 106 OFFCURVE",
"75 87 CURVE",
"0 65 LINE",
"-11 0 LINE"
);
}
);
};
color = -1;
layerId = "24976ABE-9171-461B-B338-52EF76BD92C7";
paths = (
{
closed = 1;
nodes = (
"347 0 LINE",
"365 67 LINE",
"277 87 LINE",
"278 94 OFFCURVE",
"281 128 OFFCURVE",
"289 167 CURVE SMOOTH",
"361 494 LINE",
"369 494 LINE SMOOTH",
"442 494 OFFCURVE",
"481 461 OFFCURVE",
"481 386 CURVE SMOOTH",
"481 285 OFFCURVE",
"431 219 OFFCURVE",
"352 219 CURVE SMOOTH",
"326 219 OFFCURVE",
"296 226 OFFCURVE",
"288 231 CURVE",
"269 144 LINE",
"281 141 OFFCURVE",
"320 137 OFFCURVE",
"353 137 CURVE SMOOTH",
"561 137 OFFCURVE",
"685 263 OFFCURVE",
"685 389 CURVE SMOOTH",
"685 511 OFFCURVE",
"593 566 OFFCURVE",
"425 566 CURVE SMOOTH",
"325 566 LINE",
"366 521 LINE",
"371 550 LINE SMOOTH",
"374 563 OFFCURVE",
"379 581 OFFCURVE",
"382 586 CURVE",
"461 606 LINE",
"471 671 LINE",
"130 671 LINE",
"113 606 LINE",
"183 586 LINE",
"179 560 OFFCURVE",
"168 498 OFFCURVE",
"150 409 CURVE SMOOTH",
"120 269 LINE SMOOTH",
"102 182 OFFCURVE",
"81 106 OFFCURVE",
"74 87 CURVE",
"0 65 LINE",
"-10 0 LINE"
);
}
);
width = 699;
},
{
background = {
paths = (
{
closed = 1;
nodes = (
"292 0 LINE",
"306 53 LINE",
"217 69 LINE",
"219 84 OFFCURVE",
"225 120 OFFCURVE",
"233 153 CURVE SMOOTH",
"306 498 LINE",
"342 498 LINE SMOOTH",
"425 498 OFFCURVE",
"467 459 OFFCURVE",
"467 384 CURVE SMOOTH",
"467 274 OFFCURVE",
"408 207 OFFCURVE",
"308 207 CURVE SMOOTH",
"281 207 OFFCURVE",
"255 212 OFFCURVE",
"231 222 CURVE",
"215 154 LINE",
"240 147 OFFCURVE",
"273 144 OFFCURVE",
"304 144 CURVE SMOOTH",
"472 144 OFFCURVE",
"605 252 OFFCURVE",
"605 390 CURVE SMOOTH",
"605 498 OFFCURVE",
"526 555 OFFCURVE",
"374 555 CURVE SMOOTH",
"289 555 LINE",
"311 517 LINE",
"320 558 LINE SMOOTH",
"325 578 OFFCURVE",
"330 595 OFFCURVE",
"332 603 CURVE",
"408 620 LINE",
"416 671 LINE",
"139 671 LINE",
"125 620 LINE",
"193 603 LINE",
"191 580 OFFCURVE",
"182 527 OFFCURVE",
"161 429 CURVE SMOOTH",
"121 240 LINE SMOOTH",
"101 145 OFFCURVE",
"87 90 OFFCURVE",
"80 69 CURVE",
"9 51 LINE",
"1 0 LINE"
);
}
);
};
color = -1;
layerId = "925D3525-5003-4FA1-BE98-2BABE6F3DA5C";
paths = (
{
closed = 1;
nodes = (
"291 0 LINE",
"306 54 LINE",
"217 69 LINE",
"219 85 OFFCURVE",
"225 120 OFFCURVE",
"232 153 CURVE SMOOTH",
"306 497 LINE",
"342 497 LINE SMOOTH",
"425 497 OFFCURVE",
"466 459 OFFCURVE",
"466 384 CURVE SMOOTH",
"466 274 OFFCURVE",
"408 208 OFFCURVE",
"307 208 CURVE SMOOTH",
"280 208 OFFCURVE",
"255 213 OFFCURVE",
"231 222 CURVE",
"215 154 LINE",
"240 147 OFFCURVE",
"274 144 OFFCURVE",
"304 144 CURVE SMOOTH",
"472 144 OFFCURVE",
"605 251 OFFCURVE",
"605 390 CURVE SMOOTH",
"605 498 OFFCURVE",
"526 555 OFFCURVE",
"374 555 CURVE SMOOTH",
"289 555 LINE",
"311 518 LINE",
"320 558 LINE SMOOTH",
"326 578 OFFCURVE",
"330 595 OFFCURVE",
"333 602 CURVE",
"407 619 LINE",
"415 671 LINE",
"141 671 LINE",
"126 619 LINE",
"193 602 LINE",
"191 581 OFFCURVE",
"182 527 OFFCURVE",
"161 430 CURVE SMOOTH",
"121 240 LINE SMOOTH",
"101 145 OFFCURVE",
"87 90 OFFCURVE",
"80 69 CURVE",
"9 51 LINE",
"1 0 LINE"
);
}
);
width = 623;
}
);
leftKerningGroup = H;
note = Thorn;
rightKerningGroup = Thorn;
unicode = 00DE;
},
{
glyphname = Q;
lastChange = "2020-06-19 12:07:49 +0000";
layers = (
{
anchors = (
{
name = top;
position = "{477, 671}";
}
);
background = {
anchors = (
{
name = top;
position = "{1619, 671}";
}
);
paths = (
{
closed = 1;
nodes = (
"1800 -147 OFFCURVE",
"1850 -136 OFFCURVE",
"1888 -115 CURVE",
"1881 -77 LINE",
"1859 -83 OFFCURVE",
"1835 -87 OFFCURVE",
"1811 -87 CURVE SMOOTH",
"1762 -87 OFFCURVE",
"1712 -73 OFFCURVE",
"1657 -43 CURVE SMOOTH",
"1609 -17 OFFCURVE",
"1575 -3 OFFCURVE",
"1488 1 CURVE",
"1494 -8 LINE",
"1698 -7 OFFCURVE",
"1880 190 OFFCURVE",
"1880 413 CURVE SMOOTH",
"1880 577 OFFCURVE",
"1781 681 OFFCURVE",
"1616 681 CURVE SMOOTH",
"1401 681 OFFCURVE",
"1218 485 OFFCURVE",
"1218 261 CURVE SMOOTH",
"1218 126 OFFCURVE",
"1288 33 OFFCURVE",
"1395 1 CURVE SMOOTH",
"1457 -17 OFFCURVE",
"1546 -83 OFFCURVE",
"1594 -104 CURVE SMOOTH",
"1686 -143 OFFCURVE",
"1718 -147 OFFCURVE",
"1751 -147 CURVE SMOOTH"
);
},
{
closed = 1;
nodes = (
"1386 40 OFFCURVE",
"1306 131 OFFCURVE",
"1306 271 CURVE SMOOTH",
"1306 474 OFFCURVE",
"1434 633 OFFCURVE",
"1599 633 CURVE SMOOTH",
"1723 633 OFFCURVE",
"1797 543 OFFCURVE",
"1797 403 CURVE SMOOTH",
"1797 199 OFFCURVE",
"1672 40 OFFCURVE",
"1511 40 CURVE SMOOTH"
);
},
{
closed = 1;
nodes = (
"554 -10 OFFCURVE",
"737 190 OFFCURVE",
"737 413 CURVE SMOOTH",
"737 577 OFFCURVE",
"638 681 OFFCURVE",
"473 681 CURVE SMOOTH",
"256 681 OFFCURVE",
"75 485 OFFCURVE",
"75 261 CURVE SMOOTH",
"75 96 OFFCURVE",
"179 -10 OFFCURVE",
"349 -10 CURVE SMOOTH"
);
},
{
closed = 1;
nodes = (
"243 40 OFFCURVE",
"163 131 OFFCURVE",
"163 271 CURVE SMOOTH",
"163 474 OFFCURVE",
"291 633 OFFCURVE",
"456 633 CURVE SMOOTH",
"581 633 OFFCURVE",
"654 543 OFFCURVE",
"654 403 CURVE SMOOTH",
"654 199 OFFCURVE",
"529 40 OFFCURVE",
"368 40 CURVE SMOOTH"
);
}
);
};
color = -1;
layerId = "D9A1C40A-2361-406B-8D3E-8FA7FBCB82BD";
paths = (
{
closed = 1;
nodes = (
"657 -147 OFFCURVE",
"707 -136 OFFCURVE",
"745 -115 CURVE",
"738 -77 LINE",
"717 -83 OFFCURVE",
"693 -87 OFFCURVE",
"669 -87 CURVE SMOOTH",
"619 -87 OFFCURVE",
"569 -73 OFFCURVE",
"514 -43 CURVE SMOOTH",
"474 -22 OFFCURVE",
"421 -5 OFFCURVE",
"345 -1 CURVE",
"351 -8 LINE",
"555 -7 OFFCURVE",
"737 190 OFFCURVE",
"737 413 CURVE SMOOTH",
"737 577 OFFCURVE",
"638 681 OFFCURVE",
"473 681 CURVE SMOOTH",
"256 681 OFFCURVE",
"75 485 OFFCURVE",
"75 261 CURVE SMOOTH",
"75 126 OFFCURVE",
"145 34 OFFCURVE",
"253 2 CURVE SMOOTH",
"314 -16 OFFCURVE",
"403 -83 OFFCURVE",
"451 -104 CURVE SMOOTH",
"543 -143 OFFCURVE",
"575 -147 OFFCURVE",
"608 -147 CURVE SMOOTH"
);
},
{
closed = 1;
nodes = (
"243 40 OFFCURVE",
"163 131 OFFCURVE",
"163 271 CURVE SMOOTH",
"163 474 OFFCURVE",
"291 633 OFFCURVE",
"456 633 CURVE SMOOTH",
"581 633 OFFCURVE",
"654 543 OFFCURVE",
"654 403 CURVE SMOOTH",
"654 199 OFFCURVE",
"529 40 OFFCURVE",
"368 40 CURVE SMOOTH"
);
}
);
width = 775;
},
{
anchors = (
{
name = top;
position = "{503, 671}";
}
);
background = {
anchors = (
{
name = top;
position = "{504, 671}";
}
);
paths = (
{
closed = 1;
nodes = (
"704 -177 OFFCURVE",
"766 -155 OFFCURVE",
"806 -127 CURVE",
"786 -56 LINE",
"755 -64 OFFCURVE",
"728 -66 OFFCURVE",
"711 -66 CURVE SMOOTH",
"666 -66 OFFCURVE",
"646 -57 OFFCURVE",
"589 -19 CURVE SMOOTH",
"558 2 OFFCURVE",
"511 10 OFFCURVE",
"417 13 CURVE",
"402 -3 LINE",
"607 -2 OFFCURVE",
"809 192 OFFCURVE",
"809 417 CURVE SMOOTH",
"809 577 OFFCURVE",
"690 681 OFFCURVE",
"499 681 CURVE SMOOTH",
"258 681 OFFCURVE",
"58 496 OFFCURVE",
"58 267 CURVE SMOOTH",
"58 170 OFFCURVE",
"101 82 OFFCURVE",
"206 30 CURVE SMOOTH",
"261 2 OFFCURVE",
"266 -9 OFFCURVE",
"321 -64 CURVE SMOOTH",
"373 -119 OFFCURVE",
"465 -177 OFFCURVE",
"631 -177 CURVE SMOOTH"
);
},
{
closed = 1;
nodes = (
"327 91 OFFCURVE",
"280 157 OFFCURVE",
"280 266 CURVE SMOOTH",
"280 449 OFFCURVE",
"370 593 OFFCURVE",
"477 593 CURVE SMOOTH",
"547 593 OFFCURVE",
"591 536 OFFCURVE",
"591 419 CURVE SMOOTH",
"591 234 OFFCURVE",
"507 91 OFFCURVE",
"400 91 CURVE SMOOTH"
);
}
);
};
color = -1;
layerId = "24976ABE-9171-461B-B338-52EF76BD92C7";
paths = (
{
closed = 1;
nodes = (
"703 -177 OFFCURVE",
"765 -155 OFFCURVE",
"805 -127 CURVE",
"785 -56 LINE",
"754 -64 OFFCURVE",
"727 -66 OFFCURVE",
"710 -66 CURVE SMOOTH",
"665 -66 OFFCURVE",
"645 -57 OFFCURVE",
"603 -30 CURVE SMOOTH",
"561 -1 OFFCURVE",
"505 7 OFFCURVE",
"411 7 CURVE",
"401 -3 LINE",
"606 -2 OFFCURVE",
"808 192 OFFCURVE",
"808 417 CURVE SMOOTH",
"808 577 OFFCURVE",
"689 681 OFFCURVE",
"498 681 CURVE SMOOTH",
"257 681 OFFCURVE",
"57 496 OFFCURVE",
"57 267 CURVE SMOOTH",
"57 170 OFFCURVE",
"99 82 OFFCURVE",
"205 30 CURVE SMOOTH",
"250 7 OFFCURVE",
"266 -7 OFFCURVE",
"320 -64 CURVE SMOOTH",
"373 -119 OFFCURVE",
"464 -177 OFFCURVE",
"630 -177 CURVE SMOOTH"
);
},
{
closed = 1;
nodes = (
"326 91 OFFCURVE",
"279 157 OFFCURVE",
"279 266 CURVE SMOOTH",
"279 449 OFFCURVE",
"369 593 OFFCURVE",
"475 593 CURVE SMOOTH",
"546 593 OFFCURVE",
"590 536 OFFCURVE",
"590 419 CURVE SMOOTH",
"590 234 OFFCURVE",
"506 91 OFFCURVE",
"399 91 CURVE SMOOTH"
);
}
);
width = 830;
},
{
anchors = (
{
name = top;
position = "{488, 671}";
}
);
background = {
anchors = (
{
name = top;
position = "{488, 671}";
}
);
paths = (
{
closed = 1;
nodes = (
"678 -163 OFFCURVE",
"734 -146 OFFCURVE",
"773 -121 CURVE",
"760 -66 LINE",
"733 -74 OFFCURVE",
"708 -77 OFFCURVE",
"687 -77 CURVE SMOOTH",
"640 -77 OFFCURVE",
"605 -65 OFFCURVE",
"549 -31 CURVE SMOOTH",
"510 -8 OFFCURVE",
"469 4 OFFCURVE",
"379 7 CURVE",
"374 -6 LINE",
"579 -4 OFFCURVE",
"771 190 OFFCURVE",
"771 415 CURVE SMOOTH",
"771 577 OFFCURVE",
"662 681 OFFCURVE",
"484 681 CURVE SMOOTH",
"256 681 OFFCURVE",
"65 490 OFFCURVE",
"65 264 CURVE SMOOTH",
"65 148 OFFCURVE",
"121 58 OFFCURVE",
"227 16 CURVE SMOOTH",
"285 -8 OFFCURVE",
"332 -46 OFFCURVE",
"384 -84 CURVE SMOOTH",
"454 -133 OFFCURVE",
"518 -163 OFFCURVE",
"617 -163 CURVE SMOOTH"
);
},
{
closed = 1;
nodes = (
"283 65 OFFCURVE",
"219 144 OFFCURVE",
"219 268 CURVE SMOOTH",
"219 462 OFFCURVE",
"328 613 OFFCURVE",
"464 613 CURVE SMOOTH",
"562 613 OFFCURVE",
"620 540 OFFCURVE",
"620 411 CURVE SMOOTH",
"620 216 OFFCURVE",
"516 65 OFFCURVE",
"382 65 CURVE SMOOTH"
);
}
);
};
color = -1;
layerId = "925D3525-5003-4FA1-BE98-2BABE6F3DA5C";
paths = (
{
closed = 1;
nodes = (
"678 -162 OFFCURVE",
"734 -145 OFFCURVE",
"774 -121 CURVE",
"760 -66 LINE",
"734 -74 OFFCURVE",
"709 -77 OFFCURVE",
"687 -77 CURVE SMOOTH",
"640 -77 OFFCURVE",
"608 -65 OFFCURVE",
"557 -37 CURVE SMOOTH",
"509 -10 OFFCURVE",
"466 1 OFFCURVE",
"379 1 CURVE",
"375 -6 LINE",
"579 -5 OFFCURVE",
"773 191 OFFCURVE",
"773 415 CURVE SMOOTH",
"773 577 OFFCURVE",
"662 681 OFFCURVE",
"483 681 CURVE SMOOTH",
"256 681 OFFCURVE",
"64 490 OFFCURVE",
"64 264 CURVE SMOOTH",
"64 149 OFFCURVE",
"121 58 OFFCURVE",
"226 16 CURVE SMOOTH",
"286 -8 OFFCURVE",
"333 -46 OFFCURVE",
"384 -85 CURVE SMOOTH",
"451 -136 OFFCURVE",
"518 -162 OFFCURVE",
"617 -162 CURVE SMOOTH"
);
},
{
closed = 1;
nodes = (
"282 65 OFFCURVE",
"219 144 OFFCURVE",
"219 269 CURVE SMOOTH",
"219 462 OFFCURVE",
"328 614 OFFCURVE",
"464 614 CURVE SMOOTH",
"562 614 OFFCURVE",
"619 539 OFFCURVE",
"619 411 CURVE SMOOTH",
"619 216 OFFCURVE",
"515 65 OFFCURVE",
"382 65 CURVE SMOOTH"
);
}
);
width = 798;
}
);
leftKerningGroup = O;
leftMetricsKey = O;
widthMetricsKey = O;
note = Q;
rightKerningGroup = O;
unicode = 0051;
},
{
glyphname = R;
lastChange = "2020-06-19 12:07:49 +0000";
layers = (
{
anchors = (
{
name = bottom;
position = "{294, 0}";
},
{
name = top;
position = "{381, 671}";
}
);
background = {
anchors = (
{
name = bottom;
position = "{293, 0}";
},
{
name = top;
position = "{380, 671}";
}
);
paths = (
{
closed = 1;
nodes = (
"228 0 LINE",
"238 37 LINE",
"168 51 LINE",
"168 69 OFFCURVE",
"169 93 OFFCURVE",
"195 212 CURVE SMOOTH",
"246 449 LINE SMOOTH",
"281 611 OFFCURVE",
"284 620 OFFCURVE",
"286 627 CURVE",
"353 627 LINE SMOOTH",
"437 627 OFFCURVE",
"482 597 OFFCURVE",
"482 521 CURVE SMOOTH",
"482 430 OFFCURVE",
"406 361 OFFCURVE",
"302 361 CURVE SMOOTH",
"213 361 LINE",
"205 316 LINE",
"294 316 LINE SMOOTH",
"425 316 OFFCURVE",
"559 419 OFFCURVE",
"559 533 CURVE SMOOTH",
"559 628 OFFCURVE",
"498 671 OFFCURVE",
"372 671 CURVE SMOOTH",
"154 671 LINE",
"144 634 LINE",
"209 619 LINE",
"209 600 OFFCURVE",
"202 556 OFFCURVE",
"179 449 CURVE SMOOTH",
"128 212 LINE SMOOTH",
"106 108 OFFCURVE",
"98 74 OFFCURVE",
"92 51 CURVE",
"21 37 LINE",
"15 0 LINE"
);
},
{
closed = 1;
nodes = (
"544 -10 OFFCURVE",
"557 -10 OFFCURVE",
"567 -7 CURVE",
"576 28 LINE",
"518 33 OFFCURVE",
"486 63 OFFCURVE",
"436 173 CURVE SMOOTH",
"357 351 LINE",
"289 336 LINE",
"342 205 LINE SMOOTH",
"409 31 OFFCURVE",
"444 -10 OFFCURVE",
"522 -10 CURVE SMOOTH"
);
}
);
};
color = -1;
layerId = "D9A1C40A-2361-406B-8D3E-8FA7FBCB82BD";
paths = (
{
closed = 1;
nodes = (
"221 0 LINE",
"231 37 LINE",
"166 51 LINE",
"168 70 OFFCURVE",
"171 94 OFFCURVE",
"197 213 CURVE SMOOTH",
"247 449 LINE SMOOTH",
"281 611 OFFCURVE",
"283 621 OFFCURVE",
"286 627 CURVE",
"353 627 LINE SMOOTH",
"437 627 OFFCURVE",
"482 598 OFFCURVE",
"482 523 CURVE SMOOTH",
"482 430 OFFCURVE",
"417 361 OFFCURVE",
"302 361 CURVE SMOOTH",
"213 361 LINE",
"205 317 LINE",
"294 317 LINE SMOOTH",
"437 317 OFFCURVE",
"560 419 OFFCURVE",
"560 533 CURVE SMOOTH",
"560 627 OFFCURVE",
"498 671 OFFCURVE",
"371 671 CURVE SMOOTH",
"154 671 LINE",
"144 634 LINE",
"209 619 LINE",
"209 600 OFFCURVE",
"201 557 OFFCURVE",
"178 449 CURVE SMOOTH",
"128 213 LINE SMOOTH",
"105 107 OFFCURVE",
"98 74 OFFCURVE",
"91 51 CURVE",
"19 37 LINE",
"14 0 LINE"
);
},
{
closed = 1;
nodes = (
"546 -10 OFFCURVE",
"558 -9 OFFCURVE",
"567 -7 CURVE",
"576 29 LINE",
"518 32 OFFCURVE",
"483 62 OFFCURVE",
"434 173 CURVE SMOOTH",
"355 351 LINE",
"289 336 LINE",
"358 165 LINE SMOOTH",
"411 31 OFFCURVE",
"451 -10 OFFCURVE",
"534 -10 CURVE SMOOTH"
);
}
);
width = 618;
},
{
anchors = (
{
name = bottom;
position = "{351, 0}";
},
{
name = top;
position = "{463, 671}";
}
);
background = {
anchors = (
{
name = bottom;
position = "{352, 0}";
},
{
name = top;
position = "{464, 671}";
}
);
paths = (
{
closed = 1;
nodes = (
"317 0 LINE",
"335 65 LINE",
"280 87 LINE",
"285 115 OFFCURVE",
"306 231 OFFCURVE",
"313 269 CURVE SMOOTH",
"343 409 LINE SMOOTH",
"355 467 OFFCURVE",
"384 587 OFFCURVE",
"387 599 CURVE",
"405 599 LINE SMOOTH",
"472 599 OFFCURVE",
"501 569 OFFCURVE",
"501 528 CURVE SMOOTH",
"501 434 OFFCURVE",
"448 373 OFFCURVE",
"362 373 CURVE SMOOTH",
"329 373 LINE",
"312 297 LINE",
"386 297 LINE SMOOTH",
"582 297 OFFCURVE",
"699 400 OFFCURVE",
"699 526 CURVE SMOOTH",
"699 625 OFFCURVE",
"616 671 OFFCURVE",
"441 671 CURVE SMOOTH",
"133 671 LINE",
"114 606 LINE",
"186 586 LINE",
"183 560 OFFCURVE",
"171 498 OFFCURVE",
"153 409 CURVE SMOOTH",
"123 269 LINE SMOOTH",
"105 182 OFFCURVE",
"85 106 OFFCURVE",
"78 87 CURVE",
"-2 65 LINE",
"-14 0 LINE"
);
},
{
closed = 1;
nodes = (
"646 -15 OFFCURVE",
"675 -13 OFFCURVE",
"709 -7 CURVE",
"722 54 LINE",
"659 73 OFFCURVE",
"626 109 OFFCURVE",
"599 157 CURVE SMOOTH",
"497 351 LINE",
"345 315 LINE",
"368 184 LINE SMOOTH",
"386 59 OFFCURVE",
"472 -15 OFFCURVE",
"622 -15 CURVE SMOOTH"
);
}
);
};
color = -1;
layerId = "24976ABE-9171-461B-B338-52EF76BD92C7";
paths = (
{
closed = 1;
nodes = (
"319 0 LINE",
"336 65 LINE",
"279 87 LINE",
"283 115 OFFCURVE",
"304 231 OFFCURVE",
"312 269 CURVE SMOOTH",
"342 409 LINE SMOOTH",
"354 467 OFFCURVE",
"383 587 OFFCURVE",
"386 599 CURVE",
"403 599 LINE SMOOTH",
"469 599 OFFCURVE",
"499 569 OFFCURVE",
"499 519 CURVE SMOOTH",
"499 434 OFFCURVE",
"447 373 OFFCURVE",
"352 373 CURVE SMOOTH",
"305 373 LINE",
"288 297 LINE",
"374 297 LINE SMOOTH",
"581 297 OFFCURVE",
"698 400 OFFCURVE",
"698 526 CURVE SMOOTH",
"698 625 OFFCURVE",
"615 671 OFFCURVE",
"440 671 CURVE SMOOTH",
"134 671 LINE",
"117 606 LINE",
"185 586 LINE",
"182 560 OFFCURVE",
"170 498 OFFCURVE",
"152 409 CURVE SMOOTH",
"122 269 LINE SMOOTH",
"104 182 OFFCURVE",
"83 106 OFFCURVE",
"77 87 CURVE",
"-2 65 LINE",
"-13 0 LINE"
);
},
{
closed = 1;
nodes = (
"645 -15 OFFCURVE",
"674 -13 OFFCURVE",
"707 -7 CURVE",
"721 54 LINE",
"658 73 OFFCURVE",
"624 107 OFFCURVE",
"598 157 CURVE SMOOTH",
"494 351 LINE",
"342 315 LINE",
"367 184 LINE SMOOTH",
"391 59 OFFCURVE",
"448 -15 OFFCURVE",
"609 -15 CURVE SMOOTH"
);
}
);
width = 763;
},
{
anchors = (
{
name = bottom;
position = "{319, 0}";
},
{
name = top;
position = "{418, 671}";
}
);
background = {
anchors = (
{
name = bottom;
position = "{319, 0}";
},
{
name = top;
position = "{419, 671}";
}
);
paths = (
{
closed = 1;
nodes = (
"269 0 LINE",
"283 51 LINE",
"220 69 LINE",
"223 93 OFFCURVE",
"234 162 OFFCURVE",
"251 240 CURVE SMOOTH",
"291 429 LINE SMOOTH",
"314 539 OFFCURVE",
"330 604 OFFCURVE",
"333 613 CURVE",
"375 613 LINE SMOOTH",
"451 613 OFFCURVE",
"488 583 OFFCURVE",
"488 524 CURVE SMOOTH",
"488 432 OFFCURVE",
"423 367 OFFCURVE",
"329 367 CURVE SMOOTH",
"267 367 LINE",
"255 307 LINE",
"337 307 LINE SMOOTH",
"500 307 OFFCURVE",
"626 410 OFFCURVE",
"626 530 CURVE SMOOTH",
"626 627 OFFCURVE",
"554 671 OFFCURVE",
"403 671 CURVE SMOOTH",
"140 671 LINE",
"126 620 LINE",
"194 603 LINE",
"192 580 OFFCURVE",
"183 527 OFFCURVE",
"163 429 CURVE SMOOTH",
"123 240 LINE SMOOTH",
"102 145 OFFCURVE",
"88 90 OFFCURVE",
"81 69 CURVE",
"5 51 LINE",
"-3 0 LINE"
);
},
{
closed = 1;
nodes = (
"592 -13 OFFCURVE",
"613 -11 OFFCURVE",
"634 -7 CURVE",
"646 41 LINE",
"585 53 OFFCURVE",
"553 86 OFFCURVE",
"514 165 CURVE SMOOTH",
"423 351 LINE",
"314 326 LINE",
"351 194 LINE SMOOTH",
"394 45 OFFCURVE",
"455 -13 OFFCURVE",
"568 -13 CURVE SMOOTH"
);
}
);
};
color = -1;
layerId = "925D3525-5003-4FA1-BE98-2BABE6F3DA5C";
paths = (
{
closed = 1;
nodes = (
"269 0 LINE",
"283 51 LINE",
"221 69 LINE",
"223 93 OFFCURVE",
"235 162 OFFCURVE",
"251 240 CURVE SMOOTH",
"291 430 LINE SMOOTH",
"314 539 OFFCURVE",
"330 603 OFFCURVE",
"334 613 CURVE",
"376 613 LINE SMOOTH",
"451 613 OFFCURVE",
"488 583 OFFCURVE",
"488 525 CURVE SMOOTH",
"488 432 OFFCURVE",
"423 367 OFFCURVE",
"329 367 CURVE SMOOTH",
"267 367 LINE",
"255 307 LINE",
"336 307 LINE SMOOTH",
"499 307 OFFCURVE",
"626 410 OFFCURVE",
"626 529 CURVE SMOOTH",
"626 626 OFFCURVE",
"554 671 OFFCURVE",
"403 671 CURVE SMOOTH",
"142 671 LINE",
"127 619 LINE",
"194 602 LINE",
"192 581 OFFCURVE",
"183 527 OFFCURVE",
"162 430 CURVE SMOOTH",
"122 240 LINE SMOOTH",
"102 145 OFFCURVE",
"88 90 OFFCURVE",
"81 69 CURVE",
"6 51 LINE",
"-2 0 LINE"
);
},
{
closed = 1;
nodes = (
"592 -13 OFFCURVE",
"614 -11 OFFCURVE",
"634 -7 CURVE",
"646 41 LINE",
"585 53 OFFCURVE",
"553 86 OFFCURVE",
"514 165 CURVE SMOOTH",
"424 351 LINE",
"314 326 LINE",
"351 194 LINE SMOOTH",
"392 46 OFFCURVE",
"455 -13 OFFCURVE",
"568 -13 CURVE SMOOTH"
);
}
);
width = 688;
}
);
leftKerningGroup = H;
note = R;
rightKerningGroup = R;
unicode = 0052;
},
